<?xml version="1.0" encoding="utf-8" standalone="no"?>
<!DOCTYPE svg PUBLIC "-//W3C//DTD SVG 1.1//EN"
  "http://www.w3.org/Graphics/SVG/1.1/DTD/svg11.dtd">
<!-- Created with matplotlib (https://matplotlib.org/) -->
<svg height="345.6pt" version="1.1" viewBox="0 0 460.8 345.6" width="460.8pt" xmlns="http://www.w3.org/2000/svg" xmlns:xlink="http://www.w3.org/1999/xlink">
 <defs>
  <style type="text/css">
*{stroke-linecap:butt;stroke-linejoin:round;}
  </style>
 </defs>
 <g id="figure_1">
  <g id="patch_1">
   <path d="M 0 345.6 
L 460.8 345.6 
L 460.8 0 
L 0 0 
z
" style="fill:#ffffff;"/>
  </g>
  <g id="axes_1">
   <g id="patch_2">
    <path d="M 57.6 307.584 
L 414.72 307.584 
L 414.72 41.472 
L 57.6 41.472 
z
" style="fill:#ffffff;"/>
   </g>
   <g id="matplotlib.axis_1">
    <g id="xtick_1">
     <g id="line2d_1">
      <defs>
       <path d="M 0 0 
L 0 3.5 
" id="m447ad0fd29" style="stroke:#000000;stroke-width:0.8;"/>
      </defs>
      <g>
       <use style="stroke:#000000;stroke-width:0.8;" x="57.6" xlink:href="#m447ad0fd29" y="307.584"/>
      </g>
     </g>
     <g id="text_1">
      <!-- 0.0 -->
      <defs>
       <path d="M 31.78125 66.40625 
Q 24.171875 66.40625 20.328125 58.90625 
Q 16.5 51.421875 16.5 36.375 
Q 16.5 21.390625 20.328125 13.890625 
Q 24.171875 6.390625 31.78125 6.390625 
Q 39.453125 6.390625 43.28125 13.890625 
Q 47.125 21.390625 47.125 36.375 
Q 47.125 51.421875 43.28125 58.90625 
Q 39.453125 66.40625 31.78125 66.40625 
z
M 31.78125 74.21875 
Q 44.046875 74.21875 50.515625 64.515625 
Q 56.984375 54.828125 56.984375 36.375 
Q 56.984375 17.96875 50.515625 8.265625 
Q 44.046875 -1.421875 31.78125 -1.421875 
Q 19.53125 -1.421875 13.0625 8.265625 
Q 6.59375 17.96875 6.59375 36.375 
Q 6.59375 54.828125 13.0625 64.515625 
Q 19.53125 74.21875 31.78125 74.21875 
z
" id="DejaVuSans-48"/>
       <path d="M 10.6875 12.40625 
L 21 12.40625 
L 21 0 
L 10.6875 0 
z
" id="DejaVuSans-46"/>
      </defs>
      <g transform="translate(49.648438 322.182437)scale(0.1 -0.1)">
       <use xlink:href="#DejaVuSans-48"/>
       <use x="63.623047" xlink:href="#DejaVuSans-46"/>
       <use x="95.410156" xlink:href="#DejaVuSans-48"/>
      </g>
     </g>
    </g>
    <g id="xtick_2">
     <g id="line2d_2">
      <g>
       <use style="stroke:#000000;stroke-width:0.8;" x="129.024" xlink:href="#m447ad0fd29" y="307.584"/>
      </g>
     </g>
     <g id="text_2">
      <!-- 0.2 -->
      <defs>
       <path d="M 19.1875 8.296875 
L 53.609375 8.296875 
L 53.609375 0 
L 7.328125 0 
L 7.328125 8.296875 
Q 12.9375 14.109375 22.625 23.890625 
Q 32.328125 33.6875 34.8125 36.53125 
Q 39.546875 41.84375 41.421875 45.53125 
Q 43.3125 49.21875 43.3125 52.78125 
Q 43.3125 58.59375 39.234375 62.25 
Q 35.15625 65.921875 28.609375 65.921875 
Q 23.96875 65.921875 18.8125 64.3125 
Q 13.671875 62.703125 7.8125 59.421875 
L 7.8125 69.390625 
Q 13.765625 71.78125 18.9375 73 
Q 24.125 74.21875 28.421875 74.21875 
Q 39.75 74.21875 46.484375 68.546875 
Q 53.21875 62.890625 53.21875 53.421875 
Q 53.21875 48.921875 51.53125 44.890625 
Q 49.859375 40.875 45.40625 35.40625 
Q 44.1875 33.984375 37.640625 27.21875 
Q 31.109375 20.453125 19.1875 8.296875 
z
" id="DejaVuSans-50"/>
      </defs>
      <g transform="translate(121.072438 322.182437)scale(0.1 -0.1)">
       <use xlink:href="#DejaVuSans-48"/>
       <use x="63.623047" xlink:href="#DejaVuSans-46"/>
       <use x="95.410156" xlink:href="#DejaVuSans-50"/>
      </g>
     </g>
    </g>
    <g id="xtick_3">
     <g id="line2d_3">
      <g>
       <use style="stroke:#000000;stroke-width:0.8;" x="200.448" xlink:href="#m447ad0fd29" y="307.584"/>
      </g>
     </g>
     <g id="text_3">
      <!-- 0.4 -->
      <defs>
       <path d="M 37.796875 64.3125 
L 12.890625 25.390625 
L 37.796875 25.390625 
z
M 35.203125 72.90625 
L 47.609375 72.90625 
L 47.609375 25.390625 
L 58.015625 25.390625 
L 58.015625 17.1875 
L 47.609375 17.1875 
L 47.609375 0 
L 37.796875 0 
L 37.796875 17.1875 
L 4.890625 17.1875 
L 4.890625 26.703125 
z
" id="DejaVuSans-52"/>
      </defs>
      <g transform="translate(192.496438 322.182437)scale(0.1 -0.1)">
       <use xlink:href="#DejaVuSans-48"/>
       <use x="63.623047" xlink:href="#DejaVuSans-46"/>
       <use x="95.410156" xlink:href="#DejaVuSans-52"/>
      </g>
     </g>
    </g>
    <g id="xtick_4">
     <g id="line2d_4">
      <g>
       <use style="stroke:#000000;stroke-width:0.8;" x="271.872" xlink:href="#m447ad0fd29" y="307.584"/>
      </g>
     </g>
     <g id="text_4">
      <!-- 0.6 -->
      <defs>
       <path d="M 33.015625 40.375 
Q 26.375 40.375 22.484375 35.828125 
Q 18.609375 31.296875 18.609375 23.390625 
Q 18.609375 15.53125 22.484375 10.953125 
Q 26.375 6.390625 33.015625 6.390625 
Q 39.65625 6.390625 43.53125 10.953125 
Q 47.40625 15.53125 47.40625 23.390625 
Q 47.40625 31.296875 43.53125 35.828125 
Q 39.65625 40.375 33.015625 40.375 
z
M 52.59375 71.296875 
L 52.59375 62.3125 
Q 48.875 64.0625 45.09375 64.984375 
Q 41.3125 65.921875 37.59375 65.921875 
Q 27.828125 65.921875 22.671875 59.328125 
Q 17.53125 52.734375 16.796875 39.40625 
Q 19.671875 43.65625 24.015625 45.921875 
Q 28.375 48.1875 33.59375 48.1875 
Q 44.578125 48.1875 50.953125 41.515625 
Q 57.328125 34.859375 57.328125 23.390625 
Q 57.328125 12.15625 50.6875 5.359375 
Q 44.046875 -1.421875 33.015625 -1.421875 
Q 20.359375 -1.421875 13.671875 8.265625 
Q 6.984375 17.96875 6.984375 36.375 
Q 6.984375 53.65625 15.1875 63.9375 
Q 23.390625 74.21875 37.203125 74.21875 
Q 40.921875 74.21875 44.703125 73.484375 
Q 48.484375 72.75 52.59375 71.296875 
z
" id="DejaVuSans-54"/>
      </defs>
      <g transform="translate(263.920438 322.182437)scale(0.1 -0.1)">
       <use xlink:href="#DejaVuSans-48"/>
       <use x="63.623047" xlink:href="#DejaVuSans-46"/>
       <use x="95.410156" xlink:href="#DejaVuSans-54"/>
      </g>
     </g>
    </g>
    <g id="xtick_5">
     <g id="line2d_5">
      <g>
       <use style="stroke:#000000;stroke-width:0.8;" x="343.296" xlink:href="#m447ad0fd29" y="307.584"/>
      </g>
     </g>
     <g id="text_5">
      <!-- 0.8 -->
      <defs>
       <path d="M 31.78125 34.625 
Q 24.75 34.625 20.71875 30.859375 
Q 16.703125 27.09375 16.703125 20.515625 
Q 16.703125 13.921875 20.71875 10.15625 
Q 24.75 6.390625 31.78125 6.390625 
Q 38.8125 6.390625 42.859375 10.171875 
Q 46.921875 13.96875 46.921875 20.515625 
Q 46.921875 27.09375 42.890625 30.859375 
Q 38.875 34.625 31.78125 34.625 
z
M 21.921875 38.8125 
Q 15.578125 40.375 12.03125 44.71875 
Q 8.5 49.078125 8.5 55.328125 
Q 8.5 64.0625 14.71875 69.140625 
Q 20.953125 74.21875 31.78125 74.21875 
Q 42.671875 74.21875 48.875 69.140625 
Q 55.078125 64.0625 55.078125 55.328125 
Q 55.078125 49.078125 51.53125 44.71875 
Q 48 40.375 41.703125 38.8125 
Q 48.828125 37.15625 52.796875 32.3125 
Q 56.78125 27.484375 56.78125 20.515625 
Q 56.78125 9.90625 50.3125 4.234375 
Q 43.84375 -1.421875 31.78125 -1.421875 
Q 19.734375 -1.421875 13.25 4.234375 
Q 6.78125 9.90625 6.78125 20.515625 
Q 6.78125 27.484375 10.78125 32.3125 
Q 14.796875 37.15625 21.921875 38.8125 
z
M 18.3125 54.390625 
Q 18.3125 48.734375 21.84375 45.5625 
Q 25.390625 42.390625 31.78125 42.390625 
Q 38.140625 42.390625 41.71875 45.5625 
Q 45.3125 48.734375 45.3125 54.390625 
Q 45.3125 60.0625 41.71875 63.234375 
Q 38.140625 66.40625 31.78125 66.40625 
Q 25.390625 66.40625 21.84375 63.234375 
Q 18.3125 60.0625 18.3125 54.390625 
z
" id="DejaVuSans-56"/>
      </defs>
      <g transform="translate(335.344438 322.182437)scale(0.1 -0.1)">
       <use xlink:href="#DejaVuSans-48"/>
       <use x="63.623047" xlink:href="#DejaVuSans-46"/>
       <use x="95.410156" xlink:href="#DejaVuSans-56"/>
      </g>
     </g>
    </g>
    <g id="xtick_6">
     <g id="line2d_6">
      <g>
       <use style="stroke:#000000;stroke-width:0.8;" x="414.72" xlink:href="#m447ad0fd29" y="307.584"/>
      </g>
     </g>
     <g id="text_6">
      <!-- 1.0 -->
      <defs>
       <path d="M 12.40625 8.296875 
L 28.515625 8.296875 
L 28.515625 63.921875 
L 10.984375 60.40625 
L 10.984375 69.390625 
L 28.421875 72.90625 
L 38.28125 72.90625 
L 38.28125 8.296875 
L 54.390625 8.296875 
L 54.390625 0 
L 12.40625 0 
z
" id="DejaVuSans-49"/>
      </defs>
      <g transform="translate(406.768438 322.182437)scale(0.1 -0.1)">
       <use xlink:href="#DejaVuSans-49"/>
       <use x="63.623047" xlink:href="#DejaVuSans-46"/>
       <use x="95.410156" xlink:href="#DejaVuSans-48"/>
      </g>
     </g>
    </g>
    <g id="text_7">
     <!-- Recall -->
     <defs>
      <path d="M 44.390625 34.1875 
Q 47.5625 33.109375 50.5625 29.59375 
Q 53.5625 26.078125 56.59375 19.921875 
L 66.609375 0 
L 56 0 
L 46.6875 18.703125 
Q 43.0625 26.03125 39.671875 28.421875 
Q 36.28125 30.8125 30.421875 30.8125 
L 19.671875 30.8125 
L 19.671875 0 
L 9.8125 0 
L 9.8125 72.90625 
L 32.078125 72.90625 
Q 44.578125 72.90625 50.734375 67.671875 
Q 56.890625 62.453125 56.890625 51.90625 
Q 56.890625 45.015625 53.6875 40.46875 
Q 50.484375 35.9375 44.390625 34.1875 
z
M 19.671875 64.796875 
L 19.671875 38.921875 
L 32.078125 38.921875 
Q 39.203125 38.921875 42.84375 42.21875 
Q 46.484375 45.515625 46.484375 51.90625 
Q 46.484375 58.296875 42.84375 61.546875 
Q 39.203125 64.796875 32.078125 64.796875 
z
" id="DejaVuSans-82"/>
      <path d="M 56.203125 29.59375 
L 56.203125 25.203125 
L 14.890625 25.203125 
Q 15.484375 15.921875 20.484375 11.0625 
Q 25.484375 6.203125 34.421875 6.203125 
Q 39.59375 6.203125 44.453125 7.46875 
Q 49.3125 8.734375 54.109375 11.28125 
L 54.109375 2.78125 
Q 49.265625 0.734375 44.1875 -0.34375 
Q 39.109375 -1.421875 33.890625 -1.421875 
Q 20.796875 -1.421875 13.15625 6.1875 
Q 5.515625 13.8125 5.515625 26.8125 
Q 5.515625 40.234375 12.765625 48.109375 
Q 20.015625 56 32.328125 56 
Q 43.359375 56 49.78125 48.890625 
Q 56.203125 41.796875 56.203125 29.59375 
z
M 47.21875 32.234375 
Q 47.125 39.59375 43.09375 43.984375 
Q 39.0625 48.390625 32.421875 48.390625 
Q 24.90625 48.390625 20.390625 44.140625 
Q 15.875 39.890625 15.1875 32.171875 
z
" id="DejaVuSans-101"/>
      <path d="M 48.78125 52.59375 
L 48.78125 44.1875 
Q 44.96875 46.296875 41.140625 47.34375 
Q 37.3125 48.390625 33.40625 48.390625 
Q 24.65625 48.390625 19.8125 42.84375 
Q 14.984375 37.3125 14.984375 27.296875 
Q 14.984375 17.28125 19.8125 11.734375 
Q 24.65625 6.203125 33.40625 6.203125 
Q 37.3125 6.203125 41.140625 7.25 
Q 44.96875 8.296875 48.78125 10.40625 
L 48.78125 2.09375 
Q 45.015625 0.34375 40.984375 -0.53125 
Q 36.96875 -1.421875 32.421875 -1.421875 
Q 20.0625 -1.421875 12.78125 6.34375 
Q 5.515625 14.109375 5.515625 27.296875 
Q 5.515625 40.671875 12.859375 48.328125 
Q 20.21875 56 33.015625 56 
Q 37.15625 56 41.109375 55.140625 
Q 45.0625 54.296875 48.78125 52.59375 
z
" id="DejaVuSans-99"/>
      <path d="M 34.28125 27.484375 
Q 23.390625 27.484375 19.1875 25 
Q 14.984375 22.515625 14.984375 16.5 
Q 14.984375 11.71875 18.140625 8.90625 
Q 21.296875 6.109375 26.703125 6.109375 
Q 34.1875 6.109375 38.703125 11.40625 
Q 43.21875 16.703125 43.21875 25.484375 
L 43.21875 27.484375 
z
M 52.203125 31.203125 
L 52.203125 0 
L 43.21875 0 
L 43.21875 8.296875 
Q 40.140625 3.328125 35.546875 0.953125 
Q 30.953125 -1.421875 24.3125 -1.421875 
Q 15.921875 -1.421875 10.953125 3.296875 
Q 6 8.015625 6 15.921875 
Q 6 25.140625 12.171875 29.828125 
Q 18.359375 34.515625 30.609375 34.515625 
L 43.21875 34.515625 
L 43.21875 35.40625 
Q 43.21875 41.609375 39.140625 45 
Q 35.0625 48.390625 27.6875 48.390625 
Q 23 48.390625 18.546875 47.265625 
Q 14.109375 46.140625 10.015625 43.890625 
L 10.015625 52.203125 
Q 14.9375 54.109375 19.578125 55.046875 
Q 24.21875 56 28.609375 56 
Q 40.484375 56 46.34375 49.84375 
Q 52.203125 43.703125 52.203125 31.203125 
z
" id="DejaVuSans-97"/>
      <path d="M 9.421875 75.984375 
L 18.40625 75.984375 
L 18.40625 0 
L 9.421875 0 
z
" id="DejaVuSans-108"/>
     </defs>
     <g transform="translate(221.242812 335.860562)scale(0.1 -0.1)">
      <use xlink:href="#DejaVuSans-82"/>
      <use x="64.982422" xlink:href="#DejaVuSans-101"/>
      <use x="126.505859" xlink:href="#DejaVuSans-99"/>
      <use x="181.486328" xlink:href="#DejaVuSans-97"/>
      <use x="242.765625" xlink:href="#DejaVuSans-108"/>
      <use x="270.548828" xlink:href="#DejaVuSans-108"/>
     </g>
    </g>
   </g>
   <g id="matplotlib.axis_2">
    <g id="ytick_1">
     <g id="line2d_7">
      <defs>
       <path d="M 0 0 
L -3.5 0 
" id="m2f9e5cddb9" style="stroke:#000000;stroke-width:0.8;"/>
      </defs>
      <g>
       <use style="stroke:#000000;stroke-width:0.8;" x="57.6" xlink:href="#m2f9e5cddb9" y="295.488"/>
      </g>
     </g>
     <g id="text_8">
      <!-- 0.0 -->
      <g transform="translate(34.696875 299.287219)scale(0.1 -0.1)">
       <use xlink:href="#DejaVuSans-48"/>
       <use x="63.623047" xlink:href="#DejaVuSans-46"/>
       <use x="95.410156" xlink:href="#DejaVuSans-48"/>
      </g>
     </g>
    </g>
    <g id="ytick_2">
     <g id="line2d_8">
      <g>
       <use style="stroke:#000000;stroke-width:0.8;" x="57.6" xlink:href="#m2f9e5cddb9" y="247.104"/>
      </g>
     </g>
     <g id="text_9">
      <!-- 0.2 -->
      <g transform="translate(34.696875 250.903219)scale(0.1 -0.1)">
       <use xlink:href="#DejaVuSans-48"/>
       <use x="63.623047" xlink:href="#DejaVuSans-46"/>
       <use x="95.410156" xlink:href="#DejaVuSans-50"/>
      </g>
     </g>
    </g>
    <g id="ytick_3">
     <g id="line2d_9">
      <g>
       <use style="stroke:#000000;stroke-width:0.8;" x="57.6" xlink:href="#m2f9e5cddb9" y="198.72"/>
      </g>
     </g>
     <g id="text_10">
      <!-- 0.4 -->
      <g transform="translate(34.696875 202.519219)scale(0.1 -0.1)">
       <use xlink:href="#DejaVuSans-48"/>
       <use x="63.623047" xlink:href="#DejaVuSans-46"/>
       <use x="95.410156" xlink:href="#DejaVuSans-52"/>
      </g>
     </g>
    </g>
    <g id="ytick_4">
     <g id="line2d_10">
      <g>
       <use style="stroke:#000000;stroke-width:0.8;" x="57.6" xlink:href="#m2f9e5cddb9" y="150.336"/>
      </g>
     </g>
     <g id="text_11">
      <!-- 0.6 -->
      <g transform="translate(34.696875 154.135219)scale(0.1 -0.1)">
       <use xlink:href="#DejaVuSans-48"/>
       <use x="63.623047" xlink:href="#DejaVuSans-46"/>
       <use x="95.410156" xlink:href="#DejaVuSans-54"/>
      </g>
     </g>
    </g>
    <g id="ytick_5">
     <g id="line2d_11">
      <g>
       <use style="stroke:#000000;stroke-width:0.8;" x="57.6" xlink:href="#m2f9e5cddb9" y="101.952"/>
      </g>
     </g>
     <g id="text_12">
      <!-- 0.8 -->
      <g transform="translate(34.696875 105.751219)scale(0.1 -0.1)">
       <use xlink:href="#DejaVuSans-48"/>
       <use x="63.623047" xlink:href="#DejaVuSans-46"/>
       <use x="95.410156" xlink:href="#DejaVuSans-56"/>
      </g>
     </g>
    </g>
    <g id="ytick_6">
     <g id="line2d_12">
      <g>
       <use style="stroke:#000000;stroke-width:0.8;" x="57.6" xlink:href="#m2f9e5cddb9" y="53.568"/>
      </g>
     </g>
     <g id="text_13">
      <!-- 1.0 -->
      <g transform="translate(34.696875 57.367219)scale(0.1 -0.1)">
       <use xlink:href="#DejaVuSans-49"/>
       <use x="63.623047" xlink:href="#DejaVuSans-46"/>
       <use x="95.410156" xlink:href="#DejaVuSans-48"/>
      </g>
     </g>
    </g>
    <g id="text_14">
     <!-- Precision -->
     <defs>
      <path d="M 19.671875 64.796875 
L 19.671875 37.40625 
L 32.078125 37.40625 
Q 38.96875 37.40625 42.71875 40.96875 
Q 46.484375 44.53125 46.484375 51.125 
Q 46.484375 57.671875 42.71875 61.234375 
Q 38.96875 64.796875 32.078125 64.796875 
z
M 9.8125 72.90625 
L 32.078125 72.90625 
Q 44.34375 72.90625 50.609375 67.359375 
Q 56.890625 61.8125 56.890625 51.125 
Q 56.890625 40.328125 50.609375 34.8125 
Q 44.34375 29.296875 32.078125 29.296875 
L 19.671875 29.296875 
L 19.671875 0 
L 9.8125 0 
z
" id="DejaVuSans-80"/>
      <path d="M 41.109375 46.296875 
Q 39.59375 47.171875 37.8125 47.578125 
Q 36.03125 48 33.890625 48 
Q 26.265625 48 22.1875 43.046875 
Q 18.109375 38.09375 18.109375 28.8125 
L 18.109375 0 
L 9.078125 0 
L 9.078125 54.6875 
L 18.109375 54.6875 
L 18.109375 46.1875 
Q 20.953125 51.171875 25.484375 53.578125 
Q 30.03125 56 36.53125 56 
Q 37.453125 56 38.578125 55.875 
Q 39.703125 55.765625 41.0625 55.515625 
z
" id="DejaVuSans-114"/>
      <path d="M 9.421875 54.6875 
L 18.40625 54.6875 
L 18.40625 0 
L 9.421875 0 
z
M 9.421875 75.984375 
L 18.40625 75.984375 
L 18.40625 64.59375 
L 9.421875 64.59375 
z
" id="DejaVuSans-105"/>
      <path d="M 44.28125 53.078125 
L 44.28125 44.578125 
Q 40.484375 46.53125 36.375 47.5 
Q 32.28125 48.484375 27.875 48.484375 
Q 21.1875 48.484375 17.84375 46.4375 
Q 14.5 44.390625 14.5 40.28125 
Q 14.5 37.15625 16.890625 35.375 
Q 19.28125 33.59375 26.515625 31.984375 
L 29.59375 31.296875 
Q 39.15625 29.25 43.1875 25.515625 
Q 47.21875 21.78125 47.21875 15.09375 
Q 47.21875 7.46875 41.1875 3.015625 
Q 35.15625 -1.421875 24.609375 -1.421875 
Q 20.21875 -1.421875 15.453125 -0.5625 
Q 10.6875 0.296875 5.421875 2 
L 5.421875 11.28125 
Q 10.40625 8.6875 15.234375 7.390625 
Q 20.0625 6.109375 24.8125 6.109375 
Q 31.15625 6.109375 34.5625 8.28125 
Q 37.984375 10.453125 37.984375 14.40625 
Q 37.984375 18.0625 35.515625 20.015625 
Q 33.0625 21.96875 24.703125 23.78125 
L 21.578125 24.515625 
Q 13.234375 26.265625 9.515625 29.90625 
Q 5.8125 33.546875 5.8125 39.890625 
Q 5.8125 47.609375 11.28125 51.796875 
Q 16.75 56 26.8125 56 
Q 31.78125 56 36.171875 55.265625 
Q 40.578125 54.546875 44.28125 53.078125 
z
" id="DejaVuSans-115"/>
      <path d="M 30.609375 48.390625 
Q 23.390625 48.390625 19.1875 42.75 
Q 14.984375 37.109375 14.984375 27.296875 
Q 14.984375 17.484375 19.15625 11.84375 
Q 23.34375 6.203125 30.609375 6.203125 
Q 37.796875 6.203125 41.984375 11.859375 
Q 46.1875 17.53125 46.1875 27.296875 
Q 46.1875 37.015625 41.984375 42.703125 
Q 37.796875 48.390625 30.609375 48.390625 
z
M 30.609375 56 
Q 42.328125 56 49.015625 48.375 
Q 55.71875 40.765625 55.71875 27.296875 
Q 55.71875 13.875 49.015625 6.21875 
Q 42.328125 -1.421875 30.609375 -1.421875 
Q 18.84375 -1.421875 12.171875 6.21875 
Q 5.515625 13.875 5.515625 27.296875 
Q 5.515625 40.765625 12.171875 48.375 
Q 18.84375 56 30.609375 56 
z
" id="DejaVuSans-111"/>
      <path d="M 54.890625 33.015625 
L 54.890625 0 
L 45.90625 0 
L 45.90625 32.71875 
Q 45.90625 40.484375 42.875 44.328125 
Q 39.84375 48.1875 33.796875 48.1875 
Q 26.515625 48.1875 22.3125 43.546875 
Q 18.109375 38.921875 18.109375 30.90625 
L 18.109375 0 
L 9.078125 0 
L 9.078125 54.6875 
L 18.109375 54.6875 
L 18.109375 46.1875 
Q 21.34375 51.125 25.703125 53.5625 
Q 30.078125 56 35.796875 56 
Q 45.21875 56 50.046875 50.171875 
Q 54.890625 44.34375 54.890625 33.015625 
z
" id="DejaVuSans-110"/>
     </defs>
     <g transform="translate(28.617187 196.835031)rotate(-90)scale(0.1 -0.1)">
      <use xlink:href="#DejaVuSans-80"/>
      <use x="58.552734" xlink:href="#DejaVuSans-114"/>
      <use x="97.416016" xlink:href="#DejaVuSans-101"/>
      <use x="158.939453" xlink:href="#DejaVuSans-99"/>
      <use x="213.919922" xlink:href="#DejaVuSans-105"/>
      <use x="241.703125" xlink:href="#DejaVuSans-115"/>
      <use x="293.802734" xlink:href="#DejaVuSans-105"/>
      <use x="321.585938" xlink:href="#DejaVuSans-111"/>
      <use x="382.767578" xlink:href="#DejaVuSans-110"/>
     </g>
    </g>
   </g>
   <g id="line2d_13">
    <path clip-path="url(#pac129d83be)" d="M 414.72 295.183611 
L 301.090909 293.408458 
L 301.090909 291.581864 
L 284.858182 291.826508 
L 284.858182 291.716419 
L 284.858182 284.969739 
L 268.625455 285.629191 
L 268.625455 285.535595 
L 268.625455 267.155027 
L 252.392727 268.10083 
L 252.392727 264.604596 
L 236.16 266.873806 
L 236.16 264.544744 
L 219.927273 267.026824 
L 219.927273 256.468645 
L 203.694545 259.794885 
L 203.694545 256.608 
L 187.461818 260.299636 
L 187.461818 198.72 
L 171.229091 206.359579 
L 154.996364 198.72 
L 138.763636 209.088 
L 138.763636 202.441846 
L 122.530909 214.848 
L 106.298182 229.509818 
L 106.298182 214.848 
L 90.065455 235.008 
L 73.832727 260.928 
L 57.6 295.488 
L 57.6 295.488 
L 57.6 53.568 
L 57.6 53.568 
" style="fill:none;stroke:#59b2e6;stroke-linecap:square;stroke-opacity:0.85;stroke-width:1.5;"/>
   </g>
   <g id="line2d_14">
    <path clip-path="url(#pac129d83be)" d="M 414.72 294.23982 
L 284.858182 294.68996 
L 284.858182 294.580476 
L 284.858182 292.7232 
L 268.625455 292.916487 
L 268.625455 292.809158 
L 268.625455 292.562456 
L 236.16 292.99164 
L 236.16 292.861031 
L 236.16 287.970712 
L 219.927273 288.634742 
L 219.927273 288.595692 
L 219.927273 286.393263 
L 203.694545 287.271849 
L 187.461818 287.986605 
L 187.461818 287.928 
L 171.229091 288.576 
L 171.229091 288.490314 
L 171.229091 288.027912 
L 154.996364 289.065345 
L 154.996364 289.008 
L 154.996364 286.796263 
L 138.763636 288.201253 
L 138.763636 288.157091 
L 138.763636 285.888 
L 122.530909 287.74656 
L 122.530909 286.999579 
L 106.298182 288.705196 
L 106.298182 288.641208 
L 106.298182 285.12 
L 90.065455 288.475826 
L 90.065455 287.928 
L 73.832727 291.456 
L 73.832727 288.157091 
L 57.6 295.488 
L 57.6 295.488 
L 57.6 53.568 
L 57.6 53.568 
" style="fill:none;stroke:#e69900;stroke-linecap:square;stroke-opacity:0.85;stroke-width:1.5;"/>
   </g>
   <g id="line2d_15">
    <path clip-path="url(#pac129d83be)" d="M 414.72 295.183611 
L 301.090909 293.408458 
L 301.090909 283.310819 
L 284.858182 284.084364 
L 284.858182 284.007051 
L 284.858182 283.435046 
L 268.625455 284.256 
L 268.625455 284.175194 
L 268.625455 283.008 
L 252.392727 283.922104 
L 252.392727 283.829205 
L 252.392727 283.186983 
L 236.16 284.164085 
L 236.16 284.066884 
L 236.16 281.628 
L 219.927273 282.822031 
L 219.927273 282.755368 
L 219.927273 281.001772 
L 203.694545 282.048 
L 203.694545 281.964522 
L 203.694545 266.065297 
L 187.461818 268.976219 
L 187.461818 260.299636 
L 171.229091 264.128 
L 171.229091 263.536302 
L 154.996364 267.574154 
L 154.996364 245.435586 
L 138.763636 252.288 
L 138.763636 228.288 
L 122.530909 238.565647 
L 106.298182 239.660308 
L 106.298182 235.008 
L 90.065455 251.502545 
L 73.832727 271.296 
L 73.832727 268.608 
L 57.6 295.488 
L 57.6 295.488 
L 57.6 53.568 
L 57.6 53.568 
" style="fill:none;stroke:#000000;stroke-linecap:square;stroke-opacity:0.85;stroke-width:1.5;"/>
   </g>
   <g id="line2d_16">
    <path clip-path="url(#pac129d83be)" d="M 414.72 295.183611 
L 301.090909 293.18838 
L 301.090909 292.343459 
L 284.858182 292.55055 
L 284.858182 292.439503 
L 284.858182 290.784 
L 268.625455 291.113925 
L 268.625455 291.008 
L 268.625455 279.995586 
L 252.392727 281.116515 
L 252.392727 281.045015 
L 252.392727 280.128 
L 236.16 281.333106 
L 236.16 281.257412 
L 236.16 276.48 
L 219.927273 278.083683 
L 219.927273 269.192348 
L 203.694545 271.561846 
L 203.694545 267.211636 
L 187.461818 270.022737 
L 187.461818 258.971774 
L 171.229091 262.921846 
L 171.229091 262.283294 
L 154.996364 266.4576 
L 154.996364 265.248 
L 138.763636 267.357767 
L 138.763636 266.688 
L 122.530909 271.886049 
L 122.530909 270.022737 
L 106.298182 274.142118 
L 106.298182 243.648 
L 90.065455 255.168 
L 90.065455 251.502545 
L 73.832727 271.296 
L 57.6 295.488 
L 57.6 295.488 
L 57.6 53.568 
L 57.6 53.568 
" style="fill:none;stroke:#cc99b2;stroke-linecap:square;stroke-opacity:0.85;stroke-width:1.5;"/>
   </g>
   <g id="line2d_17">
    <path clip-path="url(#pac129d83be)" d="M 414.72 295.183611 
L 301.090909 293.407266 
L 301.090909 292.357025 
L 284.858182 292.563233 
L 284.858182 292.453161 
L 284.858182 292.01071 
L 268.625455 292.242427 
L 268.625455 292.131586 
L 268.625455 291.708 
L 252.392727 291.99457 
L 252.392727 291.886213 
L 252.392727 291.678236 
L 236.16 291.991127 
L 236.16 291.882146 
L 236.16 291.406528 
L 219.927273 291.771871 
L 219.927273 291.666199 
L 219.927273 291.331299 
L 203.694545 291.74053 
L 203.694545 291.634407 
L 203.694545 291.017199 
L 187.461818 291.505778 
L 187.461818 291.39633 
L 187.461818 289.974154 
L 171.229091 290.6496 
L 171.229091 290.550857 
L 171.229091 289.049065 
L 154.996364 289.947847 
L 154.996364 289.840062 
L 154.996364 289.363443 
L 138.763636 290.362576 
L 138.763636 290.251636 
L 138.763636 289.755299 
L 122.530909 290.88 
L 122.530909 290.790524 
L 122.530909 281.664 
L 106.298182 284.969739 
L 106.298182 283.186983 
L 90.065455 287.145931 
L 90.065455 286.999579 
L 73.832727 290.923472 
L 73.832727 290.835692 
L 73.832727 290.550857 
L 57.6 295.488 
L 57.6 295.488 
L 57.6 53.568 
L 57.6 53.568 
" style="fill:none;stroke:#cc6600;stroke-linecap:square;stroke-opacity:0.85;stroke-width:1.5;"/>
   </g>
   <g id="line2d_18">
    <path clip-path="url(#pac129d83be)" d="M 414.72 295.183611 
L 301.090909 293.408458 
L 301.090909 291.42894 
L 284.858182 291.695301 
L 284.858182 291.586065 
L 284.858182 290.034087 
L 268.625455 290.399068 
L 268.625455 290.289719 
L 268.625455 288.307726 
L 236.16 289.328 
L 236.16 288.31517 
L 219.927273 288.949622 
L 219.927273 288.860055 
L 219.927273 287.951551 
L 203.694545 288.684 
L 203.694545 288.576 
L 203.694545 288.395883 
L 187.461818 288.949622 
L 187.461818 288.882676 
L 187.461818 286.848 
L 171.229091 287.894099 
L 171.229091 287.859892 
L 171.229091 281.607344 
L 154.996364 283.392 
L 154.996364 276.1344 
L 138.763636 279.142054 
L 138.763636 278.688 
L 122.530909 281.858704 
L 122.530909 275.328 
L 106.298182 280.046298 
L 106.298182 270.461793 
L 90.065455 277.568 
L 90.065455 272.448 
L 73.832727 278.208 
L 73.832727 260.928 
L 57.6 295.488 
L 57.6 295.488 
L 57.6 53.568 
L 57.6 53.568 
" style="fill:none;stroke:#0073b2;stroke-linecap:square;stroke-opacity:0.85;stroke-width:1.5;"/>
   </g>
   <g id="line2d_19">
    <path clip-path="url(#pac129d83be)" d="M 414.72 295.183611 
L 301.090909 293.412027 
L 301.090909 291.792684 
L 268.625455 292.235715 
L 268.625455 292.170532 
L 268.625455 292.156475 
L 252.392727 292.409485 
L 252.392727 292.325647 
L 252.392727 291.693176 
L 236.16 292.004859 
L 236.16 291.896745 
L 236.16 290.851902 
L 219.927273 291.26601 
L 219.927273 291.160272 
L 219.927273 288.823537 
L 203.694545 289.473414 
L 203.694545 289.372045 
L 203.694545 288.509538 
L 187.461818 289.100673 
L 187.461818 288.993503 
L 187.461818 285.248 
L 171.229091 286.48034 
L 171.229091 286.432171 
L 171.229091 282.153827 
L 154.996364 283.968 
L 154.996364 283.87584 
L 154.996364 267.574154 
L 138.763636 271.770353 
L 138.763636 267.357767 
L 122.530909 268.608 
L 122.530909 230.976 
L 106.298182 243.648 
L 106.298182 229.509818 
L 90.065455 241.728 
L 73.832727 265.248 
L 73.832727 255.168 
L 57.6 295.488 
L 57.6 295.488 
L 57.6 53.568 
L 57.6 53.568 
" style="fill:none;stroke:#009980;stroke-linecap:square;stroke-opacity:0.85;stroke-width:1.5;"/>
   </g>
   <g id="line2d_20">
    <path clip-path="url(#pac129d83be)" d="M 414.72 295.183611 
L 268.625455 293.436493 
L 268.625455 293.285647 
L 252.392727 293.452208 
L 252.392727 293.342368 
L 252.392727 291.836377 
L 236.16 292.136463 
L 236.16 292.032 
L 236.16 291.713362 
L 219.927273 292.051636 
L 219.927273 291.961469 
L 219.927273 290.853517 
L 203.694545 291.30896 
L 203.694545 291.202016 
L 203.694545 290.595236 
L 187.461818 291.049101 
L 187.461818 290.944901 
L 187.461818 287.523556 
L 171.229091 288.490314 
L 171.229091 288.402477 
L 171.229091 285.286554 
L 154.996364 286.690909 
L 154.996364 286.582969 
L 154.996364 283.491967 
L 138.763636 285.408 
L 138.763636 285.323294 
L 138.763636 281.896989 
L 122.530909 283.687024 
L 122.530909 281.463652 
L 106.298182 284.815059 
L 106.298182 277.344 
L 90.065455 283.081846 
L 90.065455 268.608 
L 73.832727 281.257412 
L 73.832727 271.296 
L 57.6 295.488 
L 57.6 295.488 
L 57.6 53.568 
L 57.6 53.568 
" style="fill:none;stroke:#59b2e6;stroke-dasharray:5.55,2.4;stroke-dashoffset:0;stroke-opacity:0.85;stroke-width:1.5;"/>
   </g>
   <g id="line2d_21">
    <path clip-path="url(#pac129d83be)" d="M 414.72 294.780067 
L 366.021818 294.845495 
L 366.021818 294.761743 
L 366.021818 294.580143 
L 333.556364 294.626534 
L 333.556364 294.564434 
L 333.556364 293.611796 
L 317.323636 293.702613 
L 317.323636 293.600765 
L 317.323636 291.962754 
L 301.090909 292.109229 
L 301.090909 292.035288 
L 301.090909 287.388 
L 268.625455 288 
L 268.625455 287.798611 
L 268.625455 287.033806 
L 252.392727 287.446338 
L 252.392727 281.395573 
L 236.16 281.555435 
L 236.16 276.48 
L 219.927273 277.298526 
L 219.927273 276.734512 
L 203.694545 277.49395 
L 203.694545 276.220035 
L 171.229091 279.808 
L 154.996364 281.922393 
L 154.996364 272.808 
L 138.763636 276.288 
L 138.763636 274.632828 
L 122.530909 276.1344 
L 122.530909 238.565647 
L 106.298182 247.104 
L 90.065455 260.928 
L 90.065455 247.104 
L 73.832727 265.248 
L 73.832727 247.104 
L 57.6 295.488 
L 57.6 295.488 
L 57.6 53.568 
L 57.6 53.568 
" style="fill:none;stroke:#e69900;stroke-dasharray:5.55,2.4;stroke-dashoffset:0;stroke-opacity:0.85;stroke-width:1.5;"/>
   </g>
   <g id="line2d_22">
    <path clip-path="url(#pac129d83be)" d="M 414.72 295.183611 
L 301.090909 293.519036 
L 301.090909 293.510452 
L 301.090909 293.490862 
L 301.090909 293.487559 
L 301.090909 293.486456 
L 301.090909 293.485351 
L 301.090909 293.478698 
L 301.090909 293.477584 
L 301.090909 293.461869 
L 301.090909 293.460737 
L 301.090909 293.45847 
L 301.090909 293.452778 
L 301.090909 293.311155 
L 301.090909 293.305919 
L 301.090909 293.299339 
L 301.090909 293.057457 
L 301.090909 293.04765 
L 301.090909 293.036108 
L 301.090909 293.03279 
L 301.090909 293.026128 
L 301.090909 292.997403 
L 301.090909 292.717924 
L 301.090909 292.715807 
L 301.090909 292.703042 
L 301.090909 292.683672 
L 284.858182 291.737302 
L 284.858182 291.733144 
L 284.858182 291.7248 
L 236.16 292.436257 
L 236.16 292.432753 
L 236.16 291.766154 
L 236.16 291.718708 
L 219.927273 290.678457 
L 219.927273 290.600727 
L 219.927273 290.590834 
L 171.229091 291.766154 
L 171.229091 291.757956 
L 171.229091 291.749722 
L 171.229091 287.648 
L 171.229091 287.062925 
L 138.763636 287.783541 
L 138.763636 287.684129 
L 138.763636 287.633455 
L 122.530909 275.739429 
L 106.298182 276.878769 
L 106.298182 276.389053 
L 73.832727 273.495273 
L 73.832727 265.248 
L 57.6 295.488 
L 57.6 53.568 
" style="fill:none;stroke:#000000;stroke-dasharray:5.55,2.4;stroke-dashoffset:0;stroke-opacity:0.85;stroke-width:1.5;"/>
   </g>
   <g id="patch_3">
    <path d="M 57.6 307.584 
L 57.6 41.472 
" style="fill:none;stroke:#000000;stroke-linecap:square;stroke-linejoin:miter;stroke-width:0.8;"/>
   </g>
   <g id="patch_4">
    <path d="M 414.72 307.584 
L 414.72 41.472 
" style="fill:none;stroke:#000000;stroke-linecap:square;stroke-linejoin:miter;stroke-width:0.8;"/>
   </g>
   <g id="patch_5">
    <path d="M 57.6 307.584 
L 414.72 307.584 
" style="fill:none;stroke:#000000;stroke-linecap:square;stroke-linejoin:miter;stroke-width:0.8;"/>
   </g>
   <g id="patch_6">
    <path d="M 57.6 41.472 
L 414.72 41.472 
" style="fill:none;stroke:#000000;stroke-linecap:square;stroke-linejoin:miter;stroke-width:0.8;"/>
   </g>
   <g id="text_15">
    <!-- Precision-Recall curve -->
    <defs>
     <path d="M 4.890625 31.390625 
L 31.203125 31.390625 
L 31.203125 23.390625 
L 4.890625 23.390625 
z
" id="DejaVuSans-45"/>
     <path id="DejaVuSans-32"/>
     <path d="M 8.5 21.578125 
L 8.5 54.6875 
L 17.484375 54.6875 
L 17.484375 21.921875 
Q 17.484375 14.15625 20.5 10.265625 
Q 23.53125 6.390625 29.59375 6.390625 
Q 36.859375 6.390625 41.078125 11.03125 
Q 45.3125 15.671875 45.3125 23.6875 
L 45.3125 54.6875 
L 54.296875 54.6875 
L 54.296875 0 
L 45.3125 0 
L 45.3125 8.40625 
Q 42.046875 3.421875 37.71875 1 
Q 33.40625 -1.421875 27.6875 -1.421875 
Q 18.265625 -1.421875 13.375 4.4375 
Q 8.5 10.296875 8.5 21.578125 
z
M 31.109375 56 
z
" id="DejaVuSans-117"/>
     <path d="M 2.984375 54.6875 
L 12.5 54.6875 
L 29.59375 8.796875 
L 46.6875 54.6875 
L 56.203125 54.6875 
L 35.6875 0 
L 23.484375 0 
z
" id="DejaVuSans-118"/>
    </defs>
    <g transform="translate(170.608125 35.472)scale(0.12 -0.12)">
     <use xlink:href="#DejaVuSans-80"/>
     <use x="58.552734" xlink:href="#DejaVuSans-114"/>
     <use x="97.416016" xlink:href="#DejaVuSans-101"/>
     <use x="158.939453" xlink:href="#DejaVuSans-99"/>
     <use x="213.919922" xlink:href="#DejaVuSans-105"/>
     <use x="241.703125" xlink:href="#DejaVuSans-115"/>
     <use x="293.802734" xlink:href="#DejaVuSans-105"/>
     <use x="321.585938" xlink:href="#DejaVuSans-111"/>
     <use x="382.767578" xlink:href="#DejaVuSans-110"/>
     <use x="446.146484" xlink:href="#DejaVuSans-45"/>
     <use x="482.230469" xlink:href="#DejaVuSans-82"/>
     <use x="547.212891" xlink:href="#DejaVuSans-101"/>
     <use x="608.736328" xlink:href="#DejaVuSans-99"/>
     <use x="663.716797" xlink:href="#DejaVuSans-97"/>
     <use x="724.996094" xlink:href="#DejaVuSans-108"/>
     <use x="752.779297" xlink:href="#DejaVuSans-108"/>
     <use x="780.5625" xlink:href="#DejaVuSans-32"/>
     <use x="812.349609" xlink:href="#DejaVuSans-99"/>
     <use x="867.330078" xlink:href="#DejaVuSans-117"/>
     <use x="930.708984" xlink:href="#DejaVuSans-114"/>
     <use x="971.822266" xlink:href="#DejaVuSans-118"/>
     <use x="1031.001953" xlink:href="#DejaVuSans-101"/>
    </g>
   </g>
   <g id="legend_1">
    <g id="patch_7">
     <path d="M 291.128 147.9168 
L 411.713938 147.9168 
Q 413.113938 147.9168 413.113938 146.5168 
L 413.113938 44.275237 
Q 413.113938 42.875237 411.713938 42.875237 
L 291.128 42.875237 
Q 289.728 42.875237 289.728 44.275237 
L 289.728 146.5168 
Q 289.728 147.9168 291.128 147.9168 
z
" style="fill:#ffffff;opacity:0.8;stroke:#cccccc;stroke-linejoin:miter;"/>
    </g>
    <g id="line2d_23">
     <path d="M 292.528 48.544144 
L 306.528 48.544144 
" style="fill:none;stroke:#59b2e6;stroke-linecap:square;stroke-opacity:0.85;stroke-width:1.5;"/>
    </g>
    <g id="line2d_24"/>
    <g id="text_16">
     <!-- elevation (AUC = 0.15) -->
     <defs>
      <path d="M 18.3125 70.21875 
L 18.3125 54.6875 
L 36.8125 54.6875 
L 36.8125 47.703125 
L 18.3125 47.703125 
L 18.3125 18.015625 
Q 18.3125 11.328125 20.140625 9.421875 
Q 21.96875 7.515625 27.59375 7.515625 
L 36.8125 7.515625 
L 36.8125 0 
L 27.59375 0 
Q 17.1875 0 13.234375 3.875 
Q 9.28125 7.765625 9.28125 18.015625 
L 9.28125 47.703125 
L 2.6875 47.703125 
L 2.6875 54.6875 
L 9.28125 54.6875 
L 9.28125 70.21875 
z
" id="DejaVuSans-116"/>
      <path d="M 31 75.875 
Q 24.46875 64.65625 21.28125 53.65625 
Q 18.109375 42.671875 18.109375 31.390625 
Q 18.109375 20.125 21.3125 9.0625 
Q 24.515625 -2 31 -13.1875 
L 23.1875 -13.1875 
Q 15.875 -1.703125 12.234375 9.375 
Q 8.59375 20.453125 8.59375 31.390625 
Q 8.59375 42.28125 12.203125 53.3125 
Q 15.828125 64.359375 23.1875 75.875 
z
" id="DejaVuSans-40"/>
      <path d="M 34.1875 63.1875 
L 20.796875 26.90625 
L 47.609375 26.90625 
z
M 28.609375 72.90625 
L 39.796875 72.90625 
L 67.578125 0 
L 57.328125 0 
L 50.6875 18.703125 
L 17.828125 18.703125 
L 11.1875 0 
L 0.78125 0 
z
" id="DejaVuSans-65"/>
      <path d="M 8.6875 72.90625 
L 18.609375 72.90625 
L 18.609375 28.609375 
Q 18.609375 16.890625 22.84375 11.734375 
Q 27.09375 6.59375 36.625 6.59375 
Q 46.09375 6.59375 50.34375 11.734375 
Q 54.59375 16.890625 54.59375 28.609375 
L 54.59375 72.90625 
L 64.5 72.90625 
L 64.5 27.390625 
Q 64.5 13.140625 57.4375 5.859375 
Q 50.390625 -1.421875 36.625 -1.421875 
Q 22.796875 -1.421875 15.734375 5.859375 
Q 8.6875 13.140625 8.6875 27.390625 
z
" id="DejaVuSans-85"/>
      <path d="M 64.40625 67.28125 
L 64.40625 56.890625 
Q 59.421875 61.53125 53.78125 63.8125 
Q 48.140625 66.109375 41.796875 66.109375 
Q 29.296875 66.109375 22.65625 58.46875 
Q 16.015625 50.828125 16.015625 36.375 
Q 16.015625 21.96875 22.65625 14.328125 
Q 29.296875 6.6875 41.796875 6.6875 
Q 48.140625 6.6875 53.78125 8.984375 
Q 59.421875 11.28125 64.40625 15.921875 
L 64.40625 5.609375 
Q 59.234375 2.09375 53.4375 0.328125 
Q 47.65625 -1.421875 41.21875 -1.421875 
Q 24.65625 -1.421875 15.125 8.703125 
Q 5.609375 18.84375 5.609375 36.375 
Q 5.609375 53.953125 15.125 64.078125 
Q 24.65625 74.21875 41.21875 74.21875 
Q 47.75 74.21875 53.53125 72.484375 
Q 59.328125 70.75 64.40625 67.28125 
z
" id="DejaVuSans-67"/>
      <path d="M 10.59375 45.40625 
L 73.1875 45.40625 
L 73.1875 37.203125 
L 10.59375 37.203125 
z
M 10.59375 25.484375 
L 73.1875 25.484375 
L 73.1875 17.1875 
L 10.59375 17.1875 
z
" id="DejaVuSans-61"/>
      <path d="M 10.796875 72.90625 
L 49.515625 72.90625 
L 49.515625 64.59375 
L 19.828125 64.59375 
L 19.828125 46.734375 
Q 21.96875 47.46875 24.109375 47.828125 
Q 26.265625 48.1875 28.421875 48.1875 
Q 40.625 48.1875 47.75 41.5 
Q 54.890625 34.8125 54.890625 23.390625 
Q 54.890625 11.625 47.5625 5.09375 
Q 40.234375 -1.421875 26.90625 -1.421875 
Q 22.3125 -1.421875 17.546875 -0.640625 
Q 12.796875 0.140625 7.71875 1.703125 
L 7.71875 11.625 
Q 12.109375 9.234375 16.796875 8.0625 
Q 21.484375 6.890625 26.703125 6.890625 
Q 35.15625 6.890625 40.078125 11.328125 
Q 45.015625 15.765625 45.015625 23.390625 
Q 45.015625 31 40.078125 35.4375 
Q 35.15625 39.890625 26.703125 39.890625 
Q 22.75 39.890625 18.8125 39.015625 
Q 14.890625 38.140625 10.796875 36.28125 
z
" id="DejaVuSans-53"/>
      <path d="M 8.015625 75.875 
L 15.828125 75.875 
Q 23.140625 64.359375 26.78125 53.3125 
Q 30.421875 42.28125 30.421875 31.390625 
Q 30.421875 20.453125 26.78125 9.375 
Q 23.140625 -1.703125 15.828125 -13.1875 
L 8.015625 -13.1875 
Q 14.5 -2 17.703125 9.0625 
Q 20.90625 20.125 20.90625 31.390625 
Q 20.90625 42.671875 17.703125 53.65625 
Q 14.5 64.65625 8.015625 75.875 
z
" id="DejaVuSans-41"/>
     </defs>
     <g transform="translate(312.128 50.994144)scale(0.07 -0.07)">
      <use xlink:href="#DejaVuSans-101"/>
      <use x="61.523438" xlink:href="#DejaVuSans-108"/>
      <use x="89.306641" xlink:href="#DejaVuSans-101"/>
      <use x="150.830078" xlink:href="#DejaVuSans-118"/>
      <use x="210.009766" xlink:href="#DejaVuSans-97"/>
      <use x="271.289062" xlink:href="#DejaVuSans-116"/>
      <use x="310.498047" xlink:href="#DejaVuSans-105"/>
      <use x="338.28125" xlink:href="#DejaVuSans-111"/>
      <use x="399.462891" xlink:href="#DejaVuSans-110"/>
      <use x="462.841797" xlink:href="#DejaVuSans-32"/>
      <use x="494.628906" xlink:href="#DejaVuSans-40"/>
      <use x="533.642578" xlink:href="#DejaVuSans-65"/>
      <use x="602.050781" xlink:href="#DejaVuSans-85"/>
      <use x="675.244141" xlink:href="#DejaVuSans-67"/>
      <use x="745.068359" xlink:href="#DejaVuSans-32"/>
      <use x="776.855469" xlink:href="#DejaVuSans-61"/>
      <use x="860.644531" xlink:href="#DejaVuSans-32"/>
      <use x="892.431641" xlink:href="#DejaVuSans-48"/>
      <use x="956.054688" xlink:href="#DejaVuSans-46"/>
      <use x="987.841797" xlink:href="#DejaVuSans-49"/>
      <use x="1051.464844" xlink:href="#DejaVuSans-53"/>
      <use x="1115.087891" xlink:href="#DejaVuSans-41"/>
     </g>
    </g>
    <g id="line2d_25">
     <path d="M 292.528 58.818831 
L 306.528 58.818831 
" style="fill:none;stroke:#e69900;stroke-linecap:square;stroke-opacity:0.85;stroke-width:1.5;"/>
    </g>
    <g id="line2d_26"/>
    <g id="text_17">
     <!-- CRISTA (AUC = 0.02) -->
     <defs>
      <path d="M 9.8125 72.90625 
L 19.671875 72.90625 
L 19.671875 0 
L 9.8125 0 
z
" id="DejaVuSans-73"/>
      <path d="M 53.515625 70.515625 
L 53.515625 60.890625 
Q 47.90625 63.578125 42.921875 64.890625 
Q 37.9375 66.21875 33.296875 66.21875 
Q 25.25 66.21875 20.875 63.09375 
Q 16.5 59.96875 16.5 54.203125 
Q 16.5 49.359375 19.40625 46.890625 
Q 22.3125 44.4375 30.421875 42.921875 
L 36.375 41.703125 
Q 47.40625 39.59375 52.65625 34.296875 
Q 57.90625 29 57.90625 20.125 
Q 57.90625 9.515625 50.796875 4.046875 
Q 43.703125 -1.421875 29.984375 -1.421875 
Q 24.8125 -1.421875 18.96875 -0.25 
Q 13.140625 0.921875 6.890625 3.21875 
L 6.890625 13.375 
Q 12.890625 10.015625 18.65625 8.296875 
Q 24.421875 6.59375 29.984375 6.59375 
Q 38.421875 6.59375 43.015625 9.90625 
Q 47.609375 13.234375 47.609375 19.390625 
Q 47.609375 24.75 44.3125 27.78125 
Q 41.015625 30.8125 33.5 32.328125 
L 27.484375 33.5 
Q 16.453125 35.6875 11.515625 40.375 
Q 6.59375 45.0625 6.59375 53.421875 
Q 6.59375 63.09375 13.40625 68.65625 
Q 20.21875 74.21875 32.171875 74.21875 
Q 37.3125 74.21875 42.625 73.28125 
Q 47.953125 72.359375 53.515625 70.515625 
z
" id="DejaVuSans-83"/>
      <path d="M -0.296875 72.90625 
L 61.375 72.90625 
L 61.375 64.59375 
L 35.5 64.59375 
L 35.5 0 
L 25.59375 0 
L 25.59375 64.59375 
L -0.296875 64.59375 
z
" id="DejaVuSans-84"/>
     </defs>
     <g transform="translate(312.128 61.268831)scale(0.07 -0.07)">
      <use xlink:href="#DejaVuSans-67"/>
      <use x="69.824219" xlink:href="#DejaVuSans-82"/>
      <use x="139.306641" xlink:href="#DejaVuSans-73"/>
      <use x="168.798828" xlink:href="#DejaVuSans-83"/>
      <use x="232.275391" xlink:href="#DejaVuSans-84"/>
      <use x="285.609375" xlink:href="#DejaVuSans-65"/>
      <use x="354.017578" xlink:href="#DejaVuSans-32"/>
      <use x="385.804688" xlink:href="#DejaVuSans-40"/>
      <use x="424.818359" xlink:href="#DejaVuSans-65"/>
      <use x="493.226562" xlink:href="#DejaVuSans-85"/>
      <use x="566.419922" xlink:href="#DejaVuSans-67"/>
      <use x="636.244141" xlink:href="#DejaVuSans-32"/>
      <use x="668.03125" xlink:href="#DejaVuSans-61"/>
      <use x="751.820312" xlink:href="#DejaVuSans-32"/>
      <use x="783.607422" xlink:href="#DejaVuSans-48"/>
      <use x="847.230469" xlink:href="#DejaVuSans-46"/>
      <use x="879.017578" xlink:href="#DejaVuSans-48"/>
      <use x="942.640625" xlink:href="#DejaVuSans-50"/>
      <use x="1006.263672" xlink:href="#DejaVuSans-41"/>
     </g>
    </g>
    <g id="line2d_27">
     <path d="M 292.528 69.093519 
L 306.528 69.093519 
" style="fill:none;stroke:#000000;stroke-linecap:square;stroke-opacity:0.85;stroke-width:1.5;"/>
    </g>
    <g id="line2d_28"/>
    <g id="text_18">
     <!-- predictCRISPR (AUC = 0.09) -->
     <defs>
      <path d="M 18.109375 8.203125 
L 18.109375 -20.796875 
L 9.078125 -20.796875 
L 9.078125 54.6875 
L 18.109375 54.6875 
L 18.109375 46.390625 
Q 20.953125 51.265625 25.265625 53.625 
Q 29.59375 56 35.59375 56 
Q 45.5625 56 51.78125 48.09375 
Q 58.015625 40.1875 58.015625 27.296875 
Q 58.015625 14.40625 51.78125 6.484375 
Q 45.5625 -1.421875 35.59375 -1.421875 
Q 29.59375 -1.421875 25.265625 0.953125 
Q 20.953125 3.328125 18.109375 8.203125 
z
M 48.6875 27.296875 
Q 48.6875 37.203125 44.609375 42.84375 
Q 40.53125 48.484375 33.40625 48.484375 
Q 26.265625 48.484375 22.1875 42.84375 
Q 18.109375 37.203125 18.109375 27.296875 
Q 18.109375 17.390625 22.1875 11.75 
Q 26.265625 6.109375 33.40625 6.109375 
Q 40.53125 6.109375 44.609375 11.75 
Q 48.6875 17.390625 48.6875 27.296875 
z
" id="DejaVuSans-112"/>
      <path d="M 45.40625 46.390625 
L 45.40625 75.984375 
L 54.390625 75.984375 
L 54.390625 0 
L 45.40625 0 
L 45.40625 8.203125 
Q 42.578125 3.328125 38.25 0.953125 
Q 33.9375 -1.421875 27.875 -1.421875 
Q 17.96875 -1.421875 11.734375 6.484375 
Q 5.515625 14.40625 5.515625 27.296875 
Q 5.515625 40.1875 11.734375 48.09375 
Q 17.96875 56 27.875 56 
Q 33.9375 56 38.25 53.625 
Q 42.578125 51.265625 45.40625 46.390625 
z
M 14.796875 27.296875 
Q 14.796875 17.390625 18.875 11.75 
Q 22.953125 6.109375 30.078125 6.109375 
Q 37.203125 6.109375 41.296875 11.75 
Q 45.40625 17.390625 45.40625 27.296875 
Q 45.40625 37.203125 41.296875 42.84375 
Q 37.203125 48.484375 30.078125 48.484375 
Q 22.953125 48.484375 18.875 42.84375 
Q 14.796875 37.203125 14.796875 27.296875 
z
" id="DejaVuSans-100"/>
      <path d="M 10.984375 1.515625 
L 10.984375 10.5 
Q 14.703125 8.734375 18.5 7.8125 
Q 22.3125 6.890625 25.984375 6.890625 
Q 35.75 6.890625 40.890625 13.453125 
Q 46.046875 20.015625 46.78125 33.40625 
Q 43.953125 29.203125 39.59375 26.953125 
Q 35.25 24.703125 29.984375 24.703125 
Q 19.046875 24.703125 12.671875 31.3125 
Q 6.296875 37.9375 6.296875 49.421875 
Q 6.296875 60.640625 12.9375 67.421875 
Q 19.578125 74.21875 30.609375 74.21875 
Q 43.265625 74.21875 49.921875 64.515625 
Q 56.59375 54.828125 56.59375 36.375 
Q 56.59375 19.140625 48.40625 8.859375 
Q 40.234375 -1.421875 26.421875 -1.421875 
Q 22.703125 -1.421875 18.890625 -0.6875 
Q 15.09375 0.046875 10.984375 1.515625 
z
M 30.609375 32.421875 
Q 37.25 32.421875 41.125 36.953125 
Q 45.015625 41.5 45.015625 49.421875 
Q 45.015625 57.28125 41.125 61.84375 
Q 37.25 66.40625 30.609375 66.40625 
Q 23.96875 66.40625 20.09375 61.84375 
Q 16.21875 57.28125 16.21875 49.421875 
Q 16.21875 41.5 20.09375 36.953125 
Q 23.96875 32.421875 30.609375 32.421875 
z
" id="DejaVuSans-57"/>
     </defs>
     <g transform="translate(312.128 71.543519)scale(0.07 -0.07)">
      <use xlink:href="#DejaVuSans-112"/>
      <use x="63.476562" xlink:href="#DejaVuSans-114"/>
      <use x="102.339844" xlink:href="#DejaVuSans-101"/>
      <use x="163.863281" xlink:href="#DejaVuSans-100"/>
      <use x="227.339844" xlink:href="#DejaVuSans-105"/>
      <use x="255.123047" xlink:href="#DejaVuSans-99"/>
      <use x="310.103516" xlink:href="#DejaVuSans-116"/>
      <use x="349.3125" xlink:href="#DejaVuSans-67"/>
      <use x="419.136719" xlink:href="#DejaVuSans-82"/>
      <use x="488.619141" xlink:href="#DejaVuSans-73"/>
      <use x="518.111328" xlink:href="#DejaVuSans-83"/>
      <use x="581.587891" xlink:href="#DejaVuSans-80"/>
      <use x="641.890625" xlink:href="#DejaVuSans-82"/>
      <use x="711.373047" xlink:href="#DejaVuSans-32"/>
      <use x="743.160156" xlink:href="#DejaVuSans-40"/>
      <use x="782.173828" xlink:href="#DejaVuSans-65"/>
      <use x="850.582031" xlink:href="#DejaVuSans-85"/>
      <use x="923.775391" xlink:href="#DejaVuSans-67"/>
      <use x="993.599609" xlink:href="#DejaVuSans-32"/>
      <use x="1025.386719" xlink:href="#DejaVuSans-61"/>
      <use x="1109.175781" xlink:href="#DejaVuSans-32"/>
      <use x="1140.962891" xlink:href="#DejaVuSans-48"/>
      <use x="1204.585938" xlink:href="#DejaVuSans-46"/>
      <use x="1236.373047" xlink:href="#DejaVuSans-48"/>
      <use x="1299.996094" xlink:href="#DejaVuSans-57"/>
      <use x="1363.619141" xlink:href="#DejaVuSans-41"/>
     </g>
    </g>
    <g id="line2d_29">
     <path d="M 292.528 79.368206 
L 306.528 79.368206 
" style="fill:none;stroke:#cc99b2;stroke-linecap:square;stroke-opacity:0.85;stroke-width:1.5;"/>
    </g>
    <g id="line2d_30"/>
    <g id="text_19">
     <!-- CFD (AUC = 0.07) -->
     <defs>
      <path d="M 9.8125 72.90625 
L 51.703125 72.90625 
L 51.703125 64.59375 
L 19.671875 64.59375 
L 19.671875 43.109375 
L 48.578125 43.109375 
L 48.578125 34.8125 
L 19.671875 34.8125 
L 19.671875 0 
L 9.8125 0 
z
" id="DejaVuSans-70"/>
      <path d="M 19.671875 64.796875 
L 19.671875 8.109375 
L 31.59375 8.109375 
Q 46.6875 8.109375 53.6875 14.9375 
Q 60.6875 21.78125 60.6875 36.53125 
Q 60.6875 51.171875 53.6875 57.984375 
Q 46.6875 64.796875 31.59375 64.796875 
z
M 9.8125 72.90625 
L 30.078125 72.90625 
Q 51.265625 72.90625 61.171875 64.09375 
Q 71.09375 55.28125 71.09375 36.53125 
Q 71.09375 17.671875 61.125 8.828125 
Q 51.171875 0 30.078125 0 
L 9.8125 0 
z
" id="DejaVuSans-68"/>
      <path d="M 8.203125 72.90625 
L 55.078125 72.90625 
L 55.078125 68.703125 
L 28.609375 0 
L 18.3125 0 
L 43.21875 64.59375 
L 8.203125 64.59375 
z
" id="DejaVuSans-55"/>
     </defs>
     <g transform="translate(312.128 81.818206)scale(0.07 -0.07)">
      <use xlink:href="#DejaVuSans-67"/>
      <use x="69.824219" xlink:href="#DejaVuSans-70"/>
      <use x="127.34375" xlink:href="#DejaVuSans-68"/>
      <use x="204.345703" xlink:href="#DejaVuSans-32"/>
      <use x="236.132812" xlink:href="#DejaVuSans-40"/>
      <use x="275.146484" xlink:href="#DejaVuSans-65"/>
      <use x="343.554688" xlink:href="#DejaVuSans-85"/>
      <use x="416.748047" xlink:href="#DejaVuSans-67"/>
      <use x="486.572266" xlink:href="#DejaVuSans-32"/>
      <use x="518.359375" xlink:href="#DejaVuSans-61"/>
      <use x="602.148438" xlink:href="#DejaVuSans-32"/>
      <use x="633.935547" xlink:href="#DejaVuSans-48"/>
      <use x="697.558594" xlink:href="#DejaVuSans-46"/>
      <use x="729.345703" xlink:href="#DejaVuSans-48"/>
      <use x="792.96875" xlink:href="#DejaVuSans-55"/>
      <use x="856.591797" xlink:href="#DejaVuSans-41"/>
     </g>
    </g>
    <g id="line2d_31">
     <path d="M 292.528 89.642894 
L 306.528 89.642894 
" style="fill:none;stroke:#cc6600;stroke-linecap:square;stroke-opacity:0.85;stroke-width:1.5;"/>
    </g>
    <g id="line2d_32"/>
    <g id="text_20">
     <!-- CNN_std (AUC = 0.02) -->
     <defs>
      <path d="M 9.8125 72.90625 
L 23.09375 72.90625 
L 55.421875 11.921875 
L 55.421875 72.90625 
L 64.984375 72.90625 
L 64.984375 0 
L 51.703125 0 
L 19.390625 60.984375 
L 19.390625 0 
L 9.8125 0 
z
" id="DejaVuSans-78"/>
      <path d="M 50.984375 -16.609375 
L 50.984375 -23.578125 
L -0.984375 -23.578125 
L -0.984375 -16.609375 
z
" id="DejaVuSans-95"/>
     </defs>
     <g transform="translate(312.128 92.092894)scale(0.07 -0.07)">
      <use xlink:href="#DejaVuSans-67"/>
      <use x="69.824219" xlink:href="#DejaVuSans-78"/>
      <use x="144.628906" xlink:href="#DejaVuSans-78"/>
      <use x="219.433594" xlink:href="#DejaVuSans-95"/>
      <use x="269.433594" xlink:href="#DejaVuSans-115"/>
      <use x="321.533203" xlink:href="#DejaVuSans-116"/>
      <use x="360.742188" xlink:href="#DejaVuSans-100"/>
      <use x="424.21875" xlink:href="#DejaVuSans-32"/>
      <use x="456.005859" xlink:href="#DejaVuSans-40"/>
      <use x="495.019531" xlink:href="#DejaVuSans-65"/>
      <use x="563.427734" xlink:href="#DejaVuSans-85"/>
      <use x="636.621094" xlink:href="#DejaVuSans-67"/>
      <use x="706.445312" xlink:href="#DejaVuSans-32"/>
      <use x="738.232422" xlink:href="#DejaVuSans-61"/>
      <use x="822.021484" xlink:href="#DejaVuSans-32"/>
      <use x="853.808594" xlink:href="#DejaVuSans-48"/>
      <use x="917.431641" xlink:href="#DejaVuSans-46"/>
      <use x="949.21875" xlink:href="#DejaVuSans-48"/>
      <use x="1012.841797" xlink:href="#DejaVuSans-50"/>
      <use x="1076.464844" xlink:href="#DejaVuSans-41"/>
     </g>
    </g>
    <g id="line2d_33">
     <path d="M 292.528 100.112269 
L 306.528 100.112269 
" style="fill:none;stroke:#0073b2;stroke-linecap:square;stroke-opacity:0.85;stroke-width:1.5;"/>
    </g>
    <g id="line2d_34"/>
    <g id="text_21">
     <!-- MIT (AUC = 0.04) -->
     <defs>
      <path d="M 9.8125 72.90625 
L 24.515625 72.90625 
L 43.109375 23.296875 
L 61.8125 72.90625 
L 76.515625 72.90625 
L 76.515625 0 
L 66.890625 0 
L 66.890625 64.015625 
L 48.09375 14.015625 
L 38.1875 14.015625 
L 19.390625 64.015625 
L 19.390625 0 
L 9.8125 0 
z
" id="DejaVuSans-77"/>
     </defs>
     <g transform="translate(312.128 102.562269)scale(0.07 -0.07)">
      <use xlink:href="#DejaVuSans-77"/>
      <use x="86.279297" xlink:href="#DejaVuSans-73"/>
      <use x="115.771484" xlink:href="#DejaVuSans-84"/>
      <use x="176.855469" xlink:href="#DejaVuSans-32"/>
      <use x="208.642578" xlink:href="#DejaVuSans-40"/>
      <use x="247.65625" xlink:href="#DejaVuSans-65"/>
      <use x="316.064453" xlink:href="#DejaVuSans-85"/>
      <use x="389.257812" xlink:href="#DejaVuSans-67"/>
      <use x="459.082031" xlink:href="#DejaVuSans-32"/>
      <use x="490.869141" xlink:href="#DejaVuSans-61"/>
      <use x="574.658203" xlink:href="#DejaVuSans-32"/>
      <use x="606.445312" xlink:href="#DejaVuSans-48"/>
      <use x="670.068359" xlink:href="#DejaVuSans-46"/>
      <use x="701.855469" xlink:href="#DejaVuSans-48"/>
      <use x="765.478516" xlink:href="#DejaVuSans-52"/>
      <use x="829.101562" xlink:href="#DejaVuSans-41"/>
     </g>
    </g>
    <g id="line2d_35">
     <path d="M 292.528 110.386956 
L 306.528 110.386956 
" style="fill:none;stroke:#009980;stroke-linecap:square;stroke-opacity:0.85;stroke-width:1.5;"/>
    </g>
    <g id="line2d_36"/>
    <g id="text_22">
     <!-- CCTOP (AUC = 0.06) -->
     <defs>
      <path d="M 39.40625 66.21875 
Q 28.65625 66.21875 22.328125 58.203125 
Q 16.015625 50.203125 16.015625 36.375 
Q 16.015625 22.609375 22.328125 14.59375 
Q 28.65625 6.59375 39.40625 6.59375 
Q 50.140625 6.59375 56.421875 14.59375 
Q 62.703125 22.609375 62.703125 36.375 
Q 62.703125 50.203125 56.421875 58.203125 
Q 50.140625 66.21875 39.40625 66.21875 
z
M 39.40625 74.21875 
Q 54.734375 74.21875 63.90625 63.9375 
Q 73.09375 53.65625 73.09375 36.375 
Q 73.09375 19.140625 63.90625 8.859375 
Q 54.734375 -1.421875 39.40625 -1.421875 
Q 24.03125 -1.421875 14.8125 8.828125 
Q 5.609375 19.09375 5.609375 36.375 
Q 5.609375 53.65625 14.8125 63.9375 
Q 24.03125 74.21875 39.40625 74.21875 
z
" id="DejaVuSans-79"/>
     </defs>
     <g transform="translate(312.128 112.836956)scale(0.07 -0.07)">
      <use xlink:href="#DejaVuSans-67"/>
      <use x="69.824219" xlink:href="#DejaVuSans-67"/>
      <use x="139.648438" xlink:href="#DejaVuSans-84"/>
      <use x="200.732422" xlink:href="#DejaVuSans-79"/>
      <use x="279.443359" xlink:href="#DejaVuSans-80"/>
      <use x="339.746094" xlink:href="#DejaVuSans-32"/>
      <use x="371.533203" xlink:href="#DejaVuSans-40"/>
      <use x="410.546875" xlink:href="#DejaVuSans-65"/>
      <use x="478.955078" xlink:href="#DejaVuSans-85"/>
      <use x="552.148438" xlink:href="#DejaVuSans-67"/>
      <use x="621.972656" xlink:href="#DejaVuSans-32"/>
      <use x="653.759766" xlink:href="#DejaVuSans-61"/>
      <use x="737.548828" xlink:href="#DejaVuSans-32"/>
      <use x="769.335938" xlink:href="#DejaVuSans-48"/>
      <use x="832.958984" xlink:href="#DejaVuSans-46"/>
      <use x="864.746094" xlink:href="#DejaVuSans-48"/>
      <use x="928.369141" xlink:href="#DejaVuSans-54"/>
      <use x="991.992188" xlink:href="#DejaVuSans-41"/>
     </g>
    </g>
    <g id="line2d_37">
     <path d="M 292.528 120.661644 
L 306.528 120.661644 
" style="fill:none;stroke:#59b2e6;stroke-dasharray:5.55,2.4;stroke-dashoffset:0;stroke-opacity:0.85;stroke-width:1.5;"/>
    </g>
    <g id="line2d_38"/>
    <g id="text_23">
     <!-- Hsu (AUC = 0.03) -->
     <defs>
      <path d="M 9.8125 72.90625 
L 19.671875 72.90625 
L 19.671875 43.015625 
L 55.515625 43.015625 
L 55.515625 72.90625 
L 65.375 72.90625 
L 65.375 0 
L 55.515625 0 
L 55.515625 34.71875 
L 19.671875 34.71875 
L 19.671875 0 
L 9.8125 0 
z
" id="DejaVuSans-72"/>
      <path d="M 40.578125 39.3125 
Q 47.65625 37.796875 51.625 33 
Q 55.609375 28.21875 55.609375 21.1875 
Q 55.609375 10.40625 48.1875 4.484375 
Q 40.765625 -1.421875 27.09375 -1.421875 
Q 22.515625 -1.421875 17.65625 -0.515625 
Q 12.796875 0.390625 7.625 2.203125 
L 7.625 11.71875 
Q 11.71875 9.328125 16.59375 8.109375 
Q 21.484375 6.890625 26.8125 6.890625 
Q 36.078125 6.890625 40.9375 10.546875 
Q 45.796875 14.203125 45.796875 21.1875 
Q 45.796875 27.640625 41.28125 31.265625 
Q 36.765625 34.90625 28.71875 34.90625 
L 20.21875 34.90625 
L 20.21875 43.015625 
L 29.109375 43.015625 
Q 36.375 43.015625 40.234375 45.921875 
Q 44.09375 48.828125 44.09375 54.296875 
Q 44.09375 59.90625 40.109375 62.90625 
Q 36.140625 65.921875 28.71875 65.921875 
Q 24.65625 65.921875 20.015625 65.03125 
Q 15.375 64.15625 9.8125 62.3125 
L 9.8125 71.09375 
Q 15.4375 72.65625 20.34375 73.4375 
Q 25.25 74.21875 29.59375 74.21875 
Q 40.828125 74.21875 47.359375 69.109375 
Q 53.90625 64.015625 53.90625 55.328125 
Q 53.90625 49.265625 50.4375 45.09375 
Q 46.96875 40.921875 40.578125 39.3125 
z
" id="DejaVuSans-51"/>
     </defs>
     <g transform="translate(312.128 123.111644)scale(0.07 -0.07)">
      <use xlink:href="#DejaVuSans-72"/>
      <use x="75.195312" xlink:href="#DejaVuSans-115"/>
      <use x="127.294922" xlink:href="#DejaVuSans-117"/>
      <use x="190.673828" xlink:href="#DejaVuSans-32"/>
      <use x="222.460938" xlink:href="#DejaVuSans-40"/>
      <use x="261.474609" xlink:href="#DejaVuSans-65"/>
      <use x="329.882812" xlink:href="#DejaVuSans-85"/>
      <use x="403.076172" xlink:href="#DejaVuSans-67"/>
      <use x="472.900391" xlink:href="#DejaVuSans-32"/>
      <use x="504.6875" xlink:href="#DejaVuSans-61"/>
      <use x="588.476562" xlink:href="#DejaVuSans-32"/>
      <use x="620.263672" xlink:href="#DejaVuSans-48"/>
      <use x="683.886719" xlink:href="#DejaVuSans-46"/>
      <use x="715.673828" xlink:href="#DejaVuSans-48"/>
      <use x="779.296875" xlink:href="#DejaVuSans-51"/>
      <use x="842.919922" xlink:href="#DejaVuSans-41"/>
     </g>
    </g>
    <g id="line2d_39">
     <path d="M 292.528 130.936331 
L 306.528 130.936331 
" style="fill:none;stroke:#e69900;stroke-dasharray:5.55,2.4;stroke-dashoffset:0;stroke-opacity:0.85;stroke-width:1.5;"/>
    </g>
    <g id="line2d_40"/>
    <g id="text_24">
     <!-- COSMID (AUC = 0.07) -->
     <g transform="translate(312.128 133.386331)scale(0.07 -0.07)">
      <use xlink:href="#DejaVuSans-67"/>
      <use x="69.824219" xlink:href="#DejaVuSans-79"/>
      <use x="148.535156" xlink:href="#DejaVuSans-83"/>
      <use x="212.011719" xlink:href="#DejaVuSans-77"/>
      <use x="298.291016" xlink:href="#DejaVuSans-73"/>
      <use x="327.783203" xlink:href="#DejaVuSans-68"/>
      <use x="404.785156" xlink:href="#DejaVuSans-32"/>
      <use x="436.572266" xlink:href="#DejaVuSans-40"/>
      <use x="475.585938" xlink:href="#DejaVuSans-65"/>
      <use x="543.994141" xlink:href="#DejaVuSans-85"/>
      <use x="617.1875" xlink:href="#DejaVuSans-67"/>
      <use x="687.011719" xlink:href="#DejaVuSans-32"/>
      <use x="718.798828" xlink:href="#DejaVuSans-61"/>
      <use x="802.587891" xlink:href="#DejaVuSans-32"/>
      <use x="834.375" xlink:href="#DejaVuSans-48"/>
      <use x="897.998047" xlink:href="#DejaVuSans-46"/>
      <use x="929.785156" xlink:href="#DejaVuSans-48"/>
      <use x="993.408203" xlink:href="#DejaVuSans-55"/>
      <use x="1057.03125" xlink:href="#DejaVuSans-41"/>
     </g>
    </g>
    <g id="line2d_41">
     <path d="M 292.528 141.211019 
L 306.528 141.211019 
" style="fill:none;stroke:#000000;stroke-dasharray:5.55,2.4;stroke-dashoffset:0;stroke-opacity:0.85;stroke-width:1.5;"/>
    </g>
    <g id="line2d_42"/>
    <g id="text_25">
     <!-- Cropit (AUC = 0.03) -->
     <g transform="translate(312.128 143.661019)scale(0.07 -0.07)">
      <use xlink:href="#DejaVuSans-67"/>
      <use x="69.824219" xlink:href="#DejaVuSans-114"/>
      <use x="108.6875" xlink:href="#DejaVuSans-111"/>
      <use x="169.869141" xlink:href="#DejaVuSans-112"/>
      <use x="233.345703" xlink:href="#DejaVuSans-105"/>
      <use x="261.128906" xlink:href="#DejaVuSans-116"/>
      <use x="300.337891" xlink:href="#DejaVuSans-32"/>
      <use x="332.125" xlink:href="#DejaVuSans-40"/>
      <use x="371.138672" xlink:href="#DejaVuSans-65"/>
      <use x="439.546875" xlink:href="#DejaVuSans-85"/>
      <use x="512.740234" xlink:href="#DejaVuSans-67"/>
      <use x="582.564453" xlink:href="#DejaVuSans-32"/>
      <use x="614.351562" xlink:href="#DejaVuSans-61"/>
      <use x="698.140625" xlink:href="#DejaVuSans-32"/>
      <use x="729.927734" xlink:href="#DejaVuSans-48"/>
      <use x="793.550781" xlink:href="#DejaVuSans-46"/>
      <use x="825.337891" xlink:href="#DejaVuSans-48"/>
      <use x="888.960938" xlink:href="#DejaVuSans-51"/>
      <use x="952.583984" xlink:href="#DejaVuSans-41"/>
     </g>
    </g>
   </g>
  </g>
 </g>
 <defs>
  <clipPath id="pac129d83be">
   <rect height="266.112" width="357.12" x="57.6" y="41.472"/>
  </clipPath>
 </defs>
</svg>
