<?xml version="1.0" encoding="utf-8" standalone="no"?>
<!DOCTYPE svg PUBLIC "-//W3C//DTD SVG 1.1//EN"
  "http://www.w3.org/Graphics/SVG/1.1/DTD/svg11.dtd">
<!-- Created with matplotlib (https://matplotlib.org/) -->
<svg height="345.6pt" version="1.1" viewBox="0 0 460.8 345.6" width="460.8pt" xmlns="http://www.w3.org/2000/svg" xmlns:xlink="http://www.w3.org/1999/xlink">
 <defs>
  <style type="text/css">
*{stroke-linecap:butt;stroke-linejoin:round;}
  </style>
 </defs>
 <g id="figure_1">
  <g id="patch_1">
   <path d="M 0 345.6 
L 460.8 345.6 
L 460.8 0 
L 0 0 
z
" style="fill:#ffffff;"/>
  </g>
  <g id="axes_1">
   <g id="patch_2">
    <path d="M 57.6 307.584 
L 414.72 307.584 
L 414.72 41.472 
L 57.6 41.472 
z
" style="fill:#ffffff;"/>
   </g>
   <g id="matplotlib.axis_1">
    <g id="xtick_1">
     <g id="line2d_1">
      <defs>
       <path d="M 0 0 
L 0 3.5 
" id="mfa2c099e09" style="stroke:#000000;stroke-width:0.8;"/>
      </defs>
      <g>
       <use style="stroke:#000000;stroke-width:0.8;" x="57.6" xlink:href="#mfa2c099e09" y="307.584"/>
      </g>
     </g>
     <g id="text_1">
      <!-- 0.0 -->
      <defs>
       <path d="M 31.78125 66.40625 
Q 24.171875 66.40625 20.328125 58.90625 
Q 16.5 51.421875 16.5 36.375 
Q 16.5 21.390625 20.328125 13.890625 
Q 24.171875 6.390625 31.78125 6.390625 
Q 39.453125 6.390625 43.28125 13.890625 
Q 47.125 21.390625 47.125 36.375 
Q 47.125 51.421875 43.28125 58.90625 
Q 39.453125 66.40625 31.78125 66.40625 
z
M 31.78125 74.21875 
Q 44.046875 74.21875 50.515625 64.515625 
Q 56.984375 54.828125 56.984375 36.375 
Q 56.984375 17.96875 50.515625 8.265625 
Q 44.046875 -1.421875 31.78125 -1.421875 
Q 19.53125 -1.421875 13.0625 8.265625 
Q 6.59375 17.96875 6.59375 36.375 
Q 6.59375 54.828125 13.0625 64.515625 
Q 19.53125 74.21875 31.78125 74.21875 
z
" id="DejaVuSans-48"/>
       <path d="M 10.6875 12.40625 
L 21 12.40625 
L 21 0 
L 10.6875 0 
z
" id="DejaVuSans-46"/>
      </defs>
      <g transform="translate(49.648438 322.182437)scale(0.1 -0.1)">
       <use xlink:href="#DejaVuSans-48"/>
       <use x="63.623047" xlink:href="#DejaVuSans-46"/>
       <use x="95.410156" xlink:href="#DejaVuSans-48"/>
      </g>
     </g>
    </g>
    <g id="xtick_2">
     <g id="line2d_2">
      <g>
       <use style="stroke:#000000;stroke-width:0.8;" x="129.024" xlink:href="#mfa2c099e09" y="307.584"/>
      </g>
     </g>
     <g id="text_2">
      <!-- 0.2 -->
      <defs>
       <path d="M 19.1875 8.296875 
L 53.609375 8.296875 
L 53.609375 0 
L 7.328125 0 
L 7.328125 8.296875 
Q 12.9375 14.109375 22.625 23.890625 
Q 32.328125 33.6875 34.8125 36.53125 
Q 39.546875 41.84375 41.421875 45.53125 
Q 43.3125 49.21875 43.3125 52.78125 
Q 43.3125 58.59375 39.234375 62.25 
Q 35.15625 65.921875 28.609375 65.921875 
Q 23.96875 65.921875 18.8125 64.3125 
Q 13.671875 62.703125 7.8125 59.421875 
L 7.8125 69.390625 
Q 13.765625 71.78125 18.9375 73 
Q 24.125 74.21875 28.421875 74.21875 
Q 39.75 74.21875 46.484375 68.546875 
Q 53.21875 62.890625 53.21875 53.421875 
Q 53.21875 48.921875 51.53125 44.890625 
Q 49.859375 40.875 45.40625 35.40625 
Q 44.1875 33.984375 37.640625 27.21875 
Q 31.109375 20.453125 19.1875 8.296875 
z
" id="DejaVuSans-50"/>
      </defs>
      <g transform="translate(121.072438 322.182437)scale(0.1 -0.1)">
       <use xlink:href="#DejaVuSans-48"/>
       <use x="63.623047" xlink:href="#DejaVuSans-46"/>
       <use x="95.410156" xlink:href="#DejaVuSans-50"/>
      </g>
     </g>
    </g>
    <g id="xtick_3">
     <g id="line2d_3">
      <g>
       <use style="stroke:#000000;stroke-width:0.8;" x="200.448" xlink:href="#mfa2c099e09" y="307.584"/>
      </g>
     </g>
     <g id="text_3">
      <!-- 0.4 -->
      <defs>
       <path d="M 37.796875 64.3125 
L 12.890625 25.390625 
L 37.796875 25.390625 
z
M 35.203125 72.90625 
L 47.609375 72.90625 
L 47.609375 25.390625 
L 58.015625 25.390625 
L 58.015625 17.1875 
L 47.609375 17.1875 
L 47.609375 0 
L 37.796875 0 
L 37.796875 17.1875 
L 4.890625 17.1875 
L 4.890625 26.703125 
z
" id="DejaVuSans-52"/>
      </defs>
      <g transform="translate(192.496438 322.182437)scale(0.1 -0.1)">
       <use xlink:href="#DejaVuSans-48"/>
       <use x="63.623047" xlink:href="#DejaVuSans-46"/>
       <use x="95.410156" xlink:href="#DejaVuSans-52"/>
      </g>
     </g>
    </g>
    <g id="xtick_4">
     <g id="line2d_4">
      <g>
       <use style="stroke:#000000;stroke-width:0.8;" x="271.872" xlink:href="#mfa2c099e09" y="307.584"/>
      </g>
     </g>
     <g id="text_4">
      <!-- 0.6 -->
      <defs>
       <path d="M 33.015625 40.375 
Q 26.375 40.375 22.484375 35.828125 
Q 18.609375 31.296875 18.609375 23.390625 
Q 18.609375 15.53125 22.484375 10.953125 
Q 26.375 6.390625 33.015625 6.390625 
Q 39.65625 6.390625 43.53125 10.953125 
Q 47.40625 15.53125 47.40625 23.390625 
Q 47.40625 31.296875 43.53125 35.828125 
Q 39.65625 40.375 33.015625 40.375 
z
M 52.59375 71.296875 
L 52.59375 62.3125 
Q 48.875 64.0625 45.09375 64.984375 
Q 41.3125 65.921875 37.59375 65.921875 
Q 27.828125 65.921875 22.671875 59.328125 
Q 17.53125 52.734375 16.796875 39.40625 
Q 19.671875 43.65625 24.015625 45.921875 
Q 28.375 48.1875 33.59375 48.1875 
Q 44.578125 48.1875 50.953125 41.515625 
Q 57.328125 34.859375 57.328125 23.390625 
Q 57.328125 12.15625 50.6875 5.359375 
Q 44.046875 -1.421875 33.015625 -1.421875 
Q 20.359375 -1.421875 13.671875 8.265625 
Q 6.984375 17.96875 6.984375 36.375 
Q 6.984375 53.65625 15.1875 63.9375 
Q 23.390625 74.21875 37.203125 74.21875 
Q 40.921875 74.21875 44.703125 73.484375 
Q 48.484375 72.75 52.59375 71.296875 
z
" id="DejaVuSans-54"/>
      </defs>
      <g transform="translate(263.920438 322.182437)scale(0.1 -0.1)">
       <use xlink:href="#DejaVuSans-48"/>
       <use x="63.623047" xlink:href="#DejaVuSans-46"/>
       <use x="95.410156" xlink:href="#DejaVuSans-54"/>
      </g>
     </g>
    </g>
    <g id="xtick_5">
     <g id="line2d_5">
      <g>
       <use style="stroke:#000000;stroke-width:0.8;" x="343.296" xlink:href="#mfa2c099e09" y="307.584"/>
      </g>
     </g>
     <g id="text_5">
      <!-- 0.8 -->
      <defs>
       <path d="M 31.78125 34.625 
Q 24.75 34.625 20.71875 30.859375 
Q 16.703125 27.09375 16.703125 20.515625 
Q 16.703125 13.921875 20.71875 10.15625 
Q 24.75 6.390625 31.78125 6.390625 
Q 38.8125 6.390625 42.859375 10.171875 
Q 46.921875 13.96875 46.921875 20.515625 
Q 46.921875 27.09375 42.890625 30.859375 
Q 38.875 34.625 31.78125 34.625 
z
M 21.921875 38.8125 
Q 15.578125 40.375 12.03125 44.71875 
Q 8.5 49.078125 8.5 55.328125 
Q 8.5 64.0625 14.71875 69.140625 
Q 20.953125 74.21875 31.78125 74.21875 
Q 42.671875 74.21875 48.875 69.140625 
Q 55.078125 64.0625 55.078125 55.328125 
Q 55.078125 49.078125 51.53125 44.71875 
Q 48 40.375 41.703125 38.8125 
Q 48.828125 37.15625 52.796875 32.3125 
Q 56.78125 27.484375 56.78125 20.515625 
Q 56.78125 9.90625 50.3125 4.234375 
Q 43.84375 -1.421875 31.78125 -1.421875 
Q 19.734375 -1.421875 13.25 4.234375 
Q 6.78125 9.90625 6.78125 20.515625 
Q 6.78125 27.484375 10.78125 32.3125 
Q 14.796875 37.15625 21.921875 38.8125 
z
M 18.3125 54.390625 
Q 18.3125 48.734375 21.84375 45.5625 
Q 25.390625 42.390625 31.78125 42.390625 
Q 38.140625 42.390625 41.71875 45.5625 
Q 45.3125 48.734375 45.3125 54.390625 
Q 45.3125 60.0625 41.71875 63.234375 
Q 38.140625 66.40625 31.78125 66.40625 
Q 25.390625 66.40625 21.84375 63.234375 
Q 18.3125 60.0625 18.3125 54.390625 
z
" id="DejaVuSans-56"/>
      </defs>
      <g transform="translate(335.344438 322.182437)scale(0.1 -0.1)">
       <use xlink:href="#DejaVuSans-48"/>
       <use x="63.623047" xlink:href="#DejaVuSans-46"/>
       <use x="95.410156" xlink:href="#DejaVuSans-56"/>
      </g>
     </g>
    </g>
    <g id="xtick_6">
     <g id="line2d_6">
      <g>
       <use style="stroke:#000000;stroke-width:0.8;" x="414.72" xlink:href="#mfa2c099e09" y="307.584"/>
      </g>
     </g>
     <g id="text_6">
      <!-- 1.0 -->
      <defs>
       <path d="M 12.40625 8.296875 
L 28.515625 8.296875 
L 28.515625 63.921875 
L 10.984375 60.40625 
L 10.984375 69.390625 
L 28.421875 72.90625 
L 38.28125 72.90625 
L 38.28125 8.296875 
L 54.390625 8.296875 
L 54.390625 0 
L 12.40625 0 
z
" id="DejaVuSans-49"/>
      </defs>
      <g transform="translate(406.768438 322.182437)scale(0.1 -0.1)">
       <use xlink:href="#DejaVuSans-49"/>
       <use x="63.623047" xlink:href="#DejaVuSans-46"/>
       <use x="95.410156" xlink:href="#DejaVuSans-48"/>
      </g>
     </g>
    </g>
    <g id="text_7">
     <!-- False Positive Rate -->
     <defs>
      <path d="M 9.8125 72.90625 
L 51.703125 72.90625 
L 51.703125 64.59375 
L 19.671875 64.59375 
L 19.671875 43.109375 
L 48.578125 43.109375 
L 48.578125 34.8125 
L 19.671875 34.8125 
L 19.671875 0 
L 9.8125 0 
z
" id="DejaVuSans-70"/>
      <path d="M 34.28125 27.484375 
Q 23.390625 27.484375 19.1875 25 
Q 14.984375 22.515625 14.984375 16.5 
Q 14.984375 11.71875 18.140625 8.90625 
Q 21.296875 6.109375 26.703125 6.109375 
Q 34.1875 6.109375 38.703125 11.40625 
Q 43.21875 16.703125 43.21875 25.484375 
L 43.21875 27.484375 
z
M 52.203125 31.203125 
L 52.203125 0 
L 43.21875 0 
L 43.21875 8.296875 
Q 40.140625 3.328125 35.546875 0.953125 
Q 30.953125 -1.421875 24.3125 -1.421875 
Q 15.921875 -1.421875 10.953125 3.296875 
Q 6 8.015625 6 15.921875 
Q 6 25.140625 12.171875 29.828125 
Q 18.359375 34.515625 30.609375 34.515625 
L 43.21875 34.515625 
L 43.21875 35.40625 
Q 43.21875 41.609375 39.140625 45 
Q 35.0625 48.390625 27.6875 48.390625 
Q 23 48.390625 18.546875 47.265625 
Q 14.109375 46.140625 10.015625 43.890625 
L 10.015625 52.203125 
Q 14.9375 54.109375 19.578125 55.046875 
Q 24.21875 56 28.609375 56 
Q 40.484375 56 46.34375 49.84375 
Q 52.203125 43.703125 52.203125 31.203125 
z
" id="DejaVuSans-97"/>
      <path d="M 9.421875 75.984375 
L 18.40625 75.984375 
L 18.40625 0 
L 9.421875 0 
z
" id="DejaVuSans-108"/>
      <path d="M 44.28125 53.078125 
L 44.28125 44.578125 
Q 40.484375 46.53125 36.375 47.5 
Q 32.28125 48.484375 27.875 48.484375 
Q 21.1875 48.484375 17.84375 46.4375 
Q 14.5 44.390625 14.5 40.28125 
Q 14.5 37.15625 16.890625 35.375 
Q 19.28125 33.59375 26.515625 31.984375 
L 29.59375 31.296875 
Q 39.15625 29.25 43.1875 25.515625 
Q 47.21875 21.78125 47.21875 15.09375 
Q 47.21875 7.46875 41.1875 3.015625 
Q 35.15625 -1.421875 24.609375 -1.421875 
Q 20.21875 -1.421875 15.453125 -0.5625 
Q 10.6875 0.296875 5.421875 2 
L 5.421875 11.28125 
Q 10.40625 8.6875 15.234375 7.390625 
Q 20.0625 6.109375 24.8125 6.109375 
Q 31.15625 6.109375 34.5625 8.28125 
Q 37.984375 10.453125 37.984375 14.40625 
Q 37.984375 18.0625 35.515625 20.015625 
Q 33.0625 21.96875 24.703125 23.78125 
L 21.578125 24.515625 
Q 13.234375 26.265625 9.515625 29.90625 
Q 5.8125 33.546875 5.8125 39.890625 
Q 5.8125 47.609375 11.28125 51.796875 
Q 16.75 56 26.8125 56 
Q 31.78125 56 36.171875 55.265625 
Q 40.578125 54.546875 44.28125 53.078125 
z
" id="DejaVuSans-115"/>
      <path d="M 56.203125 29.59375 
L 56.203125 25.203125 
L 14.890625 25.203125 
Q 15.484375 15.921875 20.484375 11.0625 
Q 25.484375 6.203125 34.421875 6.203125 
Q 39.59375 6.203125 44.453125 7.46875 
Q 49.3125 8.734375 54.109375 11.28125 
L 54.109375 2.78125 
Q 49.265625 0.734375 44.1875 -0.34375 
Q 39.109375 -1.421875 33.890625 -1.421875 
Q 20.796875 -1.421875 13.15625 6.1875 
Q 5.515625 13.8125 5.515625 26.8125 
Q 5.515625 40.234375 12.765625 48.109375 
Q 20.015625 56 32.328125 56 
Q 43.359375 56 49.78125 48.890625 
Q 56.203125 41.796875 56.203125 29.59375 
z
M 47.21875 32.234375 
Q 47.125 39.59375 43.09375 43.984375 
Q 39.0625 48.390625 32.421875 48.390625 
Q 24.90625 48.390625 20.390625 44.140625 
Q 15.875 39.890625 15.1875 32.171875 
z
" id="DejaVuSans-101"/>
      <path id="DejaVuSans-32"/>
      <path d="M 19.671875 64.796875 
L 19.671875 37.40625 
L 32.078125 37.40625 
Q 38.96875 37.40625 42.71875 40.96875 
Q 46.484375 44.53125 46.484375 51.125 
Q 46.484375 57.671875 42.71875 61.234375 
Q 38.96875 64.796875 32.078125 64.796875 
z
M 9.8125 72.90625 
L 32.078125 72.90625 
Q 44.34375 72.90625 50.609375 67.359375 
Q 56.890625 61.8125 56.890625 51.125 
Q 56.890625 40.328125 50.609375 34.8125 
Q 44.34375 29.296875 32.078125 29.296875 
L 19.671875 29.296875 
L 19.671875 0 
L 9.8125 0 
z
" id="DejaVuSans-80"/>
      <path d="M 30.609375 48.390625 
Q 23.390625 48.390625 19.1875 42.75 
Q 14.984375 37.109375 14.984375 27.296875 
Q 14.984375 17.484375 19.15625 11.84375 
Q 23.34375 6.203125 30.609375 6.203125 
Q 37.796875 6.203125 41.984375 11.859375 
Q 46.1875 17.53125 46.1875 27.296875 
Q 46.1875 37.015625 41.984375 42.703125 
Q 37.796875 48.390625 30.609375 48.390625 
z
M 30.609375 56 
Q 42.328125 56 49.015625 48.375 
Q 55.71875 40.765625 55.71875 27.296875 
Q 55.71875 13.875 49.015625 6.21875 
Q 42.328125 -1.421875 30.609375 -1.421875 
Q 18.84375 -1.421875 12.171875 6.21875 
Q 5.515625 13.875 5.515625 27.296875 
Q 5.515625 40.765625 12.171875 48.375 
Q 18.84375 56 30.609375 56 
z
" id="DejaVuSans-111"/>
      <path d="M 9.421875 54.6875 
L 18.40625 54.6875 
L 18.40625 0 
L 9.421875 0 
z
M 9.421875 75.984375 
L 18.40625 75.984375 
L 18.40625 64.59375 
L 9.421875 64.59375 
z
" id="DejaVuSans-105"/>
      <path d="M 18.3125 70.21875 
L 18.3125 54.6875 
L 36.8125 54.6875 
L 36.8125 47.703125 
L 18.3125 47.703125 
L 18.3125 18.015625 
Q 18.3125 11.328125 20.140625 9.421875 
Q 21.96875 7.515625 27.59375 7.515625 
L 36.8125 7.515625 
L 36.8125 0 
L 27.59375 0 
Q 17.1875 0 13.234375 3.875 
Q 9.28125 7.765625 9.28125 18.015625 
L 9.28125 47.703125 
L 2.6875 47.703125 
L 2.6875 54.6875 
L 9.28125 54.6875 
L 9.28125 70.21875 
z
" id="DejaVuSans-116"/>
      <path d="M 2.984375 54.6875 
L 12.5 54.6875 
L 29.59375 8.796875 
L 46.6875 54.6875 
L 56.203125 54.6875 
L 35.6875 0 
L 23.484375 0 
z
" id="DejaVuSans-118"/>
      <path d="M 44.390625 34.1875 
Q 47.5625 33.109375 50.5625 29.59375 
Q 53.5625 26.078125 56.59375 19.921875 
L 66.609375 0 
L 56 0 
L 46.6875 18.703125 
Q 43.0625 26.03125 39.671875 28.421875 
Q 36.28125 30.8125 30.421875 30.8125 
L 19.671875 30.8125 
L 19.671875 0 
L 9.8125 0 
L 9.8125 72.90625 
L 32.078125 72.90625 
Q 44.578125 72.90625 50.734375 67.671875 
Q 56.890625 62.453125 56.890625 51.90625 
Q 56.890625 45.015625 53.6875 40.46875 
Q 50.484375 35.9375 44.390625 34.1875 
z
M 19.671875 64.796875 
L 19.671875 38.921875 
L 32.078125 38.921875 
Q 39.203125 38.921875 42.84375 42.21875 
Q 46.484375 45.515625 46.484375 51.90625 
Q 46.484375 58.296875 42.84375 61.546875 
Q 39.203125 64.796875 32.078125 64.796875 
z
" id="DejaVuSans-82"/>
     </defs>
     <g transform="translate(189.693594 335.860562)scale(0.1 -0.1)">
      <use xlink:href="#DejaVuSans-70"/>
      <use x="48.394531" xlink:href="#DejaVuSans-97"/>
      <use x="109.673828" xlink:href="#DejaVuSans-108"/>
      <use x="137.457031" xlink:href="#DejaVuSans-115"/>
      <use x="189.556641" xlink:href="#DejaVuSans-101"/>
      <use x="251.080078" xlink:href="#DejaVuSans-32"/>
      <use x="282.867188" xlink:href="#DejaVuSans-80"/>
      <use x="339.544922" xlink:href="#DejaVuSans-111"/>
      <use x="400.726562" xlink:href="#DejaVuSans-115"/>
      <use x="452.826172" xlink:href="#DejaVuSans-105"/>
      <use x="480.609375" xlink:href="#DejaVuSans-116"/>
      <use x="519.818359" xlink:href="#DejaVuSans-105"/>
      <use x="547.601562" xlink:href="#DejaVuSans-118"/>
      <use x="606.78125" xlink:href="#DejaVuSans-101"/>
      <use x="668.304688" xlink:href="#DejaVuSans-32"/>
      <use x="700.091797" xlink:href="#DejaVuSans-82"/>
      <use x="767.324219" xlink:href="#DejaVuSans-97"/>
      <use x="828.603516" xlink:href="#DejaVuSans-116"/>
      <use x="867.8125" xlink:href="#DejaVuSans-101"/>
     </g>
    </g>
   </g>
   <g id="matplotlib.axis_2">
    <g id="ytick_1">
     <g id="line2d_7">
      <defs>
       <path d="M 0 0 
L -3.5 0 
" id="mf8fa7c8b05" style="stroke:#000000;stroke-width:0.8;"/>
      </defs>
      <g>
       <use style="stroke:#000000;stroke-width:0.8;" x="57.6" xlink:href="#mf8fa7c8b05" y="307.584"/>
      </g>
     </g>
     <g id="text_8">
      <!-- 0.0 -->
      <g transform="translate(34.696875 311.383219)scale(0.1 -0.1)">
       <use xlink:href="#DejaVuSans-48"/>
       <use x="63.623047" xlink:href="#DejaVuSans-46"/>
       <use x="95.410156" xlink:href="#DejaVuSans-48"/>
      </g>
     </g>
    </g>
    <g id="ytick_2">
     <g id="line2d_8">
      <g>
       <use style="stroke:#000000;stroke-width:0.8;" x="57.6" xlink:href="#mf8fa7c8b05" y="254.3616"/>
      </g>
     </g>
     <g id="text_9">
      <!-- 0.2 -->
      <g transform="translate(34.696875 258.160819)scale(0.1 -0.1)">
       <use xlink:href="#DejaVuSans-48"/>
       <use x="63.623047" xlink:href="#DejaVuSans-46"/>
       <use x="95.410156" xlink:href="#DejaVuSans-50"/>
      </g>
     </g>
    </g>
    <g id="ytick_3">
     <g id="line2d_9">
      <g>
       <use style="stroke:#000000;stroke-width:0.8;" x="57.6" xlink:href="#mf8fa7c8b05" y="201.1392"/>
      </g>
     </g>
     <g id="text_10">
      <!-- 0.4 -->
      <g transform="translate(34.696875 204.938419)scale(0.1 -0.1)">
       <use xlink:href="#DejaVuSans-48"/>
       <use x="63.623047" xlink:href="#DejaVuSans-46"/>
       <use x="95.410156" xlink:href="#DejaVuSans-52"/>
      </g>
     </g>
    </g>
    <g id="ytick_4">
     <g id="line2d_10">
      <g>
       <use style="stroke:#000000;stroke-width:0.8;" x="57.6" xlink:href="#mf8fa7c8b05" y="147.9168"/>
      </g>
     </g>
     <g id="text_11">
      <!-- 0.6 -->
      <g transform="translate(34.696875 151.716019)scale(0.1 -0.1)">
       <use xlink:href="#DejaVuSans-48"/>
       <use x="63.623047" xlink:href="#DejaVuSans-46"/>
       <use x="95.410156" xlink:href="#DejaVuSans-54"/>
      </g>
     </g>
    </g>
    <g id="ytick_5">
     <g id="line2d_11">
      <g>
       <use style="stroke:#000000;stroke-width:0.8;" x="57.6" xlink:href="#mf8fa7c8b05" y="94.6944"/>
      </g>
     </g>
     <g id="text_12">
      <!-- 0.8 -->
      <g transform="translate(34.696875 98.493619)scale(0.1 -0.1)">
       <use xlink:href="#DejaVuSans-48"/>
       <use x="63.623047" xlink:href="#DejaVuSans-46"/>
       <use x="95.410156" xlink:href="#DejaVuSans-56"/>
      </g>
     </g>
    </g>
    <g id="ytick_6">
     <g id="line2d_12">
      <g>
       <use style="stroke:#000000;stroke-width:0.8;" x="57.6" xlink:href="#mf8fa7c8b05" y="41.472"/>
      </g>
     </g>
     <g id="text_13">
      <!-- 1.0 -->
      <g transform="translate(34.696875 45.271219)scale(0.1 -0.1)">
       <use xlink:href="#DejaVuSans-49"/>
       <use x="63.623047" xlink:href="#DejaVuSans-46"/>
       <use x="95.410156" xlink:href="#DejaVuSans-48"/>
      </g>
     </g>
    </g>
    <g id="text_14">
     <!-- True Positive Rate -->
     <defs>
      <path d="M -0.296875 72.90625 
L 61.375 72.90625 
L 61.375 64.59375 
L 35.5 64.59375 
L 35.5 0 
L 25.59375 0 
L 25.59375 64.59375 
L -0.296875 64.59375 
z
" id="DejaVuSans-84"/>
      <path d="M 41.109375 46.296875 
Q 39.59375 47.171875 37.8125 47.578125 
Q 36.03125 48 33.890625 48 
Q 26.265625 48 22.1875 43.046875 
Q 18.109375 38.09375 18.109375 28.8125 
L 18.109375 0 
L 9.078125 0 
L 9.078125 54.6875 
L 18.109375 54.6875 
L 18.109375 46.1875 
Q 20.953125 51.171875 25.484375 53.578125 
Q 30.03125 56 36.53125 56 
Q 37.453125 56 38.578125 55.875 
Q 39.703125 55.765625 41.0625 55.515625 
z
" id="DejaVuSans-114"/>
      <path d="M 8.5 21.578125 
L 8.5 54.6875 
L 17.484375 54.6875 
L 17.484375 21.921875 
Q 17.484375 14.15625 20.5 10.265625 
Q 23.53125 6.390625 29.59375 6.390625 
Q 36.859375 6.390625 41.078125 11.03125 
Q 45.3125 15.671875 45.3125 23.6875 
L 45.3125 54.6875 
L 54.296875 54.6875 
L 54.296875 0 
L 45.3125 0 
L 45.3125 8.40625 
Q 42.046875 3.421875 37.71875 1 
Q 33.40625 -1.421875 27.6875 -1.421875 
Q 18.265625 -1.421875 13.375 4.4375 
Q 8.5 10.296875 8.5 21.578125 
z
M 31.109375 56 
z
" id="DejaVuSans-117"/>
     </defs>
     <g transform="translate(28.617187 219.057687)rotate(-90)scale(0.1 -0.1)">
      <use xlink:href="#DejaVuSans-84"/>
      <use x="46.333984" xlink:href="#DejaVuSans-114"/>
      <use x="87.447266" xlink:href="#DejaVuSans-117"/>
      <use x="150.826172" xlink:href="#DejaVuSans-101"/>
      <use x="212.349609" xlink:href="#DejaVuSans-32"/>
      <use x="244.136719" xlink:href="#DejaVuSans-80"/>
      <use x="300.814453" xlink:href="#DejaVuSans-111"/>
      <use x="361.996094" xlink:href="#DejaVuSans-115"/>
      <use x="414.095703" xlink:href="#DejaVuSans-105"/>
      <use x="441.878906" xlink:href="#DejaVuSans-116"/>
      <use x="481.087891" xlink:href="#DejaVuSans-105"/>
      <use x="508.871094" xlink:href="#DejaVuSans-118"/>
      <use x="568.050781" xlink:href="#DejaVuSans-101"/>
      <use x="629.574219" xlink:href="#DejaVuSans-32"/>
      <use x="661.361328" xlink:href="#DejaVuSans-82"/>
      <use x="728.59375" xlink:href="#DejaVuSans-97"/>
      <use x="789.873047" xlink:href="#DejaVuSans-116"/>
      <use x="829.082031" xlink:href="#DejaVuSans-101"/>
     </g>
    </g>
   </g>
   <g id="line2d_13">
    <path clip-path="url(#pa5c783b4af)" d="M 57.6 307.584 
L 57.669565 295.488 
L 57.881158 188.136 
L 57.886955 188.136 
L 58.023186 165.456 
L 58.043476 165.456 
L 58.136229 148.824 
L 58.147823 148.824 
L 58.156519 148.824 
L 58.263765 136.728 
L 58.286953 136.728 
L 58.394199 127.656 
L 58.446373 127.656 
L 58.55072 121.608 
L 58.597097 121.608 
L 58.704342 118.584 
L 58.805791 118.584 
L 58.910139 112.536 
L 58.962312 112.536 
L 59.101442 103.464 
L 59.153616 103.464 
L 59.211586 97.416 
L 59.246369 97.416 
L 59.301441 97.416 
L 59.301441 95.904 
L 59.40289 95.904 
L 59.524628 95.904 
L 59.591295 91.368 
L 59.634773 91.368 
L 59.684048 91.368 
L 59.782598 83.808 
L 59.794192 83.808 
L 59.889844 83.808 
L 59.991293 80.784 
L 60.063756 80.784 
L 60.162306 76.248 
L 60.173901 76.248 
L 60.397088 76.248 
L 60.498537 74.736 
L 60.663753 74.736 
L 60.663753 73.224 
L 60.768101 73.224 
L 60.776796 73.224 
L 60.895636 70.2 
L 61.069548 70.2 
L 61.1652 68.688 
L 61.289837 68.688 
L 61.289837 67.176 
L 61.397083 67.176 
L 61.475343 67.176 
L 61.591285 65.664 
L 61.973892 65.664 
L 62.052152 62.64 
L 62.423165 62.64 
L 62.539106 61.128 
L 62.57099 61.128 
L 62.684033 59.616 
L 63.991273 59.616 
L 64.118809 58.104 
L 66.159379 58.104 
L 66.286914 56.592 
L 66.753579 56.592 
L 66.886911 55.08 
L 69.82023 55.08 
L 69.927476 53.568 
L 81.043364 53.568 
L 81.165103 52.056 
L 103.289633 52.056 
L 414.72 41.472 
L 414.72 41.472 
" style="fill:none;stroke:#59b2e6;stroke-linecap:square;stroke-opacity:0.85;stroke-width:1.5;"/>
   </g>
   <g id="line2d_14">
    <path clip-path="url(#pa5c783b4af)" d="M 57.6 307.584 
L 57.660869 306.072 
L 57.805796 306.072 
L 57.921738 304.56 
L 57.999998 304.56 
L 58.420286 250.128 
L 58.428981 250.128 
L 58.634778 231.984 
L 58.657966 231.984 
L 58.718835 221.4 
L 58.727531 221.4 
L 59.347818 174.528 
L 59.405788 174.528 
L 59.443469 169.992 
L 59.515933 169.992 
L 59.527527 169.992 
L 59.669555 162.432 
L 59.678251 162.432 
L 59.768105 156.384 
L 59.788395 156.384 
L 59.794192 156.384 
L 59.921728 151.848 
L 60.008684 151.848 
L 60.113031 150.336 
L 60.423175 150.336 
L 60.533319 147.312 
L 60.698536 147.312 
L 60.802883 142.776 
L 60.840564 142.776 
L 60.898535 138.24 
L 60.94781 138.24 
L 60.9681 138.24 
L 61.043461 135.216 
L 61.069548 135.216 
L 61.147809 135.216 
L 61.266649 133.704 
L 61.307228 133.704 
L 61.411576 124.632 
L 61.414474 124.632 
L 61.498532 124.632 
L 61.498532 123.12 
L 61.605778 123.12 
L 61.921718 123.12 
L 61.921718 121.608 
L 62.028964 121.608 
L 62.066645 121.608 
L 62.066645 118.584 
L 62.176789 118.584 
L 62.231862 118.584 
L 62.368093 117.072 
L 62.426063 117.072 
L 62.530411 114.048 
L 62.660845 114.048 
L 62.791279 111.024 
L 62.915916 111.024 
L 62.930409 106.488 
L 63.020263 106.488 
L 63.142002 106.488 
L 63.194176 103.464 
L 63.249248 103.464 
L 63.515913 103.464 
L 63.770984 95.904 
L 63.860839 95.904 
L 64.005766 91.368 
L 64.292721 91.368 
L 64.399967 85.32 
L 64.507213 85.32 
L 64.65214 83.808 
L 64.669531 83.808 
L 64.669531 82.296 
L 64.779675 82.296 
L 64.843443 82.296 
L 64.953587 80.784 
L 65.078224 80.784 
L 65.078224 79.272 
L 65.18547 79.272 
L 65.924597 79.272 
L 65.924597 77.76 
L 66.028944 77.76 
L 66.188364 77.76 
L 66.188364 76.248 
L 66.292711 76.248 
L 66.304305 76.248 
L 66.43474 73.224 
L 66.866622 73.224 
L 66.991259 71.712 
L 67.686907 71.712 
L 67.79995 70.2 
L 68.284006 70.2 
L 68.388353 68.688 
L 70.031824 68.688 
L 70.031824 67.176 
L 70.11878 67.176 
L 72.469493 67.176 
L 72.469493 65.664 
L 72.576739 65.664 
L 76.405706 65.664 
L 76.405706 64.152 
L 76.51585 64.152 
L 81.62597 64.152 
L 81.72452 62.64 
L 82.43756 62.64 
L 82.469444 59.616 
L 82.53611 59.616 
L 82.591183 59.616 
L 82.718718 58.104 
L 84.828853 58.104 
L 84.938997 56.592 
L 84.976678 56.592 
L 85.078127 55.08 
L 98.643278 55.08 
L 98.736032 53.568 
L 149.153177 53.568 
L 149.153177 42.984 
L 149.257525 42.984 
L 149.527089 42.984 
L 149.527089 41.472 
L 149.628537 41.472 
L 414.72 41.472 
L 414.72 41.472 
" style="fill:none;stroke:#e69900;stroke-linecap:square;stroke-opacity:0.85;stroke-width:1.5;"/>
   </g>
   <g id="line2d_15">
    <path clip-path="url(#pa5c783b4af)" d="M 57.6 307.584 
L 57.623188 307.584 
L 57.692753 289.44 
L 57.799999 227.448 
L 57.820289 227.448 
L 57.930433 201.744 
L 57.939129 201.744 
L 58.037679 176.04 
L 58.081157 176.04 
L 58.144925 168.48 
L 58.185504 168.48 
L 58.199997 168.48 
L 58.275359 153.36 
L 58.301446 153.36 
L 58.342025 153.36 
L 58.388402 147.312 
L 58.539126 147.312 
L 58.608691 142.776 
L 58.794197 142.776 
L 58.898544 138.24 
L 58.962312 138.24 
L 59.040573 133.704 
L 59.052167 133.704 
L 59.095645 133.704 
L 59.197094 126.144 
L 59.249267 126.144 
L 59.344919 121.608 
L 59.498541 121.608 
L 59.498541 120.096 
L 59.54202 120.096 
L 59.634773 120.096 
L 59.721729 118.584 
L 59.756511 118.584 
L 59.863757 112.536 
L 59.895641 112.536 
L 59.979699 104.976 
L 60.11593 104.976 
L 60.11593 103.464 
L 60.173901 103.464 
L 60.25506 103.464 
L 60.321726 97.416 
L 60.362305 97.416 
L 60.498537 97.416 
L 60.605782 92.88 
L 60.704333 92.88 
L 60.785492 85.32 
L 61.104331 85.32 
L 61.191287 83.808 
L 61.475343 83.808 
L 61.475343 82.296 
L 61.568097 82.296 
L 62.052152 82.296 
L 62.147804 76.248 
L 62.170992 76.248 
L 62.179688 73.224 
L 62.266644 73.224 
L 62.365194 73.224 
L 62.365194 71.712 
L 62.455049 71.712 
L 62.550701 71.712 
L 62.556498 70.2 
L 62.86954 70.2 
L 62.889829 67.176 
L 63.286929 67.176 
L 63.286929 65.664 
L 63.397073 65.664 
L 63.695622 65.664 
L 63.75939 62.64 
L 63.828955 62.64 
L 63.9391 59.616 
L 65.1275 59.616 
L 65.1275 58.104 
L 65.208659 58.104 
L 65.58257 58.104 
L 65.58257 56.592 
L 65.652135 56.592 
L 66.559377 56.592 
L 66.559377 55.08 
L 66.65213 55.08 
L 67.492705 55.08 
L 67.492705 53.568 
L 67.579662 53.568 
L 70.559357 53.568 
L 70.559357 52.056 
L 103.289633 52.056 
L 414.72 41.472 
L 414.72 41.472 
" style="fill:none;stroke:#000000;stroke-linecap:square;stroke-opacity:0.85;stroke-width:1.5;"/>
   </g>
   <g id="line2d_16">
    <path clip-path="url(#pa5c783b4af)" d="M 57.6 307.584 
L 57.681159 290.952 
L 57.788405 257.688 
L 57.791303 257.688 
L 57.921738 233.496 
L 57.933332 233.496 
L 57.950723 227.448 
L 58.040578 227.448 
L 58.046375 227.448 
L 58.136229 206.28 
L 58.15362 206.28 
L 58.162316 206.28 
L 58.269562 191.16 
L 58.298547 191.16 
L 58.542024 168.48 
L 58.640575 168.48 
L 58.730429 162.432 
L 58.750719 162.432 
L 58.773907 162.432 
L 58.901443 157.896 
L 58.913037 157.896 
L 59.055065 147.312 
L 59.121732 147.312 
L 59.272456 139.752 
L 59.336223 139.752 
L 59.443469 130.68 
L 59.472455 130.68 
L 59.573903 127.656 
L 59.695642 123.12 
L 59.799989 120.096 
L 59.802888 120.096 
L 60.002887 120.096 
L 60.118828 117.072 
L 60.21448 117.072 
L 60.330421 112.536 
L 60.344914 112.536 
L 60.460856 111.024 
L 60.481145 111.024 
L 60.527522 108 
L 60.588391 108 
L 60.599985 108 
L 60.727521 101.952 
L 60.939114 101.952 
L 61.118823 95.904 
L 61.344909 95.904 
L 61.469546 91.368 
L 61.585488 91.368 
L 61.698531 89.856 
L 61.907225 89.856 
L 62.011573 88.344 
L 62.049254 88.344 
L 62.176789 85.32 
L 62.295629 85.32 
L 62.489831 83.808 
L 62.547802 83.808 
L 62.657946 79.272 
L 62.782583 79.272 
L 62.886931 76.248 
L 63.130408 76.248 
L 63.130408 74.736 
L 63.234755 74.736 
L 63.310117 74.736 
L 63.411566 70.2 
L 63.420262 70.2 
L 63.56229 70.2 
L 63.750695 67.176 
L 63.965186 67.176 
L 63.965186 65.664 
L 64.060838 65.664 
L 64.901414 65.664 
L 64.901414 64.152 
L 64.994167 64.152 
L 65.817351 64.152 
L 65.930394 62.64 
L 66.066625 62.64 
L 66.188364 61.128 
L 68.466614 61.128 
L 68.466614 59.616 
L 68.565164 59.616 
L 68.681105 59.616 
L 68.794148 58.104 
L 69.869505 58.104 
L 69.869505 56.592 
L 69.968056 56.592 
L 76.362227 56.592 
L 76.481067 55.08 
L 76.843385 55.08 
L 76.953529 53.568 
L 88.840428 53.568 
L 88.840428 52.056 
L 88.941876 52.056 
L 99.344724 52.056 
L 414.72 41.472 
L 414.72 41.472 
" style="fill:none;stroke:#cc99b2;stroke-linecap:square;stroke-opacity:0.85;stroke-width:1.5;"/>
   </g>
   <g id="line2d_17">
    <path clip-path="url(#pa5c783b4af)" d="M 57.6 307.584 
L 57.773912 247.104 
L 57.7971 247.104 
L 57.855071 235.008 
L 57.898549 235.008 
L 57.913042 235.008 
L 58.023186 203.256 
L 58.028983 203.256 
L 58.139128 185.112 
L 58.199997 185.112 
L 58.304344 173.016 
L 58.310141 173.016 
L 58.43188 157.896 
L 58.498546 157.896 
L 58.608691 144.288 
L 58.611589 144.288 
L 58.695647 136.728 
L 58.715937 136.728 
L 58.724632 136.728 
L 58.826081 123.12 
L 58.869559 123.12 
L 58.973906 120.096 
L 59.023181 120.096 
L 59.150717 111.024 
L 59.240572 111.024 
L 59.321731 104.976 
L 59.486947 104.976 
L 59.539121 97.416 
L 59.582599 97.416 
L 59.623179 97.416 
L 59.75941 88.344 
L 59.802888 88.344 
L 59.904337 80.784 
L 60.089843 80.784 
L 60.089843 79.272 
L 60.142017 79.272 
L 60.785492 79.272 
L 60.898535 77.76 
L 61.110128 77.76 
L 61.113026 76.248 
L 62.185485 76.248 
L 62.185485 74.736 
L 62.263745 74.736 
L 62.753598 74.736 
L 62.860844 73.224 
L 63.336204 73.224 
L 63.452145 70.2 
L 65.576773 70.2 
L 65.695613 68.688 
L 67.857921 68.688 
L 67.965167 67.176 
L 69.837622 67.176 
L 69.837622 65.664 
L 69.941969 65.664 
L 71.434715 65.664 
L 71.434715 64.152 
L 71.52457 64.152 
L 71.797032 64.152 
L 71.797032 62.64 
L 71.904278 62.64 
L 72.678187 62.64 
L 72.776738 61.128 
L 73.886877 61.128 
L 73.886877 59.616 
L 73.994123 59.616 
L 75.376725 59.616 
L 75.376725 58.104 
L 75.483971 58.104 
L 79.023084 58.104 
L 79.133228 56.592 
L 82.394082 56.592 
L 82.518719 53.568 
L 83.611468 53.568 
L 83.611468 52.056 
L 83.718713 52.056 
L 102.970794 52.056 
L 414.72 41.472 
L 414.72 41.472 
" style="fill:none;stroke:#cc6600;stroke-linecap:square;stroke-opacity:0.85;stroke-width:1.5;"/>
   </g>
   <g id="line2d_18">
    <path clip-path="url(#pa5c783b4af)" d="M 57.6 307.584 
L 57.675362 292.464 
L 57.811593 242.568 
L 57.855071 242.568 
L 57.944926 231.984 
L 57.959419 231.984 
L 58.063766 210.816 
L 58.344924 203.256 
L 58.45217 194.184 
L 58.605792 194.184 
L 58.857965 180.576 
L 59.086949 176.04 
L 59.199992 173.016 
L 59.269557 173.016 
L 59.895641 144.288 
L 60.049263 144.288 
L 60.266654 133.704 
L 60.368102 133.704 
L 60.457957 130.68 
L 60.515928 130.68 
L 60.634768 127.656 
L 60.799984 127.656 
L 60.936216 123.12 
L 61.602879 123.12 
L 61.715922 120.096 
L 61.785487 120.096 
L 61.831863 117.072 
L 62.365194 117.072 
L 62.365194 115.56 
L 62.449252 115.56 
L 62.678236 115.56 
L 62.895626 104.976 
L 62.976785 104.976 
L 62.997075 101.952 
L 63.026061 101.952 
L 63.266639 101.952 
L 63.382581 98.928 
L 63.89852 98.928 
L 64.020259 94.392 
L 64.159388 92.88 
L 64.547792 92.88 
L 64.663734 91.368 
L 64.924602 91.368 
L 65.031848 89.856 
L 65.472425 89.856 
L 65.573874 88.344 
L 65.782569 88.344 
L 65.866626 86.832 
L 66.541985 86.832 
L 66.657927 83.808 
L 66.689811 83.808 
L 66.75068 79.272 
L 70.788342 79.272 
L 70.941964 77.76 
L 70.982544 77.76 
L 71.124572 76.248 
L 71.205731 76.248 
L 71.301383 74.736 
L 71.750656 74.736 
L 71.947756 71.712 
L 72.327465 71.712 
L 72.463696 70.2 
L 72.994128 70.2 
L 73.127461 68.688 
L 73.417314 68.688 
L 73.530357 67.176 
L 74.046297 67.176 
L 74.057891 64.152 
L 74.153543 64.152 
L 75.94194 64.152 
L 76.054983 62.64 
L 76.362227 62.64 
L 76.501357 61.128 
L 77.220194 61.128 
L 77.333237 59.616 
L 79.037577 59.616 
L 79.159315 58.104 
L 79.811486 58.104 
L 79.930326 56.592 
L 80.075253 56.592 
L 80.237571 55.08 
L 80.918727 55.08 
L 80.941915 53.568 
L 93.579535 53.568 
L 93.701273 52.056 
L 103.289633 52.056 
L 414.72 41.472 
L 414.72 41.472 
" style="fill:none;stroke:#0073b2;stroke-linecap:square;stroke-opacity:0.85;stroke-width:1.5;"/>
   </g>
   <g id="line2d_19">
    <path clip-path="url(#pa5c783b4af)" d="M 57.6 307.584 
L 57.669565 298.512 
L 57.808695 260.712 
L 57.81739 260.712 
L 57.979708 247.104 
L 58.005795 247.104 
L 58.098548 239.544 
L 58.278258 239.544 
L 58.426083 227.448 
L 58.518836 227.448 
L 59.04637 200.232 
L 59.113036 200.232 
L 59.113036 197.208 
L 59.220282 197.208 
L 59.556512 197.208 
L 59.681149 195.696 
L 59.773902 195.696 
L 59.85796 194.184 
L 60.342016 194.184 
L 60.582594 185.112 
L 60.713028 185.112 
L 60.713028 183.6 
L 60.782593 183.6 
L 61.449257 183.6 
L 61.478242 180.576 
L 61.556502 180.576 
L 61.721719 180.576 
L 61.866646 174.528 
L 62.002877 174.528 
L 62.11592 173.016 
L 62.324615 173.016 
L 62.457947 169.992 
L 62.553599 169.992 
L 62.652149 168.48 
L 62.701424 168.48 
L 62.82896 162.432 
L 63.049249 162.432 
L 63.170987 160.92 
L 63.492725 160.92 
L 63.599971 157.896 
L 63.773883 157.896 
L 63.889824 154.872 
L 63.950694 154.872 
L 63.950694 151.848 
L 64.055041 151.848 
L 64.147794 151.848 
L 64.263736 150.336 
L 64.452141 150.336 
L 64.452141 147.312 
L 64.550691 147.312 
L 64.776777 147.312 
L 64.776777 145.8 
L 64.86953 145.8 
L 64.918805 145.8 
L 64.918805 144.288 
L 65.026051 144.288 
L 65.1275 144.288 
L 65.24634 141.264 
L 65.66083 141.264 
L 65.773873 138.24 
L 65.915902 138.24 
L 66.031843 136.728 
L 66.228943 136.728 
L 66.3159 135.216 
L 66.878216 135.216 
L 67.011548 132.192 
L 67.359373 132.192 
L 67.359373 130.68 
L 67.455024 130.68 
L 67.614444 130.68 
L 67.7014 127.656 
L 67.724588 127.656 
L 67.770965 127.656 
L 67.881109 124.632 
L 68.278209 124.632 
L 68.402846 123.12 
L 68.481106 123.12 
L 68.562265 118.584 
L 68.568063 118.584 
L 69.24632 118.584 
L 69.24632 117.072 
L 69.356464 117.072 
L 69.559362 117.072 
L 69.666608 114.048 
L 69.849216 114.048 
L 69.855013 108 
L 69.953563 108 
L 70.466604 108 
L 70.57385 106.488 
L 70.6724 106.488 
L 70.773849 103.464 
L 71.223122 103.464 
L 71.223122 101.952 
L 71.330368 101.952 
L 74.289774 101.952 
L 74.394121 97.416 
L 75.202813 97.416 
L 75.30716 95.904 
L 75.768027 95.904 
L 75.869476 94.392 
L 75.907157 94.392 
L 75.907157 92.88 
L 76.014403 92.88 
L 76.307155 92.88 
L 76.307155 91.368 
L 76.414401 91.368 
L 77.588308 91.368 
L 77.692656 86.832 
L 77.999901 86.832 
L 78.110045 85.32 
L 78.202798 85.32 
L 78.310044 82.296 
L 78.692651 82.296 
L 78.814389 79.272 
L 80.541917 79.272 
L 80.660757 77.76 
L 81.05206 77.76 
L 81.168001 76.248 
L 81.365102 76.248 
L 81.365102 74.736 
L 81.475246 74.736 
L 81.570898 74.736 
L 81.692636 73.224 
L 82.620168 73.224 
L 82.71582 70.2 
L 82.918717 70.2 
L 83.03176 68.688 
L 83.339005 68.688 
L 83.446251 67.176 
L 83.515816 67.176 
L 83.634656 65.664 
L 83.849148 65.664 
L 83.959292 64.152 
L 85.327401 64.152 
L 85.434647 62.64 
L 85.44914 62.64 
L 85.553487 61.128 
L 86.579569 61.128 
L 86.692612 59.616 
L 89.402744 59.616 
L 89.518685 58.104 
L 90.570854 58.104 
L 90.683897 56.592 
L 94.417212 56.592 
L 94.530255 55.08 
L 99.608491 55.08 
L 99.608491 53.568 
L 99.707041 53.568 
L 99.825881 53.568 
L 99.933127 52.056 
L 103.289633 52.056 
L 414.72 41.472 
L 414.72 41.472 
" style="fill:none;stroke:#009980;stroke-linecap:square;stroke-opacity:0.85;stroke-width:1.5;"/>
   </g>
   <g id="line2d_20">
    <path clip-path="url(#pa5c783b4af)" d="M 57.6 307.584 
L 57.602899 307.584 
L 57.776811 272.808 
L 57.7971 272.808 
L 57.799999 268.272 
L 57.805796 268.272 
L 57.942027 266.76 
L 58.03478 262.224 
L 58.049273 262.224 
L 58.063766 262.224 
L 58.171012 254.664 
L 58.1942 254.664 
L 58.295649 244.08 
L 58.515938 244.08 
L 58.568111 236.52 
L 58.623183 236.52 
L 58.657966 236.52 
L 58.713038 233.496 
L 58.765212 233.496 
L 58.776806 233.496 
L 58.889849 230.472 
L 59.00579 230.472 
L 59.115935 227.448 
L 59.133326 227.448 
L 59.136224 222.912 
L 59.240572 222.912 
L 59.376803 222.912 
L 59.431875 219.888 
L 59.701439 219.888 
L 59.701439 218.376 
L 59.730424 218.376 
L 59.95651 218.376 
L 60.098539 215.352 
L 60.272451 215.352 
L 60.272451 213.84 
L 60.376798 213.84 
L 60.852158 213.84 
L 60.944911 210.816 
L 61.208678 210.816 
L 61.321721 207.792 
L 61.539111 207.792 
L 61.599981 204.768 
L 61.649256 204.768 
L 64.37388 204.768 
L 64.37388 203.256 
L 64.484024 203.256 
L 65.173876 203.256 
L 65.173876 201.744 
L 65.20576 201.744 
L 65.414455 201.744 
L 65.510106 198.72 
L 65.637642 198.72 
L 65.637642 194.184 
L 65.724598 194.184 
L 66.292711 194.184 
L 66.292711 192.672 
L 66.379667 192.672 
L 67.5043 192.672 
L 67.608647 189.648 
L 67.675313 189.648 
L 67.675313 188.136 
L 67.776762 188.136 
L 67.930384 188.136 
L 67.930384 186.624 
L 68.040529 186.624 
L 68.139079 186.624 
L 68.139079 185.112 
L 68.231832 185.112 
L 69.173857 185.112 
L 69.173857 182.088 
L 69.255016 182.088 
L 69.547768 182.088 
L 69.617333 177.552 
L 69.727477 177.552 
L 69.901389 173.016 
L 70.373851 173.016 
L 70.45501 171.504 
L 70.550662 171.504 
L 70.550662 169.992 
L 70.660806 169.992 
L 70.892689 169.992 
L 70.982544 168.48 
L 71.026022 168.48 
L 71.026022 166.968 
L 71.101384 166.968 
L 71.744859 166.968 
L 71.744859 165.456 
L 71.843409 165.456 
L 71.912974 165.456 
L 72.005727 163.944 
L 72.147755 163.944 
L 72.147755 162.432 
L 72.246305 162.432 
L 73.078185 162.432 
L 73.115866 154.872 
L 73.492676 154.872 
L 73.597024 151.848 
L 73.602821 151.848 
L 73.62311 151.848 
L 73.718762 147.312 
L 74.037601 147.312 
L 74.078181 141.264 
L 74.13905 141.264 
L 74.689772 141.264 
L 74.73325 136.728 
L 74.744844 136.728 
L 75.2289 136.728 
L 75.2289 135.216 
L 75.269479 135.216 
L 75.570927 135.216 
L 75.570927 133.704 
L 75.672376 133.704 
L 76.65498 133.704 
L 76.65498 132.192 
L 76.721646 132.192 
L 77.220194 132.192 
L 77.220194 130.68 
L 77.32744 130.68 
L 79.043374 130.68 
L 79.043374 129.168 
L 79.124533 129.168 
L 79.478154 129.168 
L 79.524531 124.632 
L 79.568009 124.632 
L 81.437565 124.632 
L 81.481043 123.12 
L 81.718723 123.12 
L 81.718723 121.608 
L 81.82307 121.608 
L 81.901331 121.608 
L 81.901331 118.584 
L 82.008577 118.584 
L 83.672337 118.584 
L 83.739003 114.048 
L 85.260735 114.048 
L 85.333198 108 
L 85.353488 108 
L 85.910007 108 
L 85.910007 106.488 
L 85.994065 106.488 
L 86.446236 106.488 
L 86.446236 103.464 
L 86.553482 103.464 
L 87.031741 103.464 
L 87.031741 101.952 
L 87.130291 101.952 
L 87.678114 101.952 
L 87.718694 100.44 
L 87.979562 100.44 
L 87.979562 98.928 
L 88.683907 98.928 
L 88.788254 95.904 
L 89.820133 95.904 
L 89.936074 94.392 
L 90.304189 94.392 
L 90.42013 92.88 
L 90.75636 92.88 
L 90.863606 89.856 
L 91.385343 89.856 
L 91.498386 86.832 
L 91.788239 86.832 
L 91.898384 85.32 
L 92.12447 85.32 
L 92.153455 83.808 
L 92.866495 83.808 
L 92.988233 82.296 
L 93.805621 82.296 
L 93.909968 80.784 
L 414.72 41.472 
L 414.72 41.472 
" style="fill:none;stroke:#59b2e6;stroke-dasharray:5.55,2.4;stroke-dashoffset:0;stroke-opacity:0.85;stroke-width:1.5;"/>
   </g>
   <g id="line2d_21">
    <path clip-path="url(#pa5c783b4af)" d="M 57.6 307.584 
L 57.669565 298.512 
L 57.81739 259.2 
L 57.999998 241.056 
L 58.284055 241.056 
L 58.568111 227.448 
L 58.852168 218.376 
L 58.939124 218.376 
L 59.701439 200.232 
L 59.959409 200.232 
L 60.130422 195.696 
L 60.165205 195.696 
L 60.408682 191.16 
L 60.681144 191.16 
L 60.82897 189.648 
L 61.286939 188.136 
L 61.510126 186.624 
L 61.750704 186.624 
L 61.886936 185.112 
L 62.246354 185.112 
L 62.359397 183.6 
L 63.649246 183.6 
L 63.953592 182.088 
L 65.347788 182.088 
L 65.704308 180.576 
L 65.831844 180.576 
L 66.118799 179.064 
L 66.411551 177.552 
L 66.991259 177.552 
L 67.292706 176.04 
L 67.715893 169.992 
L 70.620226 169.992 
L 70.817327 166.968 
L 71.240513 163.944 
L 71.397034 163.944 
L 71.739062 162.432 
L 72.854998 162.432 
L 73.339054 159.408 
L 75.194117 159.408 
L 75.562231 157.896 
L 75.852085 154.872 
L 79.20859 154.872 
L 79.457865 153.36 
L 85.918703 153.36 
L 86.295512 151.848 
L 87.002755 151.848 
L 87.634636 147.312 
L 88.214344 147.312 
L 88.483908 145.8 
L 89.562163 145.8 
L 89.976654 144.288 
L 90.295493 144.288 
L 90.709984 141.264 
L 96.909953 141.264 
L 97.162126 139.752 
L 98.022992 139.752 
L 98.278063 138.24 
L 99.767911 138.24 
L 100.02588 136.728 
L 100.66066 136.728 
L 100.99689 135.216 
L 101.501235 135.216 
L 101.736017 133.704 
L 104.788176 133.704 
L 104.950494 132.192 
L 108.611346 132.192 
L 108.88091 130.68 
L 110.022933 130.68 
L 110.36496 127.656 
L 113.785234 127.656 
L 114.246101 124.632 
L 115.509863 124.632 
L 115.77363 123.12 
L 116.144642 123.12 
L 116.370728 121.608 
L 118.640282 121.608 
L 119.306946 117.072 
L 120.599693 117.072 
L 120.993894 115.56 
L 121.222879 115.56 
L 121.648963 114.048 
L 122.654756 114.048 
L 122.970696 111.024 
L 126.208362 111.024 
L 126.724301 108 
L 130.988048 108 
L 131.373554 106.488 
L 145.967686 106.488 
L 146.222757 103.464 
L 152.445915 103.464 
L 152.756058 101.952 
L 154.657498 101.952 
L 154.880686 100.44 
L 156.735749 100.44 
L 156.976328 98.928 
L 157.402413 98.928 
L 157.692266 94.392 
L 158.063279 94.392 
L 158.434292 92.88 
L 159.489359 92.88 
L 160.213993 91.368 
L 160.506745 91.368 
L 160.866164 89.856 
L 164.364697 89.856 
L 164.796579 86.832 
L 165.086433 86.832 
L 165.416866 85.32 
L 166.040052 85.32 
L 166.358891 83.808 
L 167.582073 83.808 
L 168.025549 82.296 
L 179.718246 82.296 
L 180.005201 80.784 
L 182.034177 80.784 
L 182.361711 79.272 
L 187.9298 79.272 
L 188.387769 77.76 
L 190.973264 77.76 
L 191.350073 76.248 
L 191.718187 76.248 
L 192.060215 71.712 
L 195.770342 71.712 
L 196.03121 70.2 
L 196.326861 70.2 
L 196.761641 68.688 
L 199.964524 68.688 
L 200.341334 67.176 
L 206.306522 67.176 
L 206.721013 65.664 
L 213.549965 65.664 
L 213.764457 64.152 
L 219.607907 64.152 
L 219.952833 62.64 
L 222.619486 62.64 
L 223.164411 59.616 
L 225.428168 59.616 
L 225.764398 58.104 
L 227.274536 58.104 
L 227.732505 56.592 
L 228.538298 56.592 
L 228.85134 53.568 
L 233.636824 53.568 
L 233.970156 52.056 
L 240.47737 52.056 
L 241.062875 49.032 
L 262.900449 49.032 
L 263.404795 47.52 
L 289.198872 47.52 
L 289.616261 46.008 
L 328.103031 46.008 
L 328.471145 44.496 
L 374.189763 44.496 
L 374.447732 42.984 
L 374.563674 42.984 
L 374.804252 41.472 
L 414.72 41.472 
L 414.72 41.472 
" style="fill:none;stroke:#e69900;stroke-dasharray:5.55,2.4;stroke-dashoffset:0;stroke-opacity:0.85;stroke-width:1.5;"/>
   </g>
   <g id="line2d_22">
    <path clip-path="url(#pa5c783b4af)" d="M 57.6 307.584 
L 57.666666 303.048 
L 57.666666 300.024 
L 57.744927 269.784 
L 57.785506 262.224 
L 58.3913 233.496 
L 58.457967 233.496 
L 59.194195 224.424 
L 60.736217 204.768 
L 60.742014 197.208 
L 60.843462 177.552 
L 62.59128 139.752 
L 62.933307 138.24 
L 69.976751 130.68 
L 69.982548 127.656 
L 70.026026 114.048 
L 70.028925 114.048 
L 70.776747 88.344 
L 70.785443 88.344 
L 71.176745 86.832 
L 75.454986 77.76 
L 75.472377 77.76 
L 75.892665 73.224 
L 79.649168 71.712 
L 79.712936 67.176 
L 79.733226 67.176 
L 80.941915 56.592 
L 81.01148 56.592 
L 81.054958 56.592 
L 89.254918 53.568 
L 89.263614 53.568 
L 89.478106 53.568 
L 89.492598 53.568 
L 89.80564 52.056 
L 89.823031 52.056 
L 92.625916 52.056 
L 92.628815 52.056 
L 93.286783 52.056 
L 93.394029 52.056 
L 93.425912 52.056 
L 93.43171 52.056 
L 93.617216 52.056 
L 93.733157 52.056 
L 97.631689 52.056 
L 97.666472 52.056 
L 97.698355 52.056 
L 97.994006 52.056 
L 98.173715 52.056 
L 101.391091 52.056 
L 101.405584 52.056 
L 101.541815 52.056 
L 101.5708 52.056 
L 101.582395 52.056 
L 102.031668 52.056 
L 102.060653 52.056 
L 102.30413 52.056 
L 102.32442 52.056 
L 102.333115 52.056 
L 102.414275 52.056 
L 103.098329 52.056 
L 103.107025 52.056 
L 103.289633 52.056 
L 414.72 41.472 
" style="fill:none;stroke:#000000;stroke-dasharray:5.55,2.4;stroke-dashoffset:0;stroke-opacity:0.85;stroke-width:1.5;"/>
   </g>
   <g id="patch_3">
    <path d="M 57.6 307.584 
L 57.6 41.472 
" style="fill:none;stroke:#000000;stroke-linecap:square;stroke-linejoin:miter;stroke-width:0.8;"/>
   </g>
   <g id="patch_4">
    <path d="M 414.72 307.584 
L 414.72 41.472 
" style="fill:none;stroke:#000000;stroke-linecap:square;stroke-linejoin:miter;stroke-width:0.8;"/>
   </g>
   <g id="patch_5">
    <path d="M 57.6 307.584 
L 414.72 307.584 
" style="fill:none;stroke:#000000;stroke-linecap:square;stroke-linejoin:miter;stroke-width:0.8;"/>
   </g>
   <g id="patch_6">
    <path d="M 57.6 41.472 
L 414.72 41.472 
" style="fill:none;stroke:#000000;stroke-linecap:square;stroke-linejoin:miter;stroke-width:0.8;"/>
   </g>
   <g id="text_15">
    <!-- Receiver-Operating curve -->
    <defs>
     <path d="M 48.78125 52.59375 
L 48.78125 44.1875 
Q 44.96875 46.296875 41.140625 47.34375 
Q 37.3125 48.390625 33.40625 48.390625 
Q 24.65625 48.390625 19.8125 42.84375 
Q 14.984375 37.3125 14.984375 27.296875 
Q 14.984375 17.28125 19.8125 11.734375 
Q 24.65625 6.203125 33.40625 6.203125 
Q 37.3125 6.203125 41.140625 7.25 
Q 44.96875 8.296875 48.78125 10.40625 
L 48.78125 2.09375 
Q 45.015625 0.34375 40.984375 -0.53125 
Q 36.96875 -1.421875 32.421875 -1.421875 
Q 20.0625 -1.421875 12.78125 6.34375 
Q 5.515625 14.109375 5.515625 27.296875 
Q 5.515625 40.671875 12.859375 48.328125 
Q 20.21875 56 33.015625 56 
Q 37.15625 56 41.109375 55.140625 
Q 45.0625 54.296875 48.78125 52.59375 
z
" id="DejaVuSans-99"/>
     <path d="M 4.890625 31.390625 
L 31.203125 31.390625 
L 31.203125 23.390625 
L 4.890625 23.390625 
z
" id="DejaVuSans-45"/>
     <path d="M 39.40625 66.21875 
Q 28.65625 66.21875 22.328125 58.203125 
Q 16.015625 50.203125 16.015625 36.375 
Q 16.015625 22.609375 22.328125 14.59375 
Q 28.65625 6.59375 39.40625 6.59375 
Q 50.140625 6.59375 56.421875 14.59375 
Q 62.703125 22.609375 62.703125 36.375 
Q 62.703125 50.203125 56.421875 58.203125 
Q 50.140625 66.21875 39.40625 66.21875 
z
M 39.40625 74.21875 
Q 54.734375 74.21875 63.90625 63.9375 
Q 73.09375 53.65625 73.09375 36.375 
Q 73.09375 19.140625 63.90625 8.859375 
Q 54.734375 -1.421875 39.40625 -1.421875 
Q 24.03125 -1.421875 14.8125 8.828125 
Q 5.609375 19.09375 5.609375 36.375 
Q 5.609375 53.65625 14.8125 63.9375 
Q 24.03125 74.21875 39.40625 74.21875 
z
" id="DejaVuSans-79"/>
     <path d="M 18.109375 8.203125 
L 18.109375 -20.796875 
L 9.078125 -20.796875 
L 9.078125 54.6875 
L 18.109375 54.6875 
L 18.109375 46.390625 
Q 20.953125 51.265625 25.265625 53.625 
Q 29.59375 56 35.59375 56 
Q 45.5625 56 51.78125 48.09375 
Q 58.015625 40.1875 58.015625 27.296875 
Q 58.015625 14.40625 51.78125 6.484375 
Q 45.5625 -1.421875 35.59375 -1.421875 
Q 29.59375 -1.421875 25.265625 0.953125 
Q 20.953125 3.328125 18.109375 8.203125 
z
M 48.6875 27.296875 
Q 48.6875 37.203125 44.609375 42.84375 
Q 40.53125 48.484375 33.40625 48.484375 
Q 26.265625 48.484375 22.1875 42.84375 
Q 18.109375 37.203125 18.109375 27.296875 
Q 18.109375 17.390625 22.1875 11.75 
Q 26.265625 6.109375 33.40625 6.109375 
Q 40.53125 6.109375 44.609375 11.75 
Q 48.6875 17.390625 48.6875 27.296875 
z
" id="DejaVuSans-112"/>
     <path d="M 54.890625 33.015625 
L 54.890625 0 
L 45.90625 0 
L 45.90625 32.71875 
Q 45.90625 40.484375 42.875 44.328125 
Q 39.84375 48.1875 33.796875 48.1875 
Q 26.515625 48.1875 22.3125 43.546875 
Q 18.109375 38.921875 18.109375 30.90625 
L 18.109375 0 
L 9.078125 0 
L 9.078125 54.6875 
L 18.109375 54.6875 
L 18.109375 46.1875 
Q 21.34375 51.125 25.703125 53.5625 
Q 30.078125 56 35.796875 56 
Q 45.21875 56 50.046875 50.171875 
Q 54.890625 44.34375 54.890625 33.015625 
z
" id="DejaVuSans-110"/>
     <path d="M 45.40625 27.984375 
Q 45.40625 37.75 41.375 43.109375 
Q 37.359375 48.484375 30.078125 48.484375 
Q 22.859375 48.484375 18.828125 43.109375 
Q 14.796875 37.75 14.796875 27.984375 
Q 14.796875 18.265625 18.828125 12.890625 
Q 22.859375 7.515625 30.078125 7.515625 
Q 37.359375 7.515625 41.375 12.890625 
Q 45.40625 18.265625 45.40625 27.984375 
z
M 54.390625 6.78125 
Q 54.390625 -7.171875 48.1875 -13.984375 
Q 42 -20.796875 29.203125 -20.796875 
Q 24.46875 -20.796875 20.265625 -20.09375 
Q 16.0625 -19.390625 12.109375 -17.921875 
L 12.109375 -9.1875 
Q 16.0625 -11.328125 19.921875 -12.34375 
Q 23.78125 -13.375 27.78125 -13.375 
Q 36.625 -13.375 41.015625 -8.765625 
Q 45.40625 -4.15625 45.40625 5.171875 
L 45.40625 9.625 
Q 42.625 4.78125 38.28125 2.390625 
Q 33.9375 0 27.875 0 
Q 17.828125 0 11.671875 7.65625 
Q 5.515625 15.328125 5.515625 27.984375 
Q 5.515625 40.671875 11.671875 48.328125 
Q 17.828125 56 27.875 56 
Q 33.9375 56 38.28125 53.609375 
Q 42.625 51.21875 45.40625 46.390625 
L 45.40625 54.6875 
L 54.390625 54.6875 
z
" id="DejaVuSans-103"/>
    </defs>
    <g transform="translate(159.538125 35.472)scale(0.12 -0.12)">
     <use xlink:href="#DejaVuSans-82"/>
     <use x="64.982422" xlink:href="#DejaVuSans-101"/>
     <use x="126.505859" xlink:href="#DejaVuSans-99"/>
     <use x="181.486328" xlink:href="#DejaVuSans-101"/>
     <use x="243.009766" xlink:href="#DejaVuSans-105"/>
     <use x="270.792969" xlink:href="#DejaVuSans-118"/>
     <use x="329.972656" xlink:href="#DejaVuSans-101"/>
     <use x="391.496094" xlink:href="#DejaVuSans-114"/>
     <use x="426.234375" xlink:href="#DejaVuSans-45"/>
     <use x="465.068359" xlink:href="#DejaVuSans-79"/>
     <use x="543.779297" xlink:href="#DejaVuSans-112"/>
     <use x="607.255859" xlink:href="#DejaVuSans-101"/>
     <use x="668.779297" xlink:href="#DejaVuSans-114"/>
     <use x="709.892578" xlink:href="#DejaVuSans-97"/>
     <use x="771.171875" xlink:href="#DejaVuSans-116"/>
     <use x="810.380859" xlink:href="#DejaVuSans-105"/>
     <use x="838.164062" xlink:href="#DejaVuSans-110"/>
     <use x="901.542969" xlink:href="#DejaVuSans-103"/>
     <use x="965.019531" xlink:href="#DejaVuSans-32"/>
     <use x="996.806641" xlink:href="#DejaVuSans-99"/>
     <use x="1051.787109" xlink:href="#DejaVuSans-117"/>
     <use x="1115.166016" xlink:href="#DejaVuSans-114"/>
     <use x="1156.279297" xlink:href="#DejaVuSans-118"/>
     <use x="1215.458984" xlink:href="#DejaVuSans-101"/>
    </g>
   </g>
   <g id="legend_1">
    <g id="patch_7">
     <path d="M 291.128 304.92288 
L 411.713938 304.92288 
Q 413.113938 304.92288 413.113938 303.52288 
L 413.113938 201.281317 
Q 413.113938 199.881317 411.713938 199.881317 
L 291.128 199.881317 
Q 289.728 199.881317 289.728 201.281317 
L 289.728 303.52288 
Q 289.728 304.92288 291.128 304.92288 
z
" style="fill:#ffffff;opacity:0.8;stroke:#cccccc;stroke-linejoin:miter;"/>
    </g>
    <g id="line2d_23">
     <path d="M 292.528 205.550224 
L 306.528 205.550224 
" style="fill:none;stroke:#59b2e6;stroke-linecap:square;stroke-opacity:0.85;stroke-width:1.5;"/>
    </g>
    <g id="line2d_24"/>
    <g id="text_16">
     <!-- elevation (AUC = 0.97) -->
     <defs>
      <path d="M 31 75.875 
Q 24.46875 64.65625 21.28125 53.65625 
Q 18.109375 42.671875 18.109375 31.390625 
Q 18.109375 20.125 21.3125 9.0625 
Q 24.515625 -2 31 -13.1875 
L 23.1875 -13.1875 
Q 15.875 -1.703125 12.234375 9.375 
Q 8.59375 20.453125 8.59375 31.390625 
Q 8.59375 42.28125 12.203125 53.3125 
Q 15.828125 64.359375 23.1875 75.875 
z
" id="DejaVuSans-40"/>
      <path d="M 34.1875 63.1875 
L 20.796875 26.90625 
L 47.609375 26.90625 
z
M 28.609375 72.90625 
L 39.796875 72.90625 
L 67.578125 0 
L 57.328125 0 
L 50.6875 18.703125 
L 17.828125 18.703125 
L 11.1875 0 
L 0.78125 0 
z
" id="DejaVuSans-65"/>
      <path d="M 8.6875 72.90625 
L 18.609375 72.90625 
L 18.609375 28.609375 
Q 18.609375 16.890625 22.84375 11.734375 
Q 27.09375 6.59375 36.625 6.59375 
Q 46.09375 6.59375 50.34375 11.734375 
Q 54.59375 16.890625 54.59375 28.609375 
L 54.59375 72.90625 
L 64.5 72.90625 
L 64.5 27.390625 
Q 64.5 13.140625 57.4375 5.859375 
Q 50.390625 -1.421875 36.625 -1.421875 
Q 22.796875 -1.421875 15.734375 5.859375 
Q 8.6875 13.140625 8.6875 27.390625 
z
" id="DejaVuSans-85"/>
      <path d="M 64.40625 67.28125 
L 64.40625 56.890625 
Q 59.421875 61.53125 53.78125 63.8125 
Q 48.140625 66.109375 41.796875 66.109375 
Q 29.296875 66.109375 22.65625 58.46875 
Q 16.015625 50.828125 16.015625 36.375 
Q 16.015625 21.96875 22.65625 14.328125 
Q 29.296875 6.6875 41.796875 6.6875 
Q 48.140625 6.6875 53.78125 8.984375 
Q 59.421875 11.28125 64.40625 15.921875 
L 64.40625 5.609375 
Q 59.234375 2.09375 53.4375 0.328125 
Q 47.65625 -1.421875 41.21875 -1.421875 
Q 24.65625 -1.421875 15.125 8.703125 
Q 5.609375 18.84375 5.609375 36.375 
Q 5.609375 53.953125 15.125 64.078125 
Q 24.65625 74.21875 41.21875 74.21875 
Q 47.75 74.21875 53.53125 72.484375 
Q 59.328125 70.75 64.40625 67.28125 
z
" id="DejaVuSans-67"/>
      <path d="M 10.59375 45.40625 
L 73.1875 45.40625 
L 73.1875 37.203125 
L 10.59375 37.203125 
z
M 10.59375 25.484375 
L 73.1875 25.484375 
L 73.1875 17.1875 
L 10.59375 17.1875 
z
" id="DejaVuSans-61"/>
      <path d="M 10.984375 1.515625 
L 10.984375 10.5 
Q 14.703125 8.734375 18.5 7.8125 
Q 22.3125 6.890625 25.984375 6.890625 
Q 35.75 6.890625 40.890625 13.453125 
Q 46.046875 20.015625 46.78125 33.40625 
Q 43.953125 29.203125 39.59375 26.953125 
Q 35.25 24.703125 29.984375 24.703125 
Q 19.046875 24.703125 12.671875 31.3125 
Q 6.296875 37.9375 6.296875 49.421875 
Q 6.296875 60.640625 12.9375 67.421875 
Q 19.578125 74.21875 30.609375 74.21875 
Q 43.265625 74.21875 49.921875 64.515625 
Q 56.59375 54.828125 56.59375 36.375 
Q 56.59375 19.140625 48.40625 8.859375 
Q 40.234375 -1.421875 26.421875 -1.421875 
Q 22.703125 -1.421875 18.890625 -0.6875 
Q 15.09375 0.046875 10.984375 1.515625 
z
M 30.609375 32.421875 
Q 37.25 32.421875 41.125 36.953125 
Q 45.015625 41.5 45.015625 49.421875 
Q 45.015625 57.28125 41.125 61.84375 
Q 37.25 66.40625 30.609375 66.40625 
Q 23.96875 66.40625 20.09375 61.84375 
Q 16.21875 57.28125 16.21875 49.421875 
Q 16.21875 41.5 20.09375 36.953125 
Q 23.96875 32.421875 30.609375 32.421875 
z
" id="DejaVuSans-57"/>
      <path d="M 8.203125 72.90625 
L 55.078125 72.90625 
L 55.078125 68.703125 
L 28.609375 0 
L 18.3125 0 
L 43.21875 64.59375 
L 8.203125 64.59375 
z
" id="DejaVuSans-55"/>
      <path d="M 8.015625 75.875 
L 15.828125 75.875 
Q 23.140625 64.359375 26.78125 53.3125 
Q 30.421875 42.28125 30.421875 31.390625 
Q 30.421875 20.453125 26.78125 9.375 
Q 23.140625 -1.703125 15.828125 -13.1875 
L 8.015625 -13.1875 
Q 14.5 -2 17.703125 9.0625 
Q 20.90625 20.125 20.90625 31.390625 
Q 20.90625 42.671875 17.703125 53.65625 
Q 14.5 64.65625 8.015625 75.875 
z
" id="DejaVuSans-41"/>
     </defs>
     <g transform="translate(312.128 208.000224)scale(0.07 -0.07)">
      <use xlink:href="#DejaVuSans-101"/>
      <use x="61.523438" xlink:href="#DejaVuSans-108"/>
      <use x="89.306641" xlink:href="#DejaVuSans-101"/>
      <use x="150.830078" xlink:href="#DejaVuSans-118"/>
      <use x="210.009766" xlink:href="#DejaVuSans-97"/>
      <use x="271.289062" xlink:href="#DejaVuSans-116"/>
      <use x="310.498047" xlink:href="#DejaVuSans-105"/>
      <use x="338.28125" xlink:href="#DejaVuSans-111"/>
      <use x="399.462891" xlink:href="#DejaVuSans-110"/>
      <use x="462.841797" xlink:href="#DejaVuSans-32"/>
      <use x="494.628906" xlink:href="#DejaVuSans-40"/>
      <use x="533.642578" xlink:href="#DejaVuSans-65"/>
      <use x="602.050781" xlink:href="#DejaVuSans-85"/>
      <use x="675.244141" xlink:href="#DejaVuSans-67"/>
      <use x="745.068359" xlink:href="#DejaVuSans-32"/>
      <use x="776.855469" xlink:href="#DejaVuSans-61"/>
      <use x="860.644531" xlink:href="#DejaVuSans-32"/>
      <use x="892.431641" xlink:href="#DejaVuSans-48"/>
      <use x="956.054688" xlink:href="#DejaVuSans-46"/>
      <use x="987.841797" xlink:href="#DejaVuSans-57"/>
      <use x="1051.464844" xlink:href="#DejaVuSans-55"/>
      <use x="1115.087891" xlink:href="#DejaVuSans-41"/>
     </g>
    </g>
    <g id="line2d_25">
     <path d="M 292.528 215.824911 
L 306.528 215.824911 
" style="fill:none;stroke:#e69900;stroke-linecap:square;stroke-opacity:0.85;stroke-width:1.5;"/>
    </g>
    <g id="line2d_26"/>
    <g id="text_17">
     <!-- CRISTA (AUC = 0.98) -->
     <defs>
      <path d="M 9.8125 72.90625 
L 19.671875 72.90625 
L 19.671875 0 
L 9.8125 0 
z
" id="DejaVuSans-73"/>
      <path d="M 53.515625 70.515625 
L 53.515625 60.890625 
Q 47.90625 63.578125 42.921875 64.890625 
Q 37.9375 66.21875 33.296875 66.21875 
Q 25.25 66.21875 20.875 63.09375 
Q 16.5 59.96875 16.5 54.203125 
Q 16.5 49.359375 19.40625 46.890625 
Q 22.3125 44.4375 30.421875 42.921875 
L 36.375 41.703125 
Q 47.40625 39.59375 52.65625 34.296875 
Q 57.90625 29 57.90625 20.125 
Q 57.90625 9.515625 50.796875 4.046875 
Q 43.703125 -1.421875 29.984375 -1.421875 
Q 24.8125 -1.421875 18.96875 -0.25 
Q 13.140625 0.921875 6.890625 3.21875 
L 6.890625 13.375 
Q 12.890625 10.015625 18.65625 8.296875 
Q 24.421875 6.59375 29.984375 6.59375 
Q 38.421875 6.59375 43.015625 9.90625 
Q 47.609375 13.234375 47.609375 19.390625 
Q 47.609375 24.75 44.3125 27.78125 
Q 41.015625 30.8125 33.5 32.328125 
L 27.484375 33.5 
Q 16.453125 35.6875 11.515625 40.375 
Q 6.59375 45.0625 6.59375 53.421875 
Q 6.59375 63.09375 13.40625 68.65625 
Q 20.21875 74.21875 32.171875 74.21875 
Q 37.3125 74.21875 42.625 73.28125 
Q 47.953125 72.359375 53.515625 70.515625 
z
" id="DejaVuSans-83"/>
     </defs>
     <g transform="translate(312.128 218.274911)scale(0.07 -0.07)">
      <use xlink:href="#DejaVuSans-67"/>
      <use x="69.824219" xlink:href="#DejaVuSans-82"/>
      <use x="139.306641" xlink:href="#DejaVuSans-73"/>
      <use x="168.798828" xlink:href="#DejaVuSans-83"/>
      <use x="232.275391" xlink:href="#DejaVuSans-84"/>
      <use x="285.609375" xlink:href="#DejaVuSans-65"/>
      <use x="354.017578" xlink:href="#DejaVuSans-32"/>
      <use x="385.804688" xlink:href="#DejaVuSans-40"/>
      <use x="424.818359" xlink:href="#DejaVuSans-65"/>
      <use x="493.226562" xlink:href="#DejaVuSans-85"/>
      <use x="566.419922" xlink:href="#DejaVuSans-67"/>
      <use x="636.244141" xlink:href="#DejaVuSans-32"/>
      <use x="668.03125" xlink:href="#DejaVuSans-61"/>
      <use x="751.820312" xlink:href="#DejaVuSans-32"/>
      <use x="783.607422" xlink:href="#DejaVuSans-48"/>
      <use x="847.230469" xlink:href="#DejaVuSans-46"/>
      <use x="879.017578" xlink:href="#DejaVuSans-57"/>
      <use x="942.640625" xlink:href="#DejaVuSans-56"/>
      <use x="1006.263672" xlink:href="#DejaVuSans-41"/>
     </g>
    </g>
    <g id="line2d_27">
     <path d="M 292.528 226.099599 
L 306.528 226.099599 
" style="fill:none;stroke:#000000;stroke-linecap:square;stroke-opacity:0.85;stroke-width:1.5;"/>
    </g>
    <g id="line2d_28"/>
    <g id="text_18">
     <!-- predictCRISPR (AUC = 0.97) -->
     <defs>
      <path d="M 45.40625 46.390625 
L 45.40625 75.984375 
L 54.390625 75.984375 
L 54.390625 0 
L 45.40625 0 
L 45.40625 8.203125 
Q 42.578125 3.328125 38.25 0.953125 
Q 33.9375 -1.421875 27.875 -1.421875 
Q 17.96875 -1.421875 11.734375 6.484375 
Q 5.515625 14.40625 5.515625 27.296875 
Q 5.515625 40.1875 11.734375 48.09375 
Q 17.96875 56 27.875 56 
Q 33.9375 56 38.25 53.625 
Q 42.578125 51.265625 45.40625 46.390625 
z
M 14.796875 27.296875 
Q 14.796875 17.390625 18.875 11.75 
Q 22.953125 6.109375 30.078125 6.109375 
Q 37.203125 6.109375 41.296875 11.75 
Q 45.40625 17.390625 45.40625 27.296875 
Q 45.40625 37.203125 41.296875 42.84375 
Q 37.203125 48.484375 30.078125 48.484375 
Q 22.953125 48.484375 18.875 42.84375 
Q 14.796875 37.203125 14.796875 27.296875 
z
" id="DejaVuSans-100"/>
     </defs>
     <g transform="translate(312.128 228.549599)scale(0.07 -0.07)">
      <use xlink:href="#DejaVuSans-112"/>
      <use x="63.476562" xlink:href="#DejaVuSans-114"/>
      <use x="102.339844" xlink:href="#DejaVuSans-101"/>
      <use x="163.863281" xlink:href="#DejaVuSans-100"/>
      <use x="227.339844" xlink:href="#DejaVuSans-105"/>
      <use x="255.123047" xlink:href="#DejaVuSans-99"/>
      <use x="310.103516" xlink:href="#DejaVuSans-116"/>
      <use x="349.3125" xlink:href="#DejaVuSans-67"/>
      <use x="419.136719" xlink:href="#DejaVuSans-82"/>
      <use x="488.619141" xlink:href="#DejaVuSans-73"/>
      <use x="518.111328" xlink:href="#DejaVuSans-83"/>
      <use x="581.587891" xlink:href="#DejaVuSans-80"/>
      <use x="641.890625" xlink:href="#DejaVuSans-82"/>
      <use x="711.373047" xlink:href="#DejaVuSans-32"/>
      <use x="743.160156" xlink:href="#DejaVuSans-40"/>
      <use x="782.173828" xlink:href="#DejaVuSans-65"/>
      <use x="850.582031" xlink:href="#DejaVuSans-85"/>
      <use x="923.775391" xlink:href="#DejaVuSans-67"/>
      <use x="993.599609" xlink:href="#DejaVuSans-32"/>
      <use x="1025.386719" xlink:href="#DejaVuSans-61"/>
      <use x="1109.175781" xlink:href="#DejaVuSans-32"/>
      <use x="1140.962891" xlink:href="#DejaVuSans-48"/>
      <use x="1204.585938" xlink:href="#DejaVuSans-46"/>
      <use x="1236.373047" xlink:href="#DejaVuSans-57"/>
      <use x="1299.996094" xlink:href="#DejaVuSans-55"/>
      <use x="1363.619141" xlink:href="#DejaVuSans-41"/>
     </g>
    </g>
    <g id="line2d_29">
     <path d="M 292.528 236.374286 
L 306.528 236.374286 
" style="fill:none;stroke:#cc99b2;stroke-linecap:square;stroke-opacity:0.85;stroke-width:1.5;"/>
    </g>
    <g id="line2d_30"/>
    <g id="text_19">
     <!-- CFD (AUC = 0.97) -->
     <defs>
      <path d="M 19.671875 64.796875 
L 19.671875 8.109375 
L 31.59375 8.109375 
Q 46.6875 8.109375 53.6875 14.9375 
Q 60.6875 21.78125 60.6875 36.53125 
Q 60.6875 51.171875 53.6875 57.984375 
Q 46.6875 64.796875 31.59375 64.796875 
z
M 9.8125 72.90625 
L 30.078125 72.90625 
Q 51.265625 72.90625 61.171875 64.09375 
Q 71.09375 55.28125 71.09375 36.53125 
Q 71.09375 17.671875 61.125 8.828125 
Q 51.171875 0 30.078125 0 
L 9.8125 0 
z
" id="DejaVuSans-68"/>
     </defs>
     <g transform="translate(312.128 238.824286)scale(0.07 -0.07)">
      <use xlink:href="#DejaVuSans-67"/>
      <use x="69.824219" xlink:href="#DejaVuSans-70"/>
      <use x="127.34375" xlink:href="#DejaVuSans-68"/>
      <use x="204.345703" xlink:href="#DejaVuSans-32"/>
      <use x="236.132812" xlink:href="#DejaVuSans-40"/>
      <use x="275.146484" xlink:href="#DejaVuSans-65"/>
      <use x="343.554688" xlink:href="#DejaVuSans-85"/>
      <use x="416.748047" xlink:href="#DejaVuSans-67"/>
      <use x="486.572266" xlink:href="#DejaVuSans-32"/>
      <use x="518.359375" xlink:href="#DejaVuSans-61"/>
      <use x="602.148438" xlink:href="#DejaVuSans-32"/>
      <use x="633.935547" xlink:href="#DejaVuSans-48"/>
      <use x="697.558594" xlink:href="#DejaVuSans-46"/>
      <use x="729.345703" xlink:href="#DejaVuSans-57"/>
      <use x="792.96875" xlink:href="#DejaVuSans-55"/>
      <use x="856.591797" xlink:href="#DejaVuSans-41"/>
     </g>
    </g>
    <g id="line2d_31">
     <path d="M 292.528 246.648974 
L 306.528 246.648974 
" style="fill:none;stroke:#cc6600;stroke-linecap:square;stroke-opacity:0.85;stroke-width:1.5;"/>
    </g>
    <g id="line2d_32"/>
    <g id="text_20">
     <!-- CNN_std (AUC = 0.97) -->
     <defs>
      <path d="M 9.8125 72.90625 
L 23.09375 72.90625 
L 55.421875 11.921875 
L 55.421875 72.90625 
L 64.984375 72.90625 
L 64.984375 0 
L 51.703125 0 
L 19.390625 60.984375 
L 19.390625 0 
L 9.8125 0 
z
" id="DejaVuSans-78"/>
      <path d="M 50.984375 -16.609375 
L 50.984375 -23.578125 
L -0.984375 -23.578125 
L -0.984375 -16.609375 
z
" id="DejaVuSans-95"/>
     </defs>
     <g transform="translate(312.128 249.098974)scale(0.07 -0.07)">
      <use xlink:href="#DejaVuSans-67"/>
      <use x="69.824219" xlink:href="#DejaVuSans-78"/>
      <use x="144.628906" xlink:href="#DejaVuSans-78"/>
      <use x="219.433594" xlink:href="#DejaVuSans-95"/>
      <use x="269.433594" xlink:href="#DejaVuSans-115"/>
      <use x="321.533203" xlink:href="#DejaVuSans-116"/>
      <use x="360.742188" xlink:href="#DejaVuSans-100"/>
      <use x="424.21875" xlink:href="#DejaVuSans-32"/>
      <use x="456.005859" xlink:href="#DejaVuSans-40"/>
      <use x="495.019531" xlink:href="#DejaVuSans-65"/>
      <use x="563.427734" xlink:href="#DejaVuSans-85"/>
      <use x="636.621094" xlink:href="#DejaVuSans-67"/>
      <use x="706.445312" xlink:href="#DejaVuSans-32"/>
      <use x="738.232422" xlink:href="#DejaVuSans-61"/>
      <use x="822.021484" xlink:href="#DejaVuSans-32"/>
      <use x="853.808594" xlink:href="#DejaVuSans-48"/>
      <use x="917.431641" xlink:href="#DejaVuSans-46"/>
      <use x="949.21875" xlink:href="#DejaVuSans-57"/>
      <use x="1012.841797" xlink:href="#DejaVuSans-55"/>
      <use x="1076.464844" xlink:href="#DejaVuSans-41"/>
     </g>
    </g>
    <g id="line2d_33">
     <path d="M 292.528 257.118349 
L 306.528 257.118349 
" style="fill:none;stroke:#0073b2;stroke-linecap:square;stroke-opacity:0.85;stroke-width:1.5;"/>
    </g>
    <g id="line2d_34"/>
    <g id="text_21">
     <!-- MIT (AUC = 0.97) -->
     <defs>
      <path d="M 9.8125 72.90625 
L 24.515625 72.90625 
L 43.109375 23.296875 
L 61.8125 72.90625 
L 76.515625 72.90625 
L 76.515625 0 
L 66.890625 0 
L 66.890625 64.015625 
L 48.09375 14.015625 
L 38.1875 14.015625 
L 19.390625 64.015625 
L 19.390625 0 
L 9.8125 0 
z
" id="DejaVuSans-77"/>
     </defs>
     <g transform="translate(312.128 259.568349)scale(0.07 -0.07)">
      <use xlink:href="#DejaVuSans-77"/>
      <use x="86.279297" xlink:href="#DejaVuSans-73"/>
      <use x="115.771484" xlink:href="#DejaVuSans-84"/>
      <use x="176.855469" xlink:href="#DejaVuSans-32"/>
      <use x="208.642578" xlink:href="#DejaVuSans-40"/>
      <use x="247.65625" xlink:href="#DejaVuSans-65"/>
      <use x="316.064453" xlink:href="#DejaVuSans-85"/>
      <use x="389.257812" xlink:href="#DejaVuSans-67"/>
      <use x="459.082031" xlink:href="#DejaVuSans-32"/>
      <use x="490.869141" xlink:href="#DejaVuSans-61"/>
      <use x="574.658203" xlink:href="#DejaVuSans-32"/>
      <use x="606.445312" xlink:href="#DejaVuSans-48"/>
      <use x="670.068359" xlink:href="#DejaVuSans-46"/>
      <use x="701.855469" xlink:href="#DejaVuSans-57"/>
      <use x="765.478516" xlink:href="#DejaVuSans-55"/>
      <use x="829.101562" xlink:href="#DejaVuSans-41"/>
     </g>
    </g>
    <g id="line2d_35">
     <path d="M 292.528 267.393036 
L 306.528 267.393036 
" style="fill:none;stroke:#009980;stroke-linecap:square;stroke-opacity:0.85;stroke-width:1.5;"/>
    </g>
    <g id="line2d_36"/>
    <g id="text_22">
     <!-- CCTOP (AUC = 0.96) -->
     <g transform="translate(312.128 269.843036)scale(0.07 -0.07)">
      <use xlink:href="#DejaVuSans-67"/>
      <use x="69.824219" xlink:href="#DejaVuSans-67"/>
      <use x="139.648438" xlink:href="#DejaVuSans-84"/>
      <use x="200.732422" xlink:href="#DejaVuSans-79"/>
      <use x="279.443359" xlink:href="#DejaVuSans-80"/>
      <use x="339.746094" xlink:href="#DejaVuSans-32"/>
      <use x="371.533203" xlink:href="#DejaVuSans-40"/>
      <use x="410.546875" xlink:href="#DejaVuSans-65"/>
      <use x="478.955078" xlink:href="#DejaVuSans-85"/>
      <use x="552.148438" xlink:href="#DejaVuSans-67"/>
      <use x="621.972656" xlink:href="#DejaVuSans-32"/>
      <use x="653.759766" xlink:href="#DejaVuSans-61"/>
      <use x="737.548828" xlink:href="#DejaVuSans-32"/>
      <use x="769.335938" xlink:href="#DejaVuSans-48"/>
      <use x="832.958984" xlink:href="#DejaVuSans-46"/>
      <use x="864.746094" xlink:href="#DejaVuSans-57"/>
      <use x="928.369141" xlink:href="#DejaVuSans-54"/>
      <use x="991.992188" xlink:href="#DejaVuSans-41"/>
     </g>
    </g>
    <g id="line2d_37">
     <path d="M 292.528 277.667724 
L 306.528 277.667724 
" style="fill:none;stroke:#59b2e6;stroke-dasharray:5.55,2.4;stroke-dashoffset:0;stroke-opacity:0.85;stroke-width:1.5;"/>
    </g>
    <g id="line2d_38"/>
    <g id="text_23">
     <!-- Hsu (AUC = 0.89) -->
     <defs>
      <path d="M 9.8125 72.90625 
L 19.671875 72.90625 
L 19.671875 43.015625 
L 55.515625 43.015625 
L 55.515625 72.90625 
L 65.375 72.90625 
L 65.375 0 
L 55.515625 0 
L 55.515625 34.71875 
L 19.671875 34.71875 
L 19.671875 0 
L 9.8125 0 
z
" id="DejaVuSans-72"/>
     </defs>
     <g transform="translate(312.128 280.117724)scale(0.07 -0.07)">
      <use xlink:href="#DejaVuSans-72"/>
      <use x="75.195312" xlink:href="#DejaVuSans-115"/>
      <use x="127.294922" xlink:href="#DejaVuSans-117"/>
      <use x="190.673828" xlink:href="#DejaVuSans-32"/>
      <use x="222.460938" xlink:href="#DejaVuSans-40"/>
      <use x="261.474609" xlink:href="#DejaVuSans-65"/>
      <use x="329.882812" xlink:href="#DejaVuSans-85"/>
      <use x="403.076172" xlink:href="#DejaVuSans-67"/>
      <use x="472.900391" xlink:href="#DejaVuSans-32"/>
      <use x="504.6875" xlink:href="#DejaVuSans-61"/>
      <use x="588.476562" xlink:href="#DejaVuSans-32"/>
      <use x="620.263672" xlink:href="#DejaVuSans-48"/>
      <use x="683.886719" xlink:href="#DejaVuSans-46"/>
      <use x="715.673828" xlink:href="#DejaVuSans-56"/>
      <use x="779.296875" xlink:href="#DejaVuSans-57"/>
      <use x="842.919922" xlink:href="#DejaVuSans-41"/>
     </g>
    </g>
    <g id="line2d_39">
     <path d="M 292.528 287.942411 
L 306.528 287.942411 
" style="fill:none;stroke:#e69900;stroke-dasharray:5.55,2.4;stroke-dashoffset:0;stroke-opacity:0.85;stroke-width:1.5;"/>
    </g>
    <g id="line2d_40"/>
    <g id="text_24">
     <!-- COSMID (AUC = 0.87) -->
     <g transform="translate(312.128 290.392411)scale(0.07 -0.07)">
      <use xlink:href="#DejaVuSans-67"/>
      <use x="69.824219" xlink:href="#DejaVuSans-79"/>
      <use x="148.535156" xlink:href="#DejaVuSans-83"/>
      <use x="212.011719" xlink:href="#DejaVuSans-77"/>
      <use x="298.291016" xlink:href="#DejaVuSans-73"/>
      <use x="327.783203" xlink:href="#DejaVuSans-68"/>
      <use x="404.785156" xlink:href="#DejaVuSans-32"/>
      <use x="436.572266" xlink:href="#DejaVuSans-40"/>
      <use x="475.585938" xlink:href="#DejaVuSans-65"/>
      <use x="543.994141" xlink:href="#DejaVuSans-85"/>
      <use x="617.1875" xlink:href="#DejaVuSans-67"/>
      <use x="687.011719" xlink:href="#DejaVuSans-32"/>
      <use x="718.798828" xlink:href="#DejaVuSans-61"/>
      <use x="802.587891" xlink:href="#DejaVuSans-32"/>
      <use x="834.375" xlink:href="#DejaVuSans-48"/>
      <use x="897.998047" xlink:href="#DejaVuSans-46"/>
      <use x="929.785156" xlink:href="#DejaVuSans-56"/>
      <use x="993.408203" xlink:href="#DejaVuSans-55"/>
      <use x="1057.03125" xlink:href="#DejaVuSans-41"/>
     </g>
    </g>
    <g id="line2d_41">
     <path d="M 292.528 298.217099 
L 306.528 298.217099 
" style="fill:none;stroke:#000000;stroke-dasharray:5.55,2.4;stroke-dashoffset:0;stroke-opacity:0.85;stroke-width:1.5;"/>
    </g>
    <g id="line2d_42"/>
    <g id="text_25">
     <!-- Cropit (AUC = 0.96) -->
     <g transform="translate(312.128 300.667099)scale(0.07 -0.07)">
      <use xlink:href="#DejaVuSans-67"/>
      <use x="69.824219" xlink:href="#DejaVuSans-114"/>
      <use x="108.6875" xlink:href="#DejaVuSans-111"/>
      <use x="169.869141" xlink:href="#DejaVuSans-112"/>
      <use x="233.345703" xlink:href="#DejaVuSans-105"/>
      <use x="261.128906" xlink:href="#DejaVuSans-116"/>
      <use x="300.337891" xlink:href="#DejaVuSans-32"/>
      <use x="332.125" xlink:href="#DejaVuSans-40"/>
      <use x="371.138672" xlink:href="#DejaVuSans-65"/>
      <use x="439.546875" xlink:href="#DejaVuSans-85"/>
      <use x="512.740234" xlink:href="#DejaVuSans-67"/>
      <use x="582.564453" xlink:href="#DejaVuSans-32"/>
      <use x="614.351562" xlink:href="#DejaVuSans-61"/>
      <use x="698.140625" xlink:href="#DejaVuSans-32"/>
      <use x="729.927734" xlink:href="#DejaVuSans-48"/>
      <use x="793.550781" xlink:href="#DejaVuSans-46"/>
      <use x="825.337891" xlink:href="#DejaVuSans-57"/>
      <use x="888.960938" xlink:href="#DejaVuSans-54"/>
      <use x="952.583984" xlink:href="#DejaVuSans-41"/>
     </g>
    </g>
   </g>
  </g>
 </g>
 <defs>
  <clipPath id="pa5c783b4af">
   <rect height="266.112" width="357.12" x="57.6" y="41.472"/>
  </clipPath>
 </defs>
</svg>
