<?xml version="1.0" encoding="utf-8" standalone="no"?>
<!DOCTYPE svg PUBLIC "-//W3C//DTD SVG 1.1//EN"
  "http://www.w3.org/Graphics/SVG/1.1/DTD/svg11.dtd">
<!-- Created with matplotlib (https://matplotlib.org/) -->
<svg height="345.6pt" version="1.1" viewBox="0 0 460.8 345.6" width="460.8pt" xmlns="http://www.w3.org/2000/svg" xmlns:xlink="http://www.w3.org/1999/xlink">
 <defs>
  <style type="text/css">
*{stroke-linecap:butt;stroke-linejoin:round;}
  </style>
 </defs>
 <g id="figure_1">
  <g id="patch_1">
   <path d="M 0 345.6 
L 460.8 345.6 
L 460.8 0 
L 0 0 
z
" style="fill:#ffffff;"/>
  </g>
  <g id="axes_1">
   <g id="patch_2">
    <path d="M 57.6 307.584 
L 414.72 307.584 
L 414.72 41.472 
L 57.6 41.472 
z
" style="fill:#ffffff;"/>
   </g>
   <g id="matplotlib.axis_1">
    <g id="xtick_1">
     <g id="line2d_1">
      <defs>
       <path d="M 0 0 
L 0 3.5 
" id="m3f5792f095" style="stroke:#000000;stroke-width:0.8;"/>
      </defs>
      <g>
       <use style="stroke:#000000;stroke-width:0.8;" x="57.6" xlink:href="#m3f5792f095" y="307.584"/>
      </g>
     </g>
     <g id="text_1">
      <!-- 0.0 -->
      <defs>
       <path d="M 31.78125 66.40625 
Q 24.171875 66.40625 20.328125 58.90625 
Q 16.5 51.421875 16.5 36.375 
Q 16.5 21.390625 20.328125 13.890625 
Q 24.171875 6.390625 31.78125 6.390625 
Q 39.453125 6.390625 43.28125 13.890625 
Q 47.125 21.390625 47.125 36.375 
Q 47.125 51.421875 43.28125 58.90625 
Q 39.453125 66.40625 31.78125 66.40625 
z
M 31.78125 74.21875 
Q 44.046875 74.21875 50.515625 64.515625 
Q 56.984375 54.828125 56.984375 36.375 
Q 56.984375 17.96875 50.515625 8.265625 
Q 44.046875 -1.421875 31.78125 -1.421875 
Q 19.53125 -1.421875 13.0625 8.265625 
Q 6.59375 17.96875 6.59375 36.375 
Q 6.59375 54.828125 13.0625 64.515625 
Q 19.53125 74.21875 31.78125 74.21875 
z
" id="DejaVuSans-48"/>
       <path d="M 10.6875 12.40625 
L 21 12.40625 
L 21 0 
L 10.6875 0 
z
" id="DejaVuSans-46"/>
      </defs>
      <g transform="translate(49.648438 322.182437)scale(0.1 -0.1)">
       <use xlink:href="#DejaVuSans-48"/>
       <use x="63.623047" xlink:href="#DejaVuSans-46"/>
       <use x="95.410156" xlink:href="#DejaVuSans-48"/>
      </g>
     </g>
    </g>
    <g id="xtick_2">
     <g id="line2d_2">
      <g>
       <use style="stroke:#000000;stroke-width:0.8;" x="129.024" xlink:href="#m3f5792f095" y="307.584"/>
      </g>
     </g>
     <g id="text_2">
      <!-- 0.2 -->
      <defs>
       <path d="M 19.1875 8.296875 
L 53.609375 8.296875 
L 53.609375 0 
L 7.328125 0 
L 7.328125 8.296875 
Q 12.9375 14.109375 22.625 23.890625 
Q 32.328125 33.6875 34.8125 36.53125 
Q 39.546875 41.84375 41.421875 45.53125 
Q 43.3125 49.21875 43.3125 52.78125 
Q 43.3125 58.59375 39.234375 62.25 
Q 35.15625 65.921875 28.609375 65.921875 
Q 23.96875 65.921875 18.8125 64.3125 
Q 13.671875 62.703125 7.8125 59.421875 
L 7.8125 69.390625 
Q 13.765625 71.78125 18.9375 73 
Q 24.125 74.21875 28.421875 74.21875 
Q 39.75 74.21875 46.484375 68.546875 
Q 53.21875 62.890625 53.21875 53.421875 
Q 53.21875 48.921875 51.53125 44.890625 
Q 49.859375 40.875 45.40625 35.40625 
Q 44.1875 33.984375 37.640625 27.21875 
Q 31.109375 20.453125 19.1875 8.296875 
z
" id="DejaVuSans-50"/>
      </defs>
      <g transform="translate(121.072438 322.182437)scale(0.1 -0.1)">
       <use xlink:href="#DejaVuSans-48"/>
       <use x="63.623047" xlink:href="#DejaVuSans-46"/>
       <use x="95.410156" xlink:href="#DejaVuSans-50"/>
      </g>
     </g>
    </g>
    <g id="xtick_3">
     <g id="line2d_3">
      <g>
       <use style="stroke:#000000;stroke-width:0.8;" x="200.448" xlink:href="#m3f5792f095" y="307.584"/>
      </g>
     </g>
     <g id="text_3">
      <!-- 0.4 -->
      <defs>
       <path d="M 37.796875 64.3125 
L 12.890625 25.390625 
L 37.796875 25.390625 
z
M 35.203125 72.90625 
L 47.609375 72.90625 
L 47.609375 25.390625 
L 58.015625 25.390625 
L 58.015625 17.1875 
L 47.609375 17.1875 
L 47.609375 0 
L 37.796875 0 
L 37.796875 17.1875 
L 4.890625 17.1875 
L 4.890625 26.703125 
z
" id="DejaVuSans-52"/>
      </defs>
      <g transform="translate(192.496438 322.182437)scale(0.1 -0.1)">
       <use xlink:href="#DejaVuSans-48"/>
       <use x="63.623047" xlink:href="#DejaVuSans-46"/>
       <use x="95.410156" xlink:href="#DejaVuSans-52"/>
      </g>
     </g>
    </g>
    <g id="xtick_4">
     <g id="line2d_4">
      <g>
       <use style="stroke:#000000;stroke-width:0.8;" x="271.872" xlink:href="#m3f5792f095" y="307.584"/>
      </g>
     </g>
     <g id="text_4">
      <!-- 0.6 -->
      <defs>
       <path d="M 33.015625 40.375 
Q 26.375 40.375 22.484375 35.828125 
Q 18.609375 31.296875 18.609375 23.390625 
Q 18.609375 15.53125 22.484375 10.953125 
Q 26.375 6.390625 33.015625 6.390625 
Q 39.65625 6.390625 43.53125 10.953125 
Q 47.40625 15.53125 47.40625 23.390625 
Q 47.40625 31.296875 43.53125 35.828125 
Q 39.65625 40.375 33.015625 40.375 
z
M 52.59375 71.296875 
L 52.59375 62.3125 
Q 48.875 64.0625 45.09375 64.984375 
Q 41.3125 65.921875 37.59375 65.921875 
Q 27.828125 65.921875 22.671875 59.328125 
Q 17.53125 52.734375 16.796875 39.40625 
Q 19.671875 43.65625 24.015625 45.921875 
Q 28.375 48.1875 33.59375 48.1875 
Q 44.578125 48.1875 50.953125 41.515625 
Q 57.328125 34.859375 57.328125 23.390625 
Q 57.328125 12.15625 50.6875 5.359375 
Q 44.046875 -1.421875 33.015625 -1.421875 
Q 20.359375 -1.421875 13.671875 8.265625 
Q 6.984375 17.96875 6.984375 36.375 
Q 6.984375 53.65625 15.1875 63.9375 
Q 23.390625 74.21875 37.203125 74.21875 
Q 40.921875 74.21875 44.703125 73.484375 
Q 48.484375 72.75 52.59375 71.296875 
z
" id="DejaVuSans-54"/>
      </defs>
      <g transform="translate(263.920438 322.182437)scale(0.1 -0.1)">
       <use xlink:href="#DejaVuSans-48"/>
       <use x="63.623047" xlink:href="#DejaVuSans-46"/>
       <use x="95.410156" xlink:href="#DejaVuSans-54"/>
      </g>
     </g>
    </g>
    <g id="xtick_5">
     <g id="line2d_5">
      <g>
       <use style="stroke:#000000;stroke-width:0.8;" x="343.296" xlink:href="#m3f5792f095" y="307.584"/>
      </g>
     </g>
     <g id="text_5">
      <!-- 0.8 -->
      <defs>
       <path d="M 31.78125 34.625 
Q 24.75 34.625 20.71875 30.859375 
Q 16.703125 27.09375 16.703125 20.515625 
Q 16.703125 13.921875 20.71875 10.15625 
Q 24.75 6.390625 31.78125 6.390625 
Q 38.8125 6.390625 42.859375 10.171875 
Q 46.921875 13.96875 46.921875 20.515625 
Q 46.921875 27.09375 42.890625 30.859375 
Q 38.875 34.625 31.78125 34.625 
z
M 21.921875 38.8125 
Q 15.578125 40.375 12.03125 44.71875 
Q 8.5 49.078125 8.5 55.328125 
Q 8.5 64.0625 14.71875 69.140625 
Q 20.953125 74.21875 31.78125 74.21875 
Q 42.671875 74.21875 48.875 69.140625 
Q 55.078125 64.0625 55.078125 55.328125 
Q 55.078125 49.078125 51.53125 44.71875 
Q 48 40.375 41.703125 38.8125 
Q 48.828125 37.15625 52.796875 32.3125 
Q 56.78125 27.484375 56.78125 20.515625 
Q 56.78125 9.90625 50.3125 4.234375 
Q 43.84375 -1.421875 31.78125 -1.421875 
Q 19.734375 -1.421875 13.25 4.234375 
Q 6.78125 9.90625 6.78125 20.515625 
Q 6.78125 27.484375 10.78125 32.3125 
Q 14.796875 37.15625 21.921875 38.8125 
z
M 18.3125 54.390625 
Q 18.3125 48.734375 21.84375 45.5625 
Q 25.390625 42.390625 31.78125 42.390625 
Q 38.140625 42.390625 41.71875 45.5625 
Q 45.3125 48.734375 45.3125 54.390625 
Q 45.3125 60.0625 41.71875 63.234375 
Q 38.140625 66.40625 31.78125 66.40625 
Q 25.390625 66.40625 21.84375 63.234375 
Q 18.3125 60.0625 18.3125 54.390625 
z
" id="DejaVuSans-56"/>
      </defs>
      <g transform="translate(335.344438 322.182437)scale(0.1 -0.1)">
       <use xlink:href="#DejaVuSans-48"/>
       <use x="63.623047" xlink:href="#DejaVuSans-46"/>
       <use x="95.410156" xlink:href="#DejaVuSans-56"/>
      </g>
     </g>
    </g>
    <g id="xtick_6">
     <g id="line2d_6">
      <g>
       <use style="stroke:#000000;stroke-width:0.8;" x="414.72" xlink:href="#m3f5792f095" y="307.584"/>
      </g>
     </g>
     <g id="text_6">
      <!-- 1.0 -->
      <defs>
       <path d="M 12.40625 8.296875 
L 28.515625 8.296875 
L 28.515625 63.921875 
L 10.984375 60.40625 
L 10.984375 69.390625 
L 28.421875 72.90625 
L 38.28125 72.90625 
L 38.28125 8.296875 
L 54.390625 8.296875 
L 54.390625 0 
L 12.40625 0 
z
" id="DejaVuSans-49"/>
      </defs>
      <g transform="translate(406.768438 322.182437)scale(0.1 -0.1)">
       <use xlink:href="#DejaVuSans-49"/>
       <use x="63.623047" xlink:href="#DejaVuSans-46"/>
       <use x="95.410156" xlink:href="#DejaVuSans-48"/>
      </g>
     </g>
    </g>
    <g id="text_7">
     <!-- False Positive Rate -->
     <defs>
      <path d="M 9.8125 72.90625 
L 51.703125 72.90625 
L 51.703125 64.59375 
L 19.671875 64.59375 
L 19.671875 43.109375 
L 48.578125 43.109375 
L 48.578125 34.8125 
L 19.671875 34.8125 
L 19.671875 0 
L 9.8125 0 
z
" id="DejaVuSans-70"/>
      <path d="M 34.28125 27.484375 
Q 23.390625 27.484375 19.1875 25 
Q 14.984375 22.515625 14.984375 16.5 
Q 14.984375 11.71875 18.140625 8.90625 
Q 21.296875 6.109375 26.703125 6.109375 
Q 34.1875 6.109375 38.703125 11.40625 
Q 43.21875 16.703125 43.21875 25.484375 
L 43.21875 27.484375 
z
M 52.203125 31.203125 
L 52.203125 0 
L 43.21875 0 
L 43.21875 8.296875 
Q 40.140625 3.328125 35.546875 0.953125 
Q 30.953125 -1.421875 24.3125 -1.421875 
Q 15.921875 -1.421875 10.953125 3.296875 
Q 6 8.015625 6 15.921875 
Q 6 25.140625 12.171875 29.828125 
Q 18.359375 34.515625 30.609375 34.515625 
L 43.21875 34.515625 
L 43.21875 35.40625 
Q 43.21875 41.609375 39.140625 45 
Q 35.0625 48.390625 27.6875 48.390625 
Q 23 48.390625 18.546875 47.265625 
Q 14.109375 46.140625 10.015625 43.890625 
L 10.015625 52.203125 
Q 14.9375 54.109375 19.578125 55.046875 
Q 24.21875 56 28.609375 56 
Q 40.484375 56 46.34375 49.84375 
Q 52.203125 43.703125 52.203125 31.203125 
z
" id="DejaVuSans-97"/>
      <path d="M 9.421875 75.984375 
L 18.40625 75.984375 
L 18.40625 0 
L 9.421875 0 
z
" id="DejaVuSans-108"/>
      <path d="M 44.28125 53.078125 
L 44.28125 44.578125 
Q 40.484375 46.53125 36.375 47.5 
Q 32.28125 48.484375 27.875 48.484375 
Q 21.1875 48.484375 17.84375 46.4375 
Q 14.5 44.390625 14.5 40.28125 
Q 14.5 37.15625 16.890625 35.375 
Q 19.28125 33.59375 26.515625 31.984375 
L 29.59375 31.296875 
Q 39.15625 29.25 43.1875 25.515625 
Q 47.21875 21.78125 47.21875 15.09375 
Q 47.21875 7.46875 41.1875 3.015625 
Q 35.15625 -1.421875 24.609375 -1.421875 
Q 20.21875 -1.421875 15.453125 -0.5625 
Q 10.6875 0.296875 5.421875 2 
L 5.421875 11.28125 
Q 10.40625 8.6875 15.234375 7.390625 
Q 20.0625 6.109375 24.8125 6.109375 
Q 31.15625 6.109375 34.5625 8.28125 
Q 37.984375 10.453125 37.984375 14.40625 
Q 37.984375 18.0625 35.515625 20.015625 
Q 33.0625 21.96875 24.703125 23.78125 
L 21.578125 24.515625 
Q 13.234375 26.265625 9.515625 29.90625 
Q 5.8125 33.546875 5.8125 39.890625 
Q 5.8125 47.609375 11.28125 51.796875 
Q 16.75 56 26.8125 56 
Q 31.78125 56 36.171875 55.265625 
Q 40.578125 54.546875 44.28125 53.078125 
z
" id="DejaVuSans-115"/>
      <path d="M 56.203125 29.59375 
L 56.203125 25.203125 
L 14.890625 25.203125 
Q 15.484375 15.921875 20.484375 11.0625 
Q 25.484375 6.203125 34.421875 6.203125 
Q 39.59375 6.203125 44.453125 7.46875 
Q 49.3125 8.734375 54.109375 11.28125 
L 54.109375 2.78125 
Q 49.265625 0.734375 44.1875 -0.34375 
Q 39.109375 -1.421875 33.890625 -1.421875 
Q 20.796875 -1.421875 13.15625 6.1875 
Q 5.515625 13.8125 5.515625 26.8125 
Q 5.515625 40.234375 12.765625 48.109375 
Q 20.015625 56 32.328125 56 
Q 43.359375 56 49.78125 48.890625 
Q 56.203125 41.796875 56.203125 29.59375 
z
M 47.21875 32.234375 
Q 47.125 39.59375 43.09375 43.984375 
Q 39.0625 48.390625 32.421875 48.390625 
Q 24.90625 48.390625 20.390625 44.140625 
Q 15.875 39.890625 15.1875 32.171875 
z
" id="DejaVuSans-101"/>
      <path id="DejaVuSans-32"/>
      <path d="M 19.671875 64.796875 
L 19.671875 37.40625 
L 32.078125 37.40625 
Q 38.96875 37.40625 42.71875 40.96875 
Q 46.484375 44.53125 46.484375 51.125 
Q 46.484375 57.671875 42.71875 61.234375 
Q 38.96875 64.796875 32.078125 64.796875 
z
M 9.8125 72.90625 
L 32.078125 72.90625 
Q 44.34375 72.90625 50.609375 67.359375 
Q 56.890625 61.8125 56.890625 51.125 
Q 56.890625 40.328125 50.609375 34.8125 
Q 44.34375 29.296875 32.078125 29.296875 
L 19.671875 29.296875 
L 19.671875 0 
L 9.8125 0 
z
" id="DejaVuSans-80"/>
      <path d="M 30.609375 48.390625 
Q 23.390625 48.390625 19.1875 42.75 
Q 14.984375 37.109375 14.984375 27.296875 
Q 14.984375 17.484375 19.15625 11.84375 
Q 23.34375 6.203125 30.609375 6.203125 
Q 37.796875 6.203125 41.984375 11.859375 
Q 46.1875 17.53125 46.1875 27.296875 
Q 46.1875 37.015625 41.984375 42.703125 
Q 37.796875 48.390625 30.609375 48.390625 
z
M 30.609375 56 
Q 42.328125 56 49.015625 48.375 
Q 55.71875 40.765625 55.71875 27.296875 
Q 55.71875 13.875 49.015625 6.21875 
Q 42.328125 -1.421875 30.609375 -1.421875 
Q 18.84375 -1.421875 12.171875 6.21875 
Q 5.515625 13.875 5.515625 27.296875 
Q 5.515625 40.765625 12.171875 48.375 
Q 18.84375 56 30.609375 56 
z
" id="DejaVuSans-111"/>
      <path d="M 9.421875 54.6875 
L 18.40625 54.6875 
L 18.40625 0 
L 9.421875 0 
z
M 9.421875 75.984375 
L 18.40625 75.984375 
L 18.40625 64.59375 
L 9.421875 64.59375 
z
" id="DejaVuSans-105"/>
      <path d="M 18.3125 70.21875 
L 18.3125 54.6875 
L 36.8125 54.6875 
L 36.8125 47.703125 
L 18.3125 47.703125 
L 18.3125 18.015625 
Q 18.3125 11.328125 20.140625 9.421875 
Q 21.96875 7.515625 27.59375 7.515625 
L 36.8125 7.515625 
L 36.8125 0 
L 27.59375 0 
Q 17.1875 0 13.234375 3.875 
Q 9.28125 7.765625 9.28125 18.015625 
L 9.28125 47.703125 
L 2.6875 47.703125 
L 2.6875 54.6875 
L 9.28125 54.6875 
L 9.28125 70.21875 
z
" id="DejaVuSans-116"/>
      <path d="M 2.984375 54.6875 
L 12.5 54.6875 
L 29.59375 8.796875 
L 46.6875 54.6875 
L 56.203125 54.6875 
L 35.6875 0 
L 23.484375 0 
z
" id="DejaVuSans-118"/>
      <path d="M 44.390625 34.1875 
Q 47.5625 33.109375 50.5625 29.59375 
Q 53.5625 26.078125 56.59375 19.921875 
L 66.609375 0 
L 56 0 
L 46.6875 18.703125 
Q 43.0625 26.03125 39.671875 28.421875 
Q 36.28125 30.8125 30.421875 30.8125 
L 19.671875 30.8125 
L 19.671875 0 
L 9.8125 0 
L 9.8125 72.90625 
L 32.078125 72.90625 
Q 44.578125 72.90625 50.734375 67.671875 
Q 56.890625 62.453125 56.890625 51.90625 
Q 56.890625 45.015625 53.6875 40.46875 
Q 50.484375 35.9375 44.390625 34.1875 
z
M 19.671875 64.796875 
L 19.671875 38.921875 
L 32.078125 38.921875 
Q 39.203125 38.921875 42.84375 42.21875 
Q 46.484375 45.515625 46.484375 51.90625 
Q 46.484375 58.296875 42.84375 61.546875 
Q 39.203125 64.796875 32.078125 64.796875 
z
" id="DejaVuSans-82"/>
     </defs>
     <g transform="translate(189.693594 335.860562)scale(0.1 -0.1)">
      <use xlink:href="#DejaVuSans-70"/>
      <use x="48.394531" xlink:href="#DejaVuSans-97"/>
      <use x="109.673828" xlink:href="#DejaVuSans-108"/>
      <use x="137.457031" xlink:href="#DejaVuSans-115"/>
      <use x="189.556641" xlink:href="#DejaVuSans-101"/>
      <use x="251.080078" xlink:href="#DejaVuSans-32"/>
      <use x="282.867188" xlink:href="#DejaVuSans-80"/>
      <use x="339.544922" xlink:href="#DejaVuSans-111"/>
      <use x="400.726562" xlink:href="#DejaVuSans-115"/>
      <use x="452.826172" xlink:href="#DejaVuSans-105"/>
      <use x="480.609375" xlink:href="#DejaVuSans-116"/>
      <use x="519.818359" xlink:href="#DejaVuSans-105"/>
      <use x="547.601562" xlink:href="#DejaVuSans-118"/>
      <use x="606.78125" xlink:href="#DejaVuSans-101"/>
      <use x="668.304688" xlink:href="#DejaVuSans-32"/>
      <use x="700.091797" xlink:href="#DejaVuSans-82"/>
      <use x="767.324219" xlink:href="#DejaVuSans-97"/>
      <use x="828.603516" xlink:href="#DejaVuSans-116"/>
      <use x="867.8125" xlink:href="#DejaVuSans-101"/>
     </g>
    </g>
   </g>
   <g id="matplotlib.axis_2">
    <g id="ytick_1">
     <g id="line2d_7">
      <defs>
       <path d="M 0 0 
L -3.5 0 
" id="me3dcdf98ae" style="stroke:#000000;stroke-width:0.8;"/>
      </defs>
      <g>
       <use style="stroke:#000000;stroke-width:0.8;" x="57.6" xlink:href="#me3dcdf98ae" y="307.584"/>
      </g>
     </g>
     <g id="text_8">
      <!-- 0.0 -->
      <g transform="translate(34.696875 311.383219)scale(0.1 -0.1)">
       <use xlink:href="#DejaVuSans-48"/>
       <use x="63.623047" xlink:href="#DejaVuSans-46"/>
       <use x="95.410156" xlink:href="#DejaVuSans-48"/>
      </g>
     </g>
    </g>
    <g id="ytick_2">
     <g id="line2d_8">
      <g>
       <use style="stroke:#000000;stroke-width:0.8;" x="57.6" xlink:href="#me3dcdf98ae" y="254.3616"/>
      </g>
     </g>
     <g id="text_9">
      <!-- 0.2 -->
      <g transform="translate(34.696875 258.160819)scale(0.1 -0.1)">
       <use xlink:href="#DejaVuSans-48"/>
       <use x="63.623047" xlink:href="#DejaVuSans-46"/>
       <use x="95.410156" xlink:href="#DejaVuSans-50"/>
      </g>
     </g>
    </g>
    <g id="ytick_3">
     <g id="line2d_9">
      <g>
       <use style="stroke:#000000;stroke-width:0.8;" x="57.6" xlink:href="#me3dcdf98ae" y="201.1392"/>
      </g>
     </g>
     <g id="text_10">
      <!-- 0.4 -->
      <g transform="translate(34.696875 204.938419)scale(0.1 -0.1)">
       <use xlink:href="#DejaVuSans-48"/>
       <use x="63.623047" xlink:href="#DejaVuSans-46"/>
       <use x="95.410156" xlink:href="#DejaVuSans-52"/>
      </g>
     </g>
    </g>
    <g id="ytick_4">
     <g id="line2d_10">
      <g>
       <use style="stroke:#000000;stroke-width:0.8;" x="57.6" xlink:href="#me3dcdf98ae" y="147.9168"/>
      </g>
     </g>
     <g id="text_11">
      <!-- 0.6 -->
      <g transform="translate(34.696875 151.716019)scale(0.1 -0.1)">
       <use xlink:href="#DejaVuSans-48"/>
       <use x="63.623047" xlink:href="#DejaVuSans-46"/>
       <use x="95.410156" xlink:href="#DejaVuSans-54"/>
      </g>
     </g>
    </g>
    <g id="ytick_5">
     <g id="line2d_11">
      <g>
       <use style="stroke:#000000;stroke-width:0.8;" x="57.6" xlink:href="#me3dcdf98ae" y="94.6944"/>
      </g>
     </g>
     <g id="text_12">
      <!-- 0.8 -->
      <g transform="translate(34.696875 98.493619)scale(0.1 -0.1)">
       <use xlink:href="#DejaVuSans-48"/>
       <use x="63.623047" xlink:href="#DejaVuSans-46"/>
       <use x="95.410156" xlink:href="#DejaVuSans-56"/>
      </g>
     </g>
    </g>
    <g id="ytick_6">
     <g id="line2d_12">
      <g>
       <use style="stroke:#000000;stroke-width:0.8;" x="57.6" xlink:href="#me3dcdf98ae" y="41.472"/>
      </g>
     </g>
     <g id="text_13">
      <!-- 1.0 -->
      <g transform="translate(34.696875 45.271219)scale(0.1 -0.1)">
       <use xlink:href="#DejaVuSans-49"/>
       <use x="63.623047" xlink:href="#DejaVuSans-46"/>
       <use x="95.410156" xlink:href="#DejaVuSans-48"/>
      </g>
     </g>
    </g>
    <g id="text_14">
     <!-- True Positive Rate -->
     <defs>
      <path d="M -0.296875 72.90625 
L 61.375 72.90625 
L 61.375 64.59375 
L 35.5 64.59375 
L 35.5 0 
L 25.59375 0 
L 25.59375 64.59375 
L -0.296875 64.59375 
z
" id="DejaVuSans-84"/>
      <path d="M 41.109375 46.296875 
Q 39.59375 47.171875 37.8125 47.578125 
Q 36.03125 48 33.890625 48 
Q 26.265625 48 22.1875 43.046875 
Q 18.109375 38.09375 18.109375 28.8125 
L 18.109375 0 
L 9.078125 0 
L 9.078125 54.6875 
L 18.109375 54.6875 
L 18.109375 46.1875 
Q 20.953125 51.171875 25.484375 53.578125 
Q 30.03125 56 36.53125 56 
Q 37.453125 56 38.578125 55.875 
Q 39.703125 55.765625 41.0625 55.515625 
z
" id="DejaVuSans-114"/>
      <path d="M 8.5 21.578125 
L 8.5 54.6875 
L 17.484375 54.6875 
L 17.484375 21.921875 
Q 17.484375 14.15625 20.5 10.265625 
Q 23.53125 6.390625 29.59375 6.390625 
Q 36.859375 6.390625 41.078125 11.03125 
Q 45.3125 15.671875 45.3125 23.6875 
L 45.3125 54.6875 
L 54.296875 54.6875 
L 54.296875 0 
L 45.3125 0 
L 45.3125 8.40625 
Q 42.046875 3.421875 37.71875 1 
Q 33.40625 -1.421875 27.6875 -1.421875 
Q 18.265625 -1.421875 13.375 4.4375 
Q 8.5 10.296875 8.5 21.578125 
z
M 31.109375 56 
z
" id="DejaVuSans-117"/>
     </defs>
     <g transform="translate(28.617187 219.057687)rotate(-90)scale(0.1 -0.1)">
      <use xlink:href="#DejaVuSans-84"/>
      <use x="46.333984" xlink:href="#DejaVuSans-114"/>
      <use x="87.447266" xlink:href="#DejaVuSans-117"/>
      <use x="150.826172" xlink:href="#DejaVuSans-101"/>
      <use x="212.349609" xlink:href="#DejaVuSans-32"/>
      <use x="244.136719" xlink:href="#DejaVuSans-80"/>
      <use x="300.814453" xlink:href="#DejaVuSans-111"/>
      <use x="361.996094" xlink:href="#DejaVuSans-115"/>
      <use x="414.095703" xlink:href="#DejaVuSans-105"/>
      <use x="441.878906" xlink:href="#DejaVuSans-116"/>
      <use x="481.087891" xlink:href="#DejaVuSans-105"/>
      <use x="508.871094" xlink:href="#DejaVuSans-118"/>
      <use x="568.050781" xlink:href="#DejaVuSans-101"/>
      <use x="629.574219" xlink:href="#DejaVuSans-32"/>
      <use x="661.361328" xlink:href="#DejaVuSans-82"/>
      <use x="728.59375" xlink:href="#DejaVuSans-97"/>
      <use x="789.873047" xlink:href="#DejaVuSans-116"/>
      <use x="829.082031" xlink:href="#DejaVuSans-101"/>
     </g>
    </g>
   </g>
   <g id="line2d_13">
    <path clip-path="url(#p76291d9cb0)" d="M 57.6 307.584 
L 57.722701 307.584 
L 57.784051 235.008 
L 58.009002 210.816 
L 58.561154 210.816 
L 58.663405 186.624 
L 59.133757 186.624 
L 59.133757 174.528 
L 59.236008 174.528 
L 59.276908 174.528 
L 59.276908 162.432 
L 59.522309 162.432 
L 59.604109 150.336 
L 63.857729 150.336 
L 63.980429 138.24 
L 76.230036 138.24 
L 76.373187 126.144 
L 94.982773 126.144 
L 414.72 41.472 
L 414.72 41.472 
" style="fill:none;stroke:#59b2e6;stroke-linecap:square;stroke-opacity:0.85;stroke-width:1.5;"/>
   </g>
   <g id="line2d_14">
    <path clip-path="url(#p76291d9cb0)" d="M 57.6 307.584 
L 58.152153 307.584 
L 58.254403 295.488 
L 58.806556 295.488 
L 58.970156 271.296 
L 59.72681 271.296 
L 59.910861 259.2 
L 60.074461 259.2 
L 60.074461 247.104 
L 60.892465 247.104 
L 60.892465 235.008 
L 62.099021 235.008 
L 62.099021 222.912 
L 62.139921 222.912 
L 62.467122 222.912 
L 62.835224 198.72 
L 62.835224 186.624 
L 62.917025 186.624 
L 64.614382 186.624 
L 64.614382 174.528 
L 64.696183 174.528 
L 79.17485 174.528 
L 79.17485 162.432 
L 79.379351 150.336 
L 82.344614 150.336 
L 82.426415 138.24 
L 144.1039 138.24 
L 144.1039 53.568 
L 144.1857 53.568 
L 144.349301 53.568 
L 144.349301 41.472 
L 144.451551 41.472 
L 414.72 41.472 
L 414.72 41.472 
" style="fill:none;stroke:#e69900;stroke-linecap:square;stroke-opacity:0.85;stroke-width:1.5;"/>
   </g>
   <g id="line2d_15">
    <path clip-path="url(#p76291d9cb0)" d="M 57.6 307.584 
L 57.763601 307.584 
L 57.865851 247.104 
L 58.070352 247.104 
L 58.070352 235.008 
L 58.540704 235.008 
L 58.561154 210.816 
L 58.929256 210.816 
L 58.929256 198.72 
L 60.728864 198.72 
L 60.810665 186.624 
L 61.301467 186.624 
L 61.301467 174.528 
L 62.180821 174.528 
L 62.180821 162.432 
L 62.487573 162.432 
L 62.487573 150.336 
L 62.589823 150.336 
L 63.060175 150.336 
L 63.060175 138.24 
L 63.387377 138.24 
L 63.387377 126.144 
L 63.448727 126.144 
L 94.982773 126.144 
L 414.72 41.472 
L 414.72 41.472 
" style="fill:none;stroke:#000000;stroke-linecap:square;stroke-opacity:0.85;stroke-width:1.5;"/>
   </g>
   <g id="line2d_16">
    <path clip-path="url(#p76291d9cb0)" d="M 57.6 307.584 
L 57.784051 307.584 
L 57.824951 271.296 
L 58.233953 271.296 
L 58.540704 210.816 
L 58.990606 210.816 
L 58.990606 198.72 
L 59.051957 198.72 
L 59.276908 198.72 
L 59.276908 186.624 
L 60.238062 186.624 
L 60.238062 174.528 
L 61.219667 174.528 
L 61.219667 162.432 
L 61.301467 162.432 
L 61.485518 162.432 
L 61.485518 150.336 
L 61.546868 150.336 
L 72.037767 150.336 
L 72.037767 138.24 
L 80.892658 138.24 
L 80.892658 126.144 
L 80.994908 126.144 
L 91.199505 126.144 
L 414.72 41.472 
L 414.72 41.472 
" style="fill:none;stroke:#cc99b2;stroke-linecap:square;stroke-opacity:0.85;stroke-width:1.5;"/>
   </g>
   <g id="line2d_17">
    <path clip-path="url(#p76291d9cb0)" d="M 57.6 307.584 
L 58.581605 307.584 
L 58.581605 295.488 
L 58.663405 295.488 
L 58.745205 271.296 
L 58.949706 271.296 
L 58.949706 259.2 
L 59.051957 259.2 
L 61.812719 259.2 
L 61.812719 247.104 
L 62.323972 247.104 
L 62.323972 235.008 
L 62.835224 235.008 
L 62.835224 222.912 
L 62.937475 222.912 
L 64.614382 222.912 
L 64.614382 210.816 
L 64.696183 210.816 
L 67.375145 210.816 
L 67.375145 198.72 
L 69.297454 198.72 
L 69.297454 186.624 
L 69.338354 186.624 
L 70.708511 186.624 
L 70.708511 174.528 
L 70.749411 174.528 
L 72.937571 174.528 
L 72.937571 162.432 
L 72.978471 162.432 
L 74.348627 162.432 
L 74.348627 150.336 
L 77.15029 150.336 
L 77.313891 138.24 
L 80.994908 138.24 
L 80.994908 126.144 
L 81.097159 126.144 
L 94.962323 126.144 
L 414.72 41.472 
L 414.72 41.472 
" style="fill:none;stroke:#cc6600;stroke-linecap:square;stroke-opacity:0.85;stroke-width:1.5;"/>
   </g>
   <g id="line2d_18">
    <path clip-path="url(#p76291d9cb0)" d="M 57.6 307.584 
L 57.722701 307.584 
L 57.722701 295.488 
L 57.784051 295.488 
L 57.865851 295.488 
L 58.090802 283.392 
L 58.111252 283.392 
L 58.131702 271.296 
L 58.499804 271.296 
L 58.499804 259.2 
L 58.581605 259.2 
L 58.970156 259.2 
L 59.011057 235.008 
L 59.931311 235.008 
L 60.033561 222.912 
L 62.01722 222.912 
L 62.01722 210.816 
L 62.099021 210.816 
L 63.489627 210.816 
L 63.755478 198.72 
L 63.959979 198.72 
L 63.959979 186.624 
L 63.980429 186.624 
L 64.962034 186.624 
L 64.962034 174.528 
L 65.064284 174.528 
L 66.20949 174.528 
L 66.29129 150.336 
L 69.972307 150.336 
L 70.115458 138.24 
L 75.575633 138.24 
L 75.575633 126.144 
L 75.677884 126.144 
L 94.982773 126.144 
L 414.72 41.472 
L 414.72 41.472 
" style="fill:none;stroke:#0073b2;stroke-linecap:square;stroke-opacity:0.85;stroke-width:1.5;"/>
   </g>
   <g id="line2d_19">
    <path clip-path="url(#p76291d9cb0)" d="M 57.6 307.584 
L 57.70225 307.584 
L 57.763601 271.296 
L 57.784051 271.296 
L 57.824951 271.296 
L 57.824951 259.2 
L 57.927202 259.2 
L 58.254403 259.2 
L 58.377104 247.104 
L 58.540704 247.104 
L 58.540704 235.008 
L 58.622505 235.008 
L 60.054011 235.008 
L 60.054011 222.912 
L 60.135812 222.912 
L 61.301467 222.912 
L 61.301467 210.816 
L 63.632778 210.816 
L 63.857729 198.72 
L 64.818883 198.72 
L 64.818883 186.624 
L 64.859784 186.624 
L 69.113403 186.624 
L 69.113403 174.528 
L 72.998921 174.528 
L 72.998921 162.432 
L 76.639038 162.432 
L 76.639038 150.336 
L 77.10939 150.336 
L 77.10939 138.24 
L 77.375241 138.24 
L 77.375241 126.144 
L 77.457042 126.144 
L 94.982773 126.144 
L 414.72 41.472 
L 414.72 41.472 
" style="fill:none;stroke:#009980;stroke-linecap:square;stroke-opacity:0.85;stroke-width:1.5;"/>
   </g>
   <g id="line2d_20">
    <path clip-path="url(#p76291d9cb0)" d="M 57.6 307.584 
L 57.784051 307.584 
L 57.784051 295.488 
L 57.927202 295.488 
L 57.927202 283.392 
L 58.356653 283.392 
L 58.356653 271.296 
L 58.929256 271.296 
L 58.929256 259.2 
L 58.970156 259.2 
L 59.195107 259.2 
L 59.317808 247.104 
L 59.951761 247.104 
L 59.951761 235.008 
L 60.054011 235.008 
L 60.851565 235.008 
L 60.851565 222.912 
L 60.953815 222.912 
L 62.405772 222.912 
L 62.405772 210.816 
L 66.35264 210.816 
L 66.516241 198.72 
L 68.070448 198.72 
L 68.070448 186.624 
L 71.792366 186.624 
L 71.792366 174.528 
L 73.612424 174.528 
L 73.612424 162.432 
L 86.516434 162.432 
L 86.618684 150.336 
L 90.381501 150.336 
L 414.72 41.472 
L 414.72 41.472 
" style="fill:none;stroke:#59b2e6;stroke-dasharray:5.55,2.4;stroke-dashoffset:0;stroke-opacity:0.85;stroke-width:1.5;"/>
   </g>
   <g id="line2d_21">
    <path clip-path="url(#p76291d9cb0)" d="M 57.6 307.584 
L 57.6818 307.584 
L 57.763601 283.392 
L 57.784051 283.392 
L 57.845401 283.392 
L 57.865851 259.2 
L 57.927202 259.2 
L 58.540704 259.2 
L 58.867906 235.008 
L 59.66546 235.008 
L 59.72681 198.72 
L 59.890411 198.72 
L 60.238062 174.528 
L 61.281017 174.528 
L 61.567318 162.432 
L 64.737083 162.432 
L 65.043834 150.336 
L 65.923188 150.336 
L 66.454891 126.144 
L 79.25665 126.144 
L 79.727002 114.048 
L 101.608603 114.048 
L 102.078956 101.952 
L 154.881099 101.952 
L 155.228751 89.856 
L 160.566226 89.856 
L 160.750277 77.76 
L 203.511424 77.76 
L 203.654575 65.664 
L 209.707803 65.664 
L 210.014554 53.568 
L 210.607607 53.568 
L 210.893908 41.472 
L 414.72 41.472 
L 414.72 41.472 
" style="fill:none;stroke:#e69900;stroke-dasharray:5.55,2.4;stroke-dashoffset:0;stroke-opacity:0.85;stroke-width:1.5;"/>
   </g>
   <g id="line2d_22">
    <path clip-path="url(#p76291d9cb0)" d="M 57.6 307.584 
L 57.66135 307.584 
L 57.743151 295.488 
L 57.804501 295.488 
L 58.315753 271.296 
L 58.336203 271.296 
L 58.520254 259.2 
L 60.647064 247.104 
L 60.667514 247.104 
L 60.708414 247.104 
L 61.567318 222.912 
L 61.87407 222.912 
L 66.720742 222.912 
L 66.761642 222.912 
L 67.497846 186.624 
L 67.518296 186.624 
L 67.681897 186.624 
L 71.812816 174.528 
L 71.996867 174.528 
L 75.187081 174.528 
L 75.207531 174.528 
L 75.718784 138.24 
L 75.759684 138.24 
L 75.780134 138.24 
L 83.755671 126.144 
L 83.939722 126.144 
L 84.062422 126.144 
L 84.082872 126.144 
L 87.089036 126.144 
L 87.436688 126.144 
L 87.518488 126.144 
L 87.559388 126.144 
L 87.702539 126.144 
L 87.82524 126.144 
L 91.199505 126.144 
L 91.301756 126.144 
L 91.383556 126.144 
L 93.755767 126.144 
L 93.858018 126.144 
L 93.898918 126.144 
L 93.919368 126.144 
L 94.205669 126.144 
L 94.226119 126.144 
L 94.34882 126.144 
L 94.38972 126.144 
L 94.45107 126.144 
L 94.819172 126.144 
L 94.982773 126.144 
L 414.72 41.472 
" style="fill:none;stroke:#000000;stroke-dasharray:5.55,2.4;stroke-dashoffset:0;stroke-opacity:0.85;stroke-width:1.5;"/>
   </g>
   <g id="patch_3">
    <path d="M 57.6 307.584 
L 57.6 41.472 
" style="fill:none;stroke:#000000;stroke-linecap:square;stroke-linejoin:miter;stroke-width:0.8;"/>
   </g>
   <g id="patch_4">
    <path d="M 414.72 307.584 
L 414.72 41.472 
" style="fill:none;stroke:#000000;stroke-linecap:square;stroke-linejoin:miter;stroke-width:0.8;"/>
   </g>
   <g id="patch_5">
    <path d="M 57.6 307.584 
L 414.72 307.584 
" style="fill:none;stroke:#000000;stroke-linecap:square;stroke-linejoin:miter;stroke-width:0.8;"/>
   </g>
   <g id="patch_6">
    <path d="M 57.6 41.472 
L 414.72 41.472 
" style="fill:none;stroke:#000000;stroke-linecap:square;stroke-linejoin:miter;stroke-width:0.8;"/>
   </g>
   <g id="text_15">
    <!-- Receiver-Operating curve -->
    <defs>
     <path d="M 48.78125 52.59375 
L 48.78125 44.1875 
Q 44.96875 46.296875 41.140625 47.34375 
Q 37.3125 48.390625 33.40625 48.390625 
Q 24.65625 48.390625 19.8125 42.84375 
Q 14.984375 37.3125 14.984375 27.296875 
Q 14.984375 17.28125 19.8125 11.734375 
Q 24.65625 6.203125 33.40625 6.203125 
Q 37.3125 6.203125 41.140625 7.25 
Q 44.96875 8.296875 48.78125 10.40625 
L 48.78125 2.09375 
Q 45.015625 0.34375 40.984375 -0.53125 
Q 36.96875 -1.421875 32.421875 -1.421875 
Q 20.0625 -1.421875 12.78125 6.34375 
Q 5.515625 14.109375 5.515625 27.296875 
Q 5.515625 40.671875 12.859375 48.328125 
Q 20.21875 56 33.015625 56 
Q 37.15625 56 41.109375 55.140625 
Q 45.0625 54.296875 48.78125 52.59375 
z
" id="DejaVuSans-99"/>
     <path d="M 4.890625 31.390625 
L 31.203125 31.390625 
L 31.203125 23.390625 
L 4.890625 23.390625 
z
" id="DejaVuSans-45"/>
     <path d="M 39.40625 66.21875 
Q 28.65625 66.21875 22.328125 58.203125 
Q 16.015625 50.203125 16.015625 36.375 
Q 16.015625 22.609375 22.328125 14.59375 
Q 28.65625 6.59375 39.40625 6.59375 
Q 50.140625 6.59375 56.421875 14.59375 
Q 62.703125 22.609375 62.703125 36.375 
Q 62.703125 50.203125 56.421875 58.203125 
Q 50.140625 66.21875 39.40625 66.21875 
z
M 39.40625 74.21875 
Q 54.734375 74.21875 63.90625 63.9375 
Q 73.09375 53.65625 73.09375 36.375 
Q 73.09375 19.140625 63.90625 8.859375 
Q 54.734375 -1.421875 39.40625 -1.421875 
Q 24.03125 -1.421875 14.8125 8.828125 
Q 5.609375 19.09375 5.609375 36.375 
Q 5.609375 53.65625 14.8125 63.9375 
Q 24.03125 74.21875 39.40625 74.21875 
z
" id="DejaVuSans-79"/>
     <path d="M 18.109375 8.203125 
L 18.109375 -20.796875 
L 9.078125 -20.796875 
L 9.078125 54.6875 
L 18.109375 54.6875 
L 18.109375 46.390625 
Q 20.953125 51.265625 25.265625 53.625 
Q 29.59375 56 35.59375 56 
Q 45.5625 56 51.78125 48.09375 
Q 58.015625 40.1875 58.015625 27.296875 
Q 58.015625 14.40625 51.78125 6.484375 
Q 45.5625 -1.421875 35.59375 -1.421875 
Q 29.59375 -1.421875 25.265625 0.953125 
Q 20.953125 3.328125 18.109375 8.203125 
z
M 48.6875 27.296875 
Q 48.6875 37.203125 44.609375 42.84375 
Q 40.53125 48.484375 33.40625 48.484375 
Q 26.265625 48.484375 22.1875 42.84375 
Q 18.109375 37.203125 18.109375 27.296875 
Q 18.109375 17.390625 22.1875 11.75 
Q 26.265625 6.109375 33.40625 6.109375 
Q 40.53125 6.109375 44.609375 11.75 
Q 48.6875 17.390625 48.6875 27.296875 
z
" id="DejaVuSans-112"/>
     <path d="M 54.890625 33.015625 
L 54.890625 0 
L 45.90625 0 
L 45.90625 32.71875 
Q 45.90625 40.484375 42.875 44.328125 
Q 39.84375 48.1875 33.796875 48.1875 
Q 26.515625 48.1875 22.3125 43.546875 
Q 18.109375 38.921875 18.109375 30.90625 
L 18.109375 0 
L 9.078125 0 
L 9.078125 54.6875 
L 18.109375 54.6875 
L 18.109375 46.1875 
Q 21.34375 51.125 25.703125 53.5625 
Q 30.078125 56 35.796875 56 
Q 45.21875 56 50.046875 50.171875 
Q 54.890625 44.34375 54.890625 33.015625 
z
" id="DejaVuSans-110"/>
     <path d="M 45.40625 27.984375 
Q 45.40625 37.75 41.375 43.109375 
Q 37.359375 48.484375 30.078125 48.484375 
Q 22.859375 48.484375 18.828125 43.109375 
Q 14.796875 37.75 14.796875 27.984375 
Q 14.796875 18.265625 18.828125 12.890625 
Q 22.859375 7.515625 30.078125 7.515625 
Q 37.359375 7.515625 41.375 12.890625 
Q 45.40625 18.265625 45.40625 27.984375 
z
M 54.390625 6.78125 
Q 54.390625 -7.171875 48.1875 -13.984375 
Q 42 -20.796875 29.203125 -20.796875 
Q 24.46875 -20.796875 20.265625 -20.09375 
Q 16.0625 -19.390625 12.109375 -17.921875 
L 12.109375 -9.1875 
Q 16.0625 -11.328125 19.921875 -12.34375 
Q 23.78125 -13.375 27.78125 -13.375 
Q 36.625 -13.375 41.015625 -8.765625 
Q 45.40625 -4.15625 45.40625 5.171875 
L 45.40625 9.625 
Q 42.625 4.78125 38.28125 2.390625 
Q 33.9375 0 27.875 0 
Q 17.828125 0 11.671875 7.65625 
Q 5.515625 15.328125 5.515625 27.984375 
Q 5.515625 40.671875 11.671875 48.328125 
Q 17.828125 56 27.875 56 
Q 33.9375 56 38.28125 53.609375 
Q 42.625 51.21875 45.40625 46.390625 
L 45.40625 54.6875 
L 54.390625 54.6875 
z
" id="DejaVuSans-103"/>
    </defs>
    <g transform="translate(159.538125 35.472)scale(0.12 -0.12)">
     <use xlink:href="#DejaVuSans-82"/>
     <use x="64.982422" xlink:href="#DejaVuSans-101"/>
     <use x="126.505859" xlink:href="#DejaVuSans-99"/>
     <use x="181.486328" xlink:href="#DejaVuSans-101"/>
     <use x="243.009766" xlink:href="#DejaVuSans-105"/>
     <use x="270.792969" xlink:href="#DejaVuSans-118"/>
     <use x="329.972656" xlink:href="#DejaVuSans-101"/>
     <use x="391.496094" xlink:href="#DejaVuSans-114"/>
     <use x="426.234375" xlink:href="#DejaVuSans-45"/>
     <use x="465.068359" xlink:href="#DejaVuSans-79"/>
     <use x="543.779297" xlink:href="#DejaVuSans-112"/>
     <use x="607.255859" xlink:href="#DejaVuSans-101"/>
     <use x="668.779297" xlink:href="#DejaVuSans-114"/>
     <use x="709.892578" xlink:href="#DejaVuSans-97"/>
     <use x="771.171875" xlink:href="#DejaVuSans-116"/>
     <use x="810.380859" xlink:href="#DejaVuSans-105"/>
     <use x="838.164062" xlink:href="#DejaVuSans-110"/>
     <use x="901.542969" xlink:href="#DejaVuSans-103"/>
     <use x="965.019531" xlink:href="#DejaVuSans-32"/>
     <use x="996.806641" xlink:href="#DejaVuSans-99"/>
     <use x="1051.787109" xlink:href="#DejaVuSans-117"/>
     <use x="1115.166016" xlink:href="#DejaVuSans-114"/>
     <use x="1156.279297" xlink:href="#DejaVuSans-118"/>
     <use x="1215.458984" xlink:href="#DejaVuSans-101"/>
    </g>
   </g>
   <g id="legend_1">
    <g id="patch_7">
     <path d="M 291.128 304.92288 
L 411.713938 304.92288 
Q 413.113938 304.92288 413.113938 303.52288 
L 413.113938 201.281317 
Q 413.113938 199.881317 411.713938 199.881317 
L 291.128 199.881317 
Q 289.728 199.881317 289.728 201.281317 
L 289.728 303.52288 
Q 289.728 304.92288 291.128 304.92288 
z
" style="fill:#ffffff;opacity:0.8;stroke:#cccccc;stroke-linejoin:miter;"/>
    </g>
    <g id="line2d_23">
     <path d="M 292.528 205.550224 
L 306.528 205.550224 
" style="fill:none;stroke:#59b2e6;stroke-linecap:square;stroke-opacity:0.85;stroke-width:1.5;"/>
    </g>
    <g id="line2d_24"/>
    <g id="text_16">
     <!-- elevation (AUC = 0.82) -->
     <defs>
      <path d="M 31 75.875 
Q 24.46875 64.65625 21.28125 53.65625 
Q 18.109375 42.671875 18.109375 31.390625 
Q 18.109375 20.125 21.3125 9.0625 
Q 24.515625 -2 31 -13.1875 
L 23.1875 -13.1875 
Q 15.875 -1.703125 12.234375 9.375 
Q 8.59375 20.453125 8.59375 31.390625 
Q 8.59375 42.28125 12.203125 53.3125 
Q 15.828125 64.359375 23.1875 75.875 
z
" id="DejaVuSans-40"/>
      <path d="M 34.1875 63.1875 
L 20.796875 26.90625 
L 47.609375 26.90625 
z
M 28.609375 72.90625 
L 39.796875 72.90625 
L 67.578125 0 
L 57.328125 0 
L 50.6875 18.703125 
L 17.828125 18.703125 
L 11.1875 0 
L 0.78125 0 
z
" id="DejaVuSans-65"/>
      <path d="M 8.6875 72.90625 
L 18.609375 72.90625 
L 18.609375 28.609375 
Q 18.609375 16.890625 22.84375 11.734375 
Q 27.09375 6.59375 36.625 6.59375 
Q 46.09375 6.59375 50.34375 11.734375 
Q 54.59375 16.890625 54.59375 28.609375 
L 54.59375 72.90625 
L 64.5 72.90625 
L 64.5 27.390625 
Q 64.5 13.140625 57.4375 5.859375 
Q 50.390625 -1.421875 36.625 -1.421875 
Q 22.796875 -1.421875 15.734375 5.859375 
Q 8.6875 13.140625 8.6875 27.390625 
z
" id="DejaVuSans-85"/>
      <path d="M 64.40625 67.28125 
L 64.40625 56.890625 
Q 59.421875 61.53125 53.78125 63.8125 
Q 48.140625 66.109375 41.796875 66.109375 
Q 29.296875 66.109375 22.65625 58.46875 
Q 16.015625 50.828125 16.015625 36.375 
Q 16.015625 21.96875 22.65625 14.328125 
Q 29.296875 6.6875 41.796875 6.6875 
Q 48.140625 6.6875 53.78125 8.984375 
Q 59.421875 11.28125 64.40625 15.921875 
L 64.40625 5.609375 
Q 59.234375 2.09375 53.4375 0.328125 
Q 47.65625 -1.421875 41.21875 -1.421875 
Q 24.65625 -1.421875 15.125 8.703125 
Q 5.609375 18.84375 5.609375 36.375 
Q 5.609375 53.953125 15.125 64.078125 
Q 24.65625 74.21875 41.21875 74.21875 
Q 47.75 74.21875 53.53125 72.484375 
Q 59.328125 70.75 64.40625 67.28125 
z
" id="DejaVuSans-67"/>
      <path d="M 10.59375 45.40625 
L 73.1875 45.40625 
L 73.1875 37.203125 
L 10.59375 37.203125 
z
M 10.59375 25.484375 
L 73.1875 25.484375 
L 73.1875 17.1875 
L 10.59375 17.1875 
z
" id="DejaVuSans-61"/>
      <path d="M 8.015625 75.875 
L 15.828125 75.875 
Q 23.140625 64.359375 26.78125 53.3125 
Q 30.421875 42.28125 30.421875 31.390625 
Q 30.421875 20.453125 26.78125 9.375 
Q 23.140625 -1.703125 15.828125 -13.1875 
L 8.015625 -13.1875 
Q 14.5 -2 17.703125 9.0625 
Q 20.90625 20.125 20.90625 31.390625 
Q 20.90625 42.671875 17.703125 53.65625 
Q 14.5 64.65625 8.015625 75.875 
z
" id="DejaVuSans-41"/>
     </defs>
     <g transform="translate(312.128 208.000224)scale(0.07 -0.07)">
      <use xlink:href="#DejaVuSans-101"/>
      <use x="61.523438" xlink:href="#DejaVuSans-108"/>
      <use x="89.306641" xlink:href="#DejaVuSans-101"/>
      <use x="150.830078" xlink:href="#DejaVuSans-118"/>
      <use x="210.009766" xlink:href="#DejaVuSans-97"/>
      <use x="271.289062" xlink:href="#DejaVuSans-116"/>
      <use x="310.498047" xlink:href="#DejaVuSans-105"/>
      <use x="338.28125" xlink:href="#DejaVuSans-111"/>
      <use x="399.462891" xlink:href="#DejaVuSans-110"/>
      <use x="462.841797" xlink:href="#DejaVuSans-32"/>
      <use x="494.628906" xlink:href="#DejaVuSans-40"/>
      <use x="533.642578" xlink:href="#DejaVuSans-65"/>
      <use x="602.050781" xlink:href="#DejaVuSans-85"/>
      <use x="675.244141" xlink:href="#DejaVuSans-67"/>
      <use x="745.068359" xlink:href="#DejaVuSans-32"/>
      <use x="776.855469" xlink:href="#DejaVuSans-61"/>
      <use x="860.644531" xlink:href="#DejaVuSans-32"/>
      <use x="892.431641" xlink:href="#DejaVuSans-48"/>
      <use x="956.054688" xlink:href="#DejaVuSans-46"/>
      <use x="987.841797" xlink:href="#DejaVuSans-56"/>
      <use x="1051.464844" xlink:href="#DejaVuSans-50"/>
      <use x="1115.087891" xlink:href="#DejaVuSans-41"/>
     </g>
    </g>
    <g id="line2d_25">
     <path d="M 292.528 215.824911 
L 306.528 215.824911 
" style="fill:none;stroke:#e69900;stroke-linecap:square;stroke-opacity:0.85;stroke-width:1.5;"/>
    </g>
    <g id="line2d_26"/>
    <g id="text_17">
     <!-- CRISTA (AUC = 0.90) -->
     <defs>
      <path d="M 9.8125 72.90625 
L 19.671875 72.90625 
L 19.671875 0 
L 9.8125 0 
z
" id="DejaVuSans-73"/>
      <path d="M 53.515625 70.515625 
L 53.515625 60.890625 
Q 47.90625 63.578125 42.921875 64.890625 
Q 37.9375 66.21875 33.296875 66.21875 
Q 25.25 66.21875 20.875 63.09375 
Q 16.5 59.96875 16.5 54.203125 
Q 16.5 49.359375 19.40625 46.890625 
Q 22.3125 44.4375 30.421875 42.921875 
L 36.375 41.703125 
Q 47.40625 39.59375 52.65625 34.296875 
Q 57.90625 29 57.90625 20.125 
Q 57.90625 9.515625 50.796875 4.046875 
Q 43.703125 -1.421875 29.984375 -1.421875 
Q 24.8125 -1.421875 18.96875 -0.25 
Q 13.140625 0.921875 6.890625 3.21875 
L 6.890625 13.375 
Q 12.890625 10.015625 18.65625 8.296875 
Q 24.421875 6.59375 29.984375 6.59375 
Q 38.421875 6.59375 43.015625 9.90625 
Q 47.609375 13.234375 47.609375 19.390625 
Q 47.609375 24.75 44.3125 27.78125 
Q 41.015625 30.8125 33.5 32.328125 
L 27.484375 33.5 
Q 16.453125 35.6875 11.515625 40.375 
Q 6.59375 45.0625 6.59375 53.421875 
Q 6.59375 63.09375 13.40625 68.65625 
Q 20.21875 74.21875 32.171875 74.21875 
Q 37.3125 74.21875 42.625 73.28125 
Q 47.953125 72.359375 53.515625 70.515625 
z
" id="DejaVuSans-83"/>
      <path d="M 10.984375 1.515625 
L 10.984375 10.5 
Q 14.703125 8.734375 18.5 7.8125 
Q 22.3125 6.890625 25.984375 6.890625 
Q 35.75 6.890625 40.890625 13.453125 
Q 46.046875 20.015625 46.78125 33.40625 
Q 43.953125 29.203125 39.59375 26.953125 
Q 35.25 24.703125 29.984375 24.703125 
Q 19.046875 24.703125 12.671875 31.3125 
Q 6.296875 37.9375 6.296875 49.421875 
Q 6.296875 60.640625 12.9375 67.421875 
Q 19.578125 74.21875 30.609375 74.21875 
Q 43.265625 74.21875 49.921875 64.515625 
Q 56.59375 54.828125 56.59375 36.375 
Q 56.59375 19.140625 48.40625 8.859375 
Q 40.234375 -1.421875 26.421875 -1.421875 
Q 22.703125 -1.421875 18.890625 -0.6875 
Q 15.09375 0.046875 10.984375 1.515625 
z
M 30.609375 32.421875 
Q 37.25 32.421875 41.125 36.953125 
Q 45.015625 41.5 45.015625 49.421875 
Q 45.015625 57.28125 41.125 61.84375 
Q 37.25 66.40625 30.609375 66.40625 
Q 23.96875 66.40625 20.09375 61.84375 
Q 16.21875 57.28125 16.21875 49.421875 
Q 16.21875 41.5 20.09375 36.953125 
Q 23.96875 32.421875 30.609375 32.421875 
z
" id="DejaVuSans-57"/>
     </defs>
     <g transform="translate(312.128 218.274911)scale(0.07 -0.07)">
      <use xlink:href="#DejaVuSans-67"/>
      <use x="69.824219" xlink:href="#DejaVuSans-82"/>
      <use x="139.306641" xlink:href="#DejaVuSans-73"/>
      <use x="168.798828" xlink:href="#DejaVuSans-83"/>
      <use x="232.275391" xlink:href="#DejaVuSans-84"/>
      <use x="285.609375" xlink:href="#DejaVuSans-65"/>
      <use x="354.017578" xlink:href="#DejaVuSans-32"/>
      <use x="385.804688" xlink:href="#DejaVuSans-40"/>
      <use x="424.818359" xlink:href="#DejaVuSans-65"/>
      <use x="493.226562" xlink:href="#DejaVuSans-85"/>
      <use x="566.419922" xlink:href="#DejaVuSans-67"/>
      <use x="636.244141" xlink:href="#DejaVuSans-32"/>
      <use x="668.03125" xlink:href="#DejaVuSans-61"/>
      <use x="751.820312" xlink:href="#DejaVuSans-32"/>
      <use x="783.607422" xlink:href="#DejaVuSans-48"/>
      <use x="847.230469" xlink:href="#DejaVuSans-46"/>
      <use x="879.017578" xlink:href="#DejaVuSans-57"/>
      <use x="942.640625" xlink:href="#DejaVuSans-48"/>
      <use x="1006.263672" xlink:href="#DejaVuSans-41"/>
     </g>
    </g>
    <g id="line2d_27">
     <path d="M 292.528 226.099599 
L 306.528 226.099599 
" style="fill:none;stroke:#000000;stroke-linecap:square;stroke-opacity:0.85;stroke-width:1.5;"/>
    </g>
    <g id="line2d_28"/>
    <g id="text_18">
     <!-- predictCRISPR (AUC = 0.82) -->
     <defs>
      <path d="M 45.40625 46.390625 
L 45.40625 75.984375 
L 54.390625 75.984375 
L 54.390625 0 
L 45.40625 0 
L 45.40625 8.203125 
Q 42.578125 3.328125 38.25 0.953125 
Q 33.9375 -1.421875 27.875 -1.421875 
Q 17.96875 -1.421875 11.734375 6.484375 
Q 5.515625 14.40625 5.515625 27.296875 
Q 5.515625 40.1875 11.734375 48.09375 
Q 17.96875 56 27.875 56 
Q 33.9375 56 38.25 53.625 
Q 42.578125 51.265625 45.40625 46.390625 
z
M 14.796875 27.296875 
Q 14.796875 17.390625 18.875 11.75 
Q 22.953125 6.109375 30.078125 6.109375 
Q 37.203125 6.109375 41.296875 11.75 
Q 45.40625 17.390625 45.40625 27.296875 
Q 45.40625 37.203125 41.296875 42.84375 
Q 37.203125 48.484375 30.078125 48.484375 
Q 22.953125 48.484375 18.875 42.84375 
Q 14.796875 37.203125 14.796875 27.296875 
z
" id="DejaVuSans-100"/>
     </defs>
     <g transform="translate(312.128 228.549599)scale(0.07 -0.07)">
      <use xlink:href="#DejaVuSans-112"/>
      <use x="63.476562" xlink:href="#DejaVuSans-114"/>
      <use x="102.339844" xlink:href="#DejaVuSans-101"/>
      <use x="163.863281" xlink:href="#DejaVuSans-100"/>
      <use x="227.339844" xlink:href="#DejaVuSans-105"/>
      <use x="255.123047" xlink:href="#DejaVuSans-99"/>
      <use x="310.103516" xlink:href="#DejaVuSans-116"/>
      <use x="349.3125" xlink:href="#DejaVuSans-67"/>
      <use x="419.136719" xlink:href="#DejaVuSans-82"/>
      <use x="488.619141" xlink:href="#DejaVuSans-73"/>
      <use x="518.111328" xlink:href="#DejaVuSans-83"/>
      <use x="581.587891" xlink:href="#DejaVuSans-80"/>
      <use x="641.890625" xlink:href="#DejaVuSans-82"/>
      <use x="711.373047" xlink:href="#DejaVuSans-32"/>
      <use x="743.160156" xlink:href="#DejaVuSans-40"/>
      <use x="782.173828" xlink:href="#DejaVuSans-65"/>
      <use x="850.582031" xlink:href="#DejaVuSans-85"/>
      <use x="923.775391" xlink:href="#DejaVuSans-67"/>
      <use x="993.599609" xlink:href="#DejaVuSans-32"/>
      <use x="1025.386719" xlink:href="#DejaVuSans-61"/>
      <use x="1109.175781" xlink:href="#DejaVuSans-32"/>
      <use x="1140.962891" xlink:href="#DejaVuSans-48"/>
      <use x="1204.585938" xlink:href="#DejaVuSans-46"/>
      <use x="1236.373047" xlink:href="#DejaVuSans-56"/>
      <use x="1299.996094" xlink:href="#DejaVuSans-50"/>
      <use x="1363.619141" xlink:href="#DejaVuSans-41"/>
     </g>
    </g>
    <g id="line2d_29">
     <path d="M 292.528 236.374286 
L 306.528 236.374286 
" style="fill:none;stroke:#cc99b2;stroke-linecap:square;stroke-opacity:0.85;stroke-width:1.5;"/>
    </g>
    <g id="line2d_30"/>
    <g id="text_19">
     <!-- CFD (AUC = 0.82) -->
     <defs>
      <path d="M 19.671875 64.796875 
L 19.671875 8.109375 
L 31.59375 8.109375 
Q 46.6875 8.109375 53.6875 14.9375 
Q 60.6875 21.78125 60.6875 36.53125 
Q 60.6875 51.171875 53.6875 57.984375 
Q 46.6875 64.796875 31.59375 64.796875 
z
M 9.8125 72.90625 
L 30.078125 72.90625 
Q 51.265625 72.90625 61.171875 64.09375 
Q 71.09375 55.28125 71.09375 36.53125 
Q 71.09375 17.671875 61.125 8.828125 
Q 51.171875 0 30.078125 0 
L 9.8125 0 
z
" id="DejaVuSans-68"/>
     </defs>
     <g transform="translate(312.128 238.824286)scale(0.07 -0.07)">
      <use xlink:href="#DejaVuSans-67"/>
      <use x="69.824219" xlink:href="#DejaVuSans-70"/>
      <use x="127.34375" xlink:href="#DejaVuSans-68"/>
      <use x="204.345703" xlink:href="#DejaVuSans-32"/>
      <use x="236.132812" xlink:href="#DejaVuSans-40"/>
      <use x="275.146484" xlink:href="#DejaVuSans-65"/>
      <use x="343.554688" xlink:href="#DejaVuSans-85"/>
      <use x="416.748047" xlink:href="#DejaVuSans-67"/>
      <use x="486.572266" xlink:href="#DejaVuSans-32"/>
      <use x="518.359375" xlink:href="#DejaVuSans-61"/>
      <use x="602.148438" xlink:href="#DejaVuSans-32"/>
      <use x="633.935547" xlink:href="#DejaVuSans-48"/>
      <use x="697.558594" xlink:href="#DejaVuSans-46"/>
      <use x="729.345703" xlink:href="#DejaVuSans-56"/>
      <use x="792.96875" xlink:href="#DejaVuSans-50"/>
      <use x="856.591797" xlink:href="#DejaVuSans-41"/>
     </g>
    </g>
    <g id="line2d_31">
     <path d="M 292.528 246.648974 
L 306.528 246.648974 
" style="fill:none;stroke:#cc6600;stroke-linecap:square;stroke-opacity:0.85;stroke-width:1.5;"/>
    </g>
    <g id="line2d_32"/>
    <g id="text_20">
     <!-- CNN_std (AUC = 0.81) -->
     <defs>
      <path d="M 9.8125 72.90625 
L 23.09375 72.90625 
L 55.421875 11.921875 
L 55.421875 72.90625 
L 64.984375 72.90625 
L 64.984375 0 
L 51.703125 0 
L 19.390625 60.984375 
L 19.390625 0 
L 9.8125 0 
z
" id="DejaVuSans-78"/>
      <path d="M 50.984375 -16.609375 
L 50.984375 -23.578125 
L -0.984375 -23.578125 
L -0.984375 -16.609375 
z
" id="DejaVuSans-95"/>
     </defs>
     <g transform="translate(312.128 249.098974)scale(0.07 -0.07)">
      <use xlink:href="#DejaVuSans-67"/>
      <use x="69.824219" xlink:href="#DejaVuSans-78"/>
      <use x="144.628906" xlink:href="#DejaVuSans-78"/>
      <use x="219.433594" xlink:href="#DejaVuSans-95"/>
      <use x="269.433594" xlink:href="#DejaVuSans-115"/>
      <use x="321.533203" xlink:href="#DejaVuSans-116"/>
      <use x="360.742188" xlink:href="#DejaVuSans-100"/>
      <use x="424.21875" xlink:href="#DejaVuSans-32"/>
      <use x="456.005859" xlink:href="#DejaVuSans-40"/>
      <use x="495.019531" xlink:href="#DejaVuSans-65"/>
      <use x="563.427734" xlink:href="#DejaVuSans-85"/>
      <use x="636.621094" xlink:href="#DejaVuSans-67"/>
      <use x="706.445312" xlink:href="#DejaVuSans-32"/>
      <use x="738.232422" xlink:href="#DejaVuSans-61"/>
      <use x="822.021484" xlink:href="#DejaVuSans-32"/>
      <use x="853.808594" xlink:href="#DejaVuSans-48"/>
      <use x="917.431641" xlink:href="#DejaVuSans-46"/>
      <use x="949.21875" xlink:href="#DejaVuSans-56"/>
      <use x="1012.841797" xlink:href="#DejaVuSans-49"/>
      <use x="1076.464844" xlink:href="#DejaVuSans-41"/>
     </g>
    </g>
    <g id="line2d_33">
     <path d="M 292.528 257.118349 
L 306.528 257.118349 
" style="fill:none;stroke:#0073b2;stroke-linecap:square;stroke-opacity:0.85;stroke-width:1.5;"/>
    </g>
    <g id="line2d_34"/>
    <g id="text_21">
     <!-- MIT (AUC = 0.81) -->
     <defs>
      <path d="M 9.8125 72.90625 
L 24.515625 72.90625 
L 43.109375 23.296875 
L 61.8125 72.90625 
L 76.515625 72.90625 
L 76.515625 0 
L 66.890625 0 
L 66.890625 64.015625 
L 48.09375 14.015625 
L 38.1875 14.015625 
L 19.390625 64.015625 
L 19.390625 0 
L 9.8125 0 
z
" id="DejaVuSans-77"/>
     </defs>
     <g transform="translate(312.128 259.568349)scale(0.07 -0.07)">
      <use xlink:href="#DejaVuSans-77"/>
      <use x="86.279297" xlink:href="#DejaVuSans-73"/>
      <use x="115.771484" xlink:href="#DejaVuSans-84"/>
      <use x="176.855469" xlink:href="#DejaVuSans-32"/>
      <use x="208.642578" xlink:href="#DejaVuSans-40"/>
      <use x="247.65625" xlink:href="#DejaVuSans-65"/>
      <use x="316.064453" xlink:href="#DejaVuSans-85"/>
      <use x="389.257812" xlink:href="#DejaVuSans-67"/>
      <use x="459.082031" xlink:href="#DejaVuSans-32"/>
      <use x="490.869141" xlink:href="#DejaVuSans-61"/>
      <use x="574.658203" xlink:href="#DejaVuSans-32"/>
      <use x="606.445312" xlink:href="#DejaVuSans-48"/>
      <use x="670.068359" xlink:href="#DejaVuSans-46"/>
      <use x="701.855469" xlink:href="#DejaVuSans-56"/>
      <use x="765.478516" xlink:href="#DejaVuSans-49"/>
      <use x="829.101562" xlink:href="#DejaVuSans-41"/>
     </g>
    </g>
    <g id="line2d_35">
     <path d="M 292.528 267.393036 
L 306.528 267.393036 
" style="fill:none;stroke:#009980;stroke-linecap:square;stroke-opacity:0.85;stroke-width:1.5;"/>
    </g>
    <g id="line2d_36"/>
    <g id="text_22">
     <!-- CCTOP (AUC = 0.81) -->
     <g transform="translate(312.128 269.843036)scale(0.07 -0.07)">
      <use xlink:href="#DejaVuSans-67"/>
      <use x="69.824219" xlink:href="#DejaVuSans-67"/>
      <use x="139.648438" xlink:href="#DejaVuSans-84"/>
      <use x="200.732422" xlink:href="#DejaVuSans-79"/>
      <use x="279.443359" xlink:href="#DejaVuSans-80"/>
      <use x="339.746094" xlink:href="#DejaVuSans-32"/>
      <use x="371.533203" xlink:href="#DejaVuSans-40"/>
      <use x="410.546875" xlink:href="#DejaVuSans-65"/>
      <use x="478.955078" xlink:href="#DejaVuSans-85"/>
      <use x="552.148438" xlink:href="#DejaVuSans-67"/>
      <use x="621.972656" xlink:href="#DejaVuSans-32"/>
      <use x="653.759766" xlink:href="#DejaVuSans-61"/>
      <use x="737.548828" xlink:href="#DejaVuSans-32"/>
      <use x="769.335938" xlink:href="#DejaVuSans-48"/>
      <use x="832.958984" xlink:href="#DejaVuSans-46"/>
      <use x="864.746094" xlink:href="#DejaVuSans-56"/>
      <use x="928.369141" xlink:href="#DejaVuSans-49"/>
      <use x="991.992188" xlink:href="#DejaVuSans-41"/>
     </g>
    </g>
    <g id="line2d_37">
     <path d="M 292.528 277.667724 
L 306.528 277.667724 
" style="fill:none;stroke:#59b2e6;stroke-dasharray:5.55,2.4;stroke-dashoffset:0;stroke-opacity:0.85;stroke-width:1.5;"/>
    </g>
    <g id="line2d_38"/>
    <g id="text_23">
     <!-- Hsu (AUC = 0.76) -->
     <defs>
      <path d="M 9.8125 72.90625 
L 19.671875 72.90625 
L 19.671875 43.015625 
L 55.515625 43.015625 
L 55.515625 72.90625 
L 65.375 72.90625 
L 65.375 0 
L 55.515625 0 
L 55.515625 34.71875 
L 19.671875 34.71875 
L 19.671875 0 
L 9.8125 0 
z
" id="DejaVuSans-72"/>
      <path d="M 8.203125 72.90625 
L 55.078125 72.90625 
L 55.078125 68.703125 
L 28.609375 0 
L 18.3125 0 
L 43.21875 64.59375 
L 8.203125 64.59375 
z
" id="DejaVuSans-55"/>
     </defs>
     <g transform="translate(312.128 280.117724)scale(0.07 -0.07)">
      <use xlink:href="#DejaVuSans-72"/>
      <use x="75.195312" xlink:href="#DejaVuSans-115"/>
      <use x="127.294922" xlink:href="#DejaVuSans-117"/>
      <use x="190.673828" xlink:href="#DejaVuSans-32"/>
      <use x="222.460938" xlink:href="#DejaVuSans-40"/>
      <use x="261.474609" xlink:href="#DejaVuSans-65"/>
      <use x="329.882812" xlink:href="#DejaVuSans-85"/>
      <use x="403.076172" xlink:href="#DejaVuSans-67"/>
      <use x="472.900391" xlink:href="#DejaVuSans-32"/>
      <use x="504.6875" xlink:href="#DejaVuSans-61"/>
      <use x="588.476562" xlink:href="#DejaVuSans-32"/>
      <use x="620.263672" xlink:href="#DejaVuSans-48"/>
      <use x="683.886719" xlink:href="#DejaVuSans-46"/>
      <use x="715.673828" xlink:href="#DejaVuSans-55"/>
      <use x="779.296875" xlink:href="#DejaVuSans-54"/>
      <use x="842.919922" xlink:href="#DejaVuSans-41"/>
     </g>
    </g>
    <g id="line2d_39">
     <path d="M 292.528 287.942411 
L 306.528 287.942411 
" style="fill:none;stroke:#e69900;stroke-dasharray:5.55,2.4;stroke-dashoffset:0;stroke-opacity:0.85;stroke-width:1.5;"/>
    </g>
    <g id="line2d_40"/>
    <g id="text_24">
     <!-- COSMID (AUC = 0.90) -->
     <g transform="translate(312.128 290.392411)scale(0.07 -0.07)">
      <use xlink:href="#DejaVuSans-67"/>
      <use x="69.824219" xlink:href="#DejaVuSans-79"/>
      <use x="148.535156" xlink:href="#DejaVuSans-83"/>
      <use x="212.011719" xlink:href="#DejaVuSans-77"/>
      <use x="298.291016" xlink:href="#DejaVuSans-73"/>
      <use x="327.783203" xlink:href="#DejaVuSans-68"/>
      <use x="404.785156" xlink:href="#DejaVuSans-32"/>
      <use x="436.572266" xlink:href="#DejaVuSans-40"/>
      <use x="475.585938" xlink:href="#DejaVuSans-65"/>
      <use x="543.994141" xlink:href="#DejaVuSans-85"/>
      <use x="617.1875" xlink:href="#DejaVuSans-67"/>
      <use x="687.011719" xlink:href="#DejaVuSans-32"/>
      <use x="718.798828" xlink:href="#DejaVuSans-61"/>
      <use x="802.587891" xlink:href="#DejaVuSans-32"/>
      <use x="834.375" xlink:href="#DejaVuSans-48"/>
      <use x="897.998047" xlink:href="#DejaVuSans-46"/>
      <use x="929.785156" xlink:href="#DejaVuSans-57"/>
      <use x="993.408203" xlink:href="#DejaVuSans-48"/>
      <use x="1057.03125" xlink:href="#DejaVuSans-41"/>
     </g>
    </g>
    <g id="line2d_41">
     <path d="M 292.528 298.217099 
L 306.528 298.217099 
" style="fill:none;stroke:#000000;stroke-dasharray:5.55,2.4;stroke-dashoffset:0;stroke-opacity:0.85;stroke-width:1.5;"/>
    </g>
    <g id="line2d_42"/>
    <g id="text_25">
     <!-- Cropit (AUC = 0.81) -->
     <g transform="translate(312.128 300.667099)scale(0.07 -0.07)">
      <use xlink:href="#DejaVuSans-67"/>
      <use x="69.824219" xlink:href="#DejaVuSans-114"/>
      <use x="108.6875" xlink:href="#DejaVuSans-111"/>
      <use x="169.869141" xlink:href="#DejaVuSans-112"/>
      <use x="233.345703" xlink:href="#DejaVuSans-105"/>
      <use x="261.128906" xlink:href="#DejaVuSans-116"/>
      <use x="300.337891" xlink:href="#DejaVuSans-32"/>
      <use x="332.125" xlink:href="#DejaVuSans-40"/>
      <use x="371.138672" xlink:href="#DejaVuSans-65"/>
      <use x="439.546875" xlink:href="#DejaVuSans-85"/>
      <use x="512.740234" xlink:href="#DejaVuSans-67"/>
      <use x="582.564453" xlink:href="#DejaVuSans-32"/>
      <use x="614.351562" xlink:href="#DejaVuSans-61"/>
      <use x="698.140625" xlink:href="#DejaVuSans-32"/>
      <use x="729.927734" xlink:href="#DejaVuSans-48"/>
      <use x="793.550781" xlink:href="#DejaVuSans-46"/>
      <use x="825.337891" xlink:href="#DejaVuSans-56"/>
      <use x="888.960938" xlink:href="#DejaVuSans-49"/>
      <use x="952.583984" xlink:href="#DejaVuSans-41"/>
     </g>
    </g>
   </g>
  </g>
 </g>
 <defs>
  <clipPath id="p76291d9cb0">
   <rect height="266.112" width="357.12" x="57.6" y="41.472"/>
  </clipPath>
 </defs>
</svg>
